<?xml version="1.0" encoding="UTF-8" standalone="no"?>
<!-- Created with Inkscape (http://www.inkscape.org/) -->

<svg
   width="97.391342mm"
   height="28.571686mm"
   viewBox="0 0 97.391348 28.571685"
   version="1.1"
   id="svg9853"
   sodipodi:docname="mean_field_phase_diagram.svg"
   inkscape:version="1.2.1 (9c6d41e, 2022-07-14)"
   xmlns:inkscape="http://www.inkscape.org/namespaces/inkscape"
   xmlns:sodipodi="http://sodipodi.sourceforge.net/DTD/sodipodi-0.dtd"
   xmlns:xlink="http://www.w3.org/1999/xlink"
   xmlns="http://www.w3.org/2000/svg"
   xmlns:svg="http://www.w3.org/2000/svg"
   xmlns:ns2="http://www.iki.fi/pav/software/textext/">
  <sodipodi:namedview
     id="namedview9855"
     pagecolor="#ffffff"
     bordercolor="#666666"
     borderopacity="1.0"
     inkscape:showpageshadow="2"
     inkscape:pageopacity="0.0"
     inkscape:pagecheckerboard="0"
     inkscape:deskcolor="#d1d1d1"
     inkscape:document-units="mm"
     showgrid="false"
     inkscape:zoom="2.2034829"
     inkscape:cx="149.98982"
     inkscape:cy="7.7150587"
     inkscape:window-width="1920"
     inkscape:window-height="966"
     inkscape:window-x="1512"
     inkscape:window-y="63"
     inkscape:window-maximized="0"
     inkscape:current-layer="layer1" />
  <defs
     id="defs9850">
    <linearGradient
       inkscape:collect="always"
       id="linearGradient64480">
      <stop
         style="stop-color:#ffffff;stop-opacity:1"
         offset="0"
         id="stop64476" />
      <stop
         style="stop-color:#ff00ff;stop-opacity:1"
         offset="1"
         id="stop64478" />
    </linearGradient>
    <linearGradient
       inkscape:collect="always"
       id="linearGradient62676">
      <stop
         style="stop-color:#00ff00;stop-opacity:1;"
         offset="0"
         id="stop62672" />
      <stop
         style="stop-color:#00ff00;stop-opacity:1"
         offset="0.5"
         id="stop64316" />
      <stop
         style="stop-color:#00ff00;stop-opacity:0;"
         offset="1"
         id="stop62674" />
    </linearGradient>
    <linearGradient
       id="linearGradient19701"
       inkscape:swatch="solid">
      <stop
         style="stop-color:#00ff00;stop-opacity:1;"
         offset="0"
         id="stop19699" />
    </linearGradient>
    <linearGradient
       id="linearGradient16320">
      <stop
         style="stop-color:#00ff00;stop-opacity:1;"
         offset="0"
         id="stop17176" />
      <stop
         style="stop-color:#00ff00;stop-opacity:0;"
         offset="1"
         id="stop17178" />
    </linearGradient>
    <linearGradient
       id="linearGradient16320-1">
      <stop
         style="stop-color:#00ff00;stop-opacity:1;"
         offset="0"
         id="stop16316" />
      <stop
         style="stop-color:#00ff00;stop-opacity:0.49803922;"
         offset="0.5"
         id="stop17187" />
      <stop
         style="stop-color:#00ff00;stop-opacity:0;"
         offset="1"
         id="stop16318" />
    </linearGradient>
    <marker
       style="overflow:visible"
       id="TriangleStart"
       refX="0"
       refY="0"
       orient="auto-start-reverse"
       inkscape:stockid="TriangleStart"
       markerWidth="5.3244081"
       markerHeight="6.155385"
       viewBox="0 0 5.3244081 6.1553851"
       inkscape:isstock="true"
       inkscape:collect="always"
       preserveAspectRatio="xMidYMid">
      <path
         transform="scale(0.5)"
         style="fill:context-stroke;fill-rule:evenodd;stroke:context-stroke;stroke-width:1pt"
         d="M 5.77,0 -2.88,5 V -5 Z"
         id="path135" />
    </marker>
    <linearGradient
       inkscape:collect="always"
       xlink:href="#linearGradient62676"
       id="linearGradient62678"
       x1="116.91821"
       y1="112.53941"
       x2="149.68626"
       y2="112.53941"
       gradientUnits="userSpaceOnUse"
       gradientTransform="matrix(1.4718259,0,0,1,-88.012415,0)" />
    <linearGradient
       inkscape:collect="always"
       xlink:href="#linearGradient64480"
       id="linearGradient64482"
       x1="149.35226"
       y1="112.53941"
       x2="182.12033"
       y2="112.53941"
       gradientUnits="userSpaceOnUse"
       gradientTransform="matrix(1.2097209,0,0,1,-48.653209,0)" />
    <g
       id="id-885ba740-be8d-4606-8712-7adc70081e8b-7">
      <g
         id="id-a3f84c45-1a57-446a-8dc2-800e86404741-1" />
      <g
         id="id-5b233034-6179-46be-815d-863ced450acb-5">
        <path
           d="m 5.796875,-6.78125 h -5.46875 v 0.3125 H 0.5625 c 0.765625,0 0.796875,0.109375 0.796875,0.46875 v 5.21875 c 0,0.359375 -0.03125,0.46875 -0.796875,0.46875 H 0.328125 V 0 c 0.34375,-0.03125 1.125,-0.03125 1.515625,-0.03125 0.40625,0 1.3125,0 1.671875,0.03125 V -0.3125 H 3.1875 C 2.25,-0.3125 2.25,-0.4375 2.25,-0.78125 v -2.453125 h 0.84375 c 0.96875,0 1.0625,0.3125 1.0625,1.15625 h 0.25 V -4.71875 h -0.25 c 0,0.84375 -0.09375,1.171875 -1.0625,1.171875 H 2.25 v -2.53125 c 0,-0.328125 0.015625,-0.390625 0.484375,-0.390625 h 1.1875 c 1.5,0 1.75,0.5625 1.90625,1.9375 h 0.25 z m 0,0"
           id="id-9491aa24-fa00-452f-bfc0-e746a9a99cd6-5" />
      </g>
      <g
         id="id-26a6ec3f-d318-49ac-9739-33f0b168f5e0-8">
        <path
           d="M 2.40625,-6.59375 C 2.3125,-6.8125 2.28125,-6.8125 2.046875,-6.8125 H 0.375 V -6.5 h 0.234375 c 0.765625,0 0.78125,0.109375 0.78125,0.46875 v 4.984375 c 0,0.265625 0,0.734375 -1.015625,0.734375 V 0 c 0.34375,-0.015625 0.828125,-0.03125 1.15625,-0.03125 0.328125,0 0.828125,0.015625 1.171875,0.03125 v -0.3125 c -1.03125,0 -1.03125,-0.46875 -1.03125,-0.734375 v -5.375 H 1.6875 L 4.09375,-0.21875 C 4.140625,-0.09375 4.1875,0 4.28125,0 4.390625,0 4.421875,-0.078125 4.46875,-0.1875 L 6.921875,-6.5 v 5.71875 c 0,0.359375 -0.015625,0.46875 -0.78125,0.46875 H 5.90625 V 0 c 0.359375,-0.03125 1.046875,-0.03125 1.4375,-0.03125 0.375,0 1.046875,0 1.421875,0.03125 v -0.3125 h -0.25 c -0.765625,0 -0.78125,-0.109375 -0.78125,-0.46875 v -5.25 C 7.734375,-6.390625 7.75,-6.5 8.515625,-6.5 h 0.25 v -0.3125 h -1.6875 C 6.8125,-6.8125 6.8125,-6.796875 6.75,-6.625 L 4.5625,-1 Z m 0,0"
           id="id-53e09184-f43c-4453-8be8-12febfe7db43-5" />
      </g>
    </g>
    <g
       id="id-0e4595b2-fd30-4cbb-862a-b415513c4775-3">
      <g
         id="id-155399bc-ee3e-4b60-87ad-6173cc68f5a3-2" />
      <g
         id="id-1b9a9d0d-557a-4484-bdd4-da56d56f2356-6">
        <path
           d="m 4.578125,-3.1875 c 0,-0.796875 -0.046875,-1.59375 -0.390625,-2.328125 -0.453125,-0.96875 -1.28125,-1.125 -1.6875,-1.125 -0.609375,0 -1.328125,0.265625 -1.75,1.1875 -0.3125,0.6875 -0.359375,1.46875 -0.359375,2.265625 0,0.75 0.03125,1.640625 0.453125,2.40625 0.421875,0.796875 1.15625,1 1.640625,1 0.53125,0 1.296875,-0.203125 1.734375,-1.15625 0.3125,-0.6875 0.359375,-1.46875 0.359375,-2.25 z M 2.484375,0 C 2.09375,0 1.5,-0.25 1.328125,-1.203125 1.21875,-1.796875 1.21875,-2.71875 1.21875,-3.3125 c 0,-0.640625 0,-1.296875 0.078125,-1.828125 0.1875,-1.1875 0.9375,-1.28125 1.1875,-1.28125 0.328125,0 0.984375,0.1875 1.171875,1.171875 0.109375,0.5625 0.109375,1.3125 0.109375,1.9375 0,0.75 0,1.421875 -0.109375,2.0625 C 3.5,-0.296875 2.9375,0 2.484375,0 Z m 0,0"
           id="id-5177b13d-bad1-4507-ab4e-0cdf409dfdfe-8" />
      </g>
      <g
         id="id-b7a202a1-6b8f-4181-9dae-a6114070b87f-9">
        <path
           d="m 1.90625,-0.53125 c 0,-0.28125 -0.234375,-0.53125 -0.515625,-0.53125 -0.296875,0 -0.53125,0.25 -0.53125,0.53125 C 0.859375,-0.234375 1.09375,0 1.390625,0 1.671875,0 1.90625,-0.234375 1.90625,-0.53125 Z m 0,0"
           id="id-de32f599-8dcc-489b-bd11-7953583a14a2-1" />
      </g>
      <g
         id="id-414c77ce-b346-43bb-919f-3fe7b15b4325-4">
        <path
           d="m 2.890625,-3.515625 c 0.8125,-0.265625 1.390625,-0.953125 1.390625,-1.75 0,-0.8125 -0.875,-1.375 -1.828125,-1.375 -1,0 -1.765625,0.59375 -1.765625,1.359375 0,0.328125 0.21875,0.515625 0.515625,0.515625 0.296875,0 0.5,-0.21875 0.5,-0.515625 0,-0.484375 -0.46875,-0.484375 -0.609375,-0.484375 0.296875,-0.5 0.953125,-0.625 1.3125,-0.625 0.421875,0 0.96875,0.21875 0.96875,1.109375 0,0.125 -0.03125,0.703125 -0.28125,1.140625 C 2.796875,-3.65625 2.453125,-3.625 2.203125,-3.625 2.125,-3.609375 1.890625,-3.59375 1.8125,-3.59375 c -0.078125,0.015625 -0.140625,0.03125 -0.140625,0.125 0,0.109375 0.0625,0.109375 0.234375,0.109375 h 0.4375 c 0.8125,0 1.1875,0.671875 1.1875,1.65625 0,1.359375 -0.6875,1.640625 -1.125,1.640625 -0.4375,0 -1.1875,-0.171875 -1.53125,-0.75 0.34375,0.046875 0.65625,-0.171875 0.65625,-0.546875 0,-0.359375 -0.265625,-0.5625 -0.546875,-0.5625 -0.25,0 -0.5625,0.140625 -0.5625,0.578125 0,0.90625 0.921875,1.5625 2.015625,1.5625 1.21875,0 2.125,-0.90625 2.125,-1.921875 0,-0.8125 -0.640625,-1.59375 -1.671875,-1.8125 z m 0,0"
           id="id-462a0dc4-7967-4de2-beec-ba7427156226-8" />
      </g>
    </g>
    <g
       id="id-e7076b15-b4e4-4dad-ab27-be4a3d2a409b-8">
      <g
         id="id-851ecab2-fe94-4d2a-8cc2-9d115770f95e-9" />
      <g
         id="id-f4c07e4a-a0e0-40d0-8f7f-3ca909cb96da-3">
        <path
           d="m 0.5625,-3.40625 c 0,2.0625 1.609375,3.625 3.46875,3.625 1.625,0 2.59375,-1.390625 2.59375,-2.546875 C 6.625,-2.421875 6.625,-2.5 6.5,-2.5 6.390625,-2.5 6.390625,-2.4375 6.375,-2.328125 6.296875,-0.90625 5.234375,-0.09375 4.140625,-0.09375 c -0.609375,0 -2.5625,-0.328125 -2.5625,-3.3125 0,-2.96875 1.953125,-3.3125 2.5625,-3.3125 1.078125,0 1.96875,0.90625 2.171875,2.359375 C 6.328125,-4.21875 6.328125,-4.1875 6.46875,-4.1875 6.625,-4.1875 6.625,-4.21875 6.625,-4.421875 V -6.78125 c 0,-0.171875 0,-0.25 -0.109375,-0.25 -0.03125,0 -0.078125,0 -0.15625,0.125 l -0.5,0.734375 C 5.5,-6.53125 4.984375,-7.03125 4.03125,-7.03125 c -1.875,0 -3.46875,1.59375 -3.46875,3.625 z m 0,0"
           id="id-a55f150d-eb91-467d-9c7e-e3d147ddc643-7" />
      </g>
      <g
         id="id-12d95fba-ca5d-4ade-b571-4d8817ebd5a3-4">
        <path
           d="M 4.6875,-2.140625 C 4.6875,-3.40625 3.703125,-4.46875 2.5,-4.46875 c -1.25,0 -2.21875,1.09375 -2.21875,2.328125 0,1.296875 1.03125,2.25 2.203125,2.25 1.203125,0 2.203125,-0.984375 2.203125,-2.25 z m -2.1875,2 c -0.4375,0 -0.875,-0.203125 -1.140625,-0.671875 -0.25,-0.4375 -0.25,-1.046875 -0.25,-1.40625 0,-0.390625 0,-0.921875 0.234375,-1.359375 C 1.609375,-4.03125 2.078125,-4.25 2.484375,-4.25 c 0.4375,0 0.859375,0.21875 1.125,0.65625 0.265625,0.421875 0.265625,1 0.265625,1.375 0,0.359375 0,0.90625 -0.21875,1.34375 C 3.421875,-0.421875 2.984375,-0.140625 2.5,-0.140625 Z m 0,0"
           id="id-13bc9f13-211a-423e-be4f-f7a3995fe0bf-8" />
      </g>
      <g
         id="id-2a3e91e3-d227-48c5-8637-2bdec66320de-0">
        <path
           d="M 1.09375,-3.421875 V -0.75 c 0,0.4375 -0.109375,0.4375 -0.78125,0.4375 V 0 c 0.359375,-0.015625 0.859375,-0.03125 1.140625,-0.03125 0.25,0 0.765625,0.015625 1.109375,0.03125 v -0.3125 c -0.671875,0 -0.78125,0 -0.78125,-0.4375 V -2.59375 C 1.78125,-3.625 2.5,-4.1875 3.125,-4.1875 c 0.640625,0 0.75,0.53125 0.75,1.109375 V -0.75 c 0,0.4375 -0.109375,0.4375 -0.78125,0.4375 V 0 c 0.34375,-0.015625 0.859375,-0.03125 1.125,-0.03125 0.25,0 0.78125,0.015625 1.109375,0.03125 v -0.3125 c -0.515625,0 -0.765625,0 -0.765625,-0.296875 v -1.90625 c 0,-0.859375 0,-1.15625 -0.3125,-1.515625 -0.140625,-0.171875 -0.46875,-0.375 -1.046875,-0.375 C 2.46875,-4.40625 2,-3.984375 1.71875,-3.359375 V -4.40625 L 0.3125,-4.296875 v 0.3125 c 0.703125,0 0.78125,0.0625 0.78125,0.5625 z m 0,0"
           id="id-b9b62138-2b92-4a33-af7e-b4c86ffb1ec4-4" />
      </g>
      <g
         id="id-0cf5fad7-0344-477c-af46-e43e75d31a7a-0">
        <path
           d="m 3.296875,-3.984375 c 0.453125,0 0.515625,0.125 0.515625,0.53125 V -0.75 c 0,0.4375 -0.109375,0.4375 -0.765625,0.4375 V 0 c 0.328125,-0.015625 0.84375,-0.03125 1.09375,-0.03125 0.25,0 0.75,0.015625 1.109375,0.03125 v -0.3125 c -0.671875,0 -0.78125,0 -0.78125,-0.4375 v -3.671875 l -1.25,0.09375 C 3.0625,-4.3125 3.046875,-4.3125 3.046875,-4.3125 3.015625,-4.296875 3,-4.296875 2.859375,-4.296875 H 1.6875 v -1.125 c 0,-0.984375 0.859375,-1.390625 1.46875,-1.390625 0.296875,0 0.65625,0.109375 0.859375,0.328125 -0.40625,0.03125 -0.46875,0.296875 -0.46875,0.46875 C 3.546875,-5.6875 3.8125,-5.5625 4,-5.5625 c 0.234375,0 0.453125,-0.15625 0.453125,-0.453125 0,-0.59375 -0.546875,-1.015625 -1.28125,-1.015625 C 2.25,-7.03125 1.0625,-6.515625 1.0625,-5.4375 v 1.140625 H 0.265625 v 0.3125 H 1.0625 V -0.75 c 0,0.4375 -0.109375,0.4375 -0.78125,0.4375 V 0 C 0.609375,-0.015625 1.140625,-0.03125 1.390625,-0.03125 1.640625,-0.03125 2.125,-0.015625 2.5,0 v -0.3125 c -0.671875,0 -0.78125,0 -0.78125,-0.4375 v -3.234375 z m 0,0"
           id="id-b3cc6140-dec0-461a-a201-64a71dbed255-5" />
      </g>
      <g
         id="id-54eb078b-d30d-4023-8412-4b64a71b9d40-7">
        <path
           d="M 1.109375,-2.515625 C 1.171875,-4 2.015625,-4.25 2.359375,-4.25 c 1.015625,0 1.125,1.34375 1.125,1.734375 z m 0,0.21875 h 2.78125 c 0.21875,0 0.25,0 0.25,-0.21875 0,-0.984375 -0.546875,-1.953125 -1.78125,-1.953125 -1.15625,0 -2.078125,1.03125 -2.078125,2.28125 0,1.328125 1.046875,2.296875 2.1875,2.296875 C 3.6875,0.109375 4.140625,-1 4.140625,-1.1875 4.140625,-1.28125 4.0625,-1.3125 4,-1.3125 c -0.078125,0 -0.109375,0.0625 -0.125,0.140625 -0.34375,1.03125 -1.25,1.03125 -1.34375,1.03125 -0.5,0 -0.890625,-0.296875 -1.125,-0.671875 -0.296875,-0.46875 -0.296875,-1.125 -0.296875,-1.484375 z m 0,0"
           id="id-61b444bd-d891-421d-a497-02b9b11964d4-0" />
      </g>
      <g
         id="id-0c9672ce-0919-4c41-abe0-95fd3ff60335-0">
        <path
           d="m 3.78125,-0.546875 v 0.65625 L 5.25,0 v -0.3125 c -0.6875,0 -0.78125,-0.0625 -0.78125,-0.5625 V -6.921875 L 3.046875,-6.8125 V -6.5 c 0.6875,0 0.765625,0.0625 0.765625,0.5625 v 2.15625 c -0.28125,-0.359375 -0.71875,-0.625 -1.25,-0.625 -1.171875,0 -2.21875,0.984375 -2.21875,2.265625 0,1.265625 0.96875,2.25 2.109375,2.25 0.640625,0 1.078125,-0.34375 1.328125,-0.65625 z m 0,-2.671875 v 2.046875 c 0,0.171875 0,0.1875 -0.109375,0.359375 C 3.375,-0.328125 2.9375,-0.109375 2.5,-0.109375 2.046875,-0.109375 1.6875,-0.375 1.453125,-0.75 1.203125,-1.15625 1.171875,-1.71875 1.171875,-2.140625 1.171875,-2.5 1.1875,-3.09375 1.46875,-3.546875 1.6875,-3.859375 2.0625,-4.1875 2.609375,-4.1875 c 0.34375,0 0.765625,0.15625 1.0625,0.59375 0.109375,0.171875 0.109375,0.1875 0.109375,0.375 z m 0,0"
           id="id-bf104944-b48c-4937-89f6-5a3b25050df4-5" />
      </g>
    </g>
    <g
       id="id-2e3d0dc8-b8a2-4d15-b64d-c669cc517650-8">
      <g
         id="id-54f67a58-e78e-46e9-ae30-cb22b434a637-5" />
      <g
         id="id-10ca3122-2fa9-4bbd-9da8-5f81e48ef5d8-8">
        <path
           d="M 0.34375,-6.8125 V -6.5 h 0.25 c 0.765625,0 0.78125,0.109375 0.78125,0.46875 v 5.25 c 0,0.359375 -0.015625,0.46875 -0.78125,0.46875 h -0.25 V 0 H 4 C 5.671875,0 7.046875,-1.46875 7.046875,-3.34375 7.046875,-5.25 5.703125,-6.8125 4,-6.8125 Z m 2.375,6.5 C 2.25,-0.3125 2.234375,-0.375 2.234375,-0.703125 V -6.09375 C 2.234375,-6.4375 2.25,-6.5 2.71875,-6.5 h 1 c 0.625,0 1.3125,0.21875 1.8125,0.921875 0.4375,0.59375 0.515625,1.453125 0.515625,2.234375 0,1.09375 -0.1875,1.703125 -0.546875,2.1875 -0.203125,0.265625 -0.765625,0.84375 -1.765625,0.84375 z m 0,0"
           id="id-022d6ca4-9bab-469e-a2d5-a68e43070b54-9" />
      </g>
      <g
         id="id-ebfdaa49-3491-435d-b483-c39792fbf41c-6">
        <path
           d="M 1.109375,-2.515625 C 1.171875,-4 2.015625,-4.25 2.359375,-4.25 c 1.015625,0 1.125,1.34375 1.125,1.734375 z m 0,0.21875 h 2.78125 c 0.21875,0 0.25,0 0.25,-0.21875 0,-0.984375 -0.546875,-1.953125 -1.78125,-1.953125 -1.15625,0 -2.078125,1.03125 -2.078125,2.28125 0,1.328125 1.046875,2.296875 2.1875,2.296875 C 3.6875,0.109375 4.140625,-1 4.140625,-1.1875 4.140625,-1.28125 4.0625,-1.3125 4,-1.3125 c -0.078125,0 -0.109375,0.0625 -0.125,0.140625 -0.34375,1.03125 -1.25,1.03125 -1.34375,1.03125 -0.5,0 -0.890625,-0.296875 -1.125,-0.671875 -0.296875,-0.46875 -0.296875,-1.125 -0.296875,-1.484375 z m 0,0"
           id="id-3dba23e5-bef9-4771-878b-69e4ac6cd8a3-0" />
      </g>
      <g
         id="id-d2f6e24f-a2fd-4713-9877-528f88498314-4">
        <path
           d="m 1.171875,-2.171875 c 0,-1.625 0.8125,-2.046875 1.34375,-2.046875 0.09375,0 0.71875,0.015625 1.0625,0.375 -0.40625,0.03125 -0.46875,0.328125 -0.46875,0.453125 0,0.265625 0.1875,0.453125 0.453125,0.453125 0.265625,0 0.46875,-0.15625 0.46875,-0.46875 0,-0.671875 -0.765625,-1.0625 -1.53125,-1.0625 -1.25,0 -2.15625,1.078125 -2.15625,2.3125 0,1.28125 0.984375,2.265625 2.140625,2.265625 1.328125,0 1.65625,-1.203125 1.65625,-1.296875 0,-0.09375 -0.109375,-0.09375 -0.140625,-0.09375 -0.078125,0 -0.109375,0.03125 -0.125,0.09375 -0.28125,0.921875 -0.9375,1.046875 -1.296875,1.046875 -0.53125,0 -1.40625,-0.421875 -1.40625,-2.03125 z m 0,0"
           id="id-4b29b121-4be1-4f39-b8fd-7f4a8414c109-2" />
      </g>
      <g
         id="id-d6dd02dc-a6d6-461f-92e2-df4bb65c33a8-3">
        <path
           d="M 4.6875,-2.140625 C 4.6875,-3.40625 3.703125,-4.46875 2.5,-4.46875 c -1.25,0 -2.21875,1.09375 -2.21875,2.328125 0,1.296875 1.03125,2.25 2.203125,2.25 1.203125,0 2.203125,-0.984375 2.203125,-2.25 z m -2.1875,2 c -0.4375,0 -0.875,-0.203125 -1.140625,-0.671875 -0.25,-0.4375 -0.25,-1.046875 -0.25,-1.40625 0,-0.390625 0,-0.921875 0.234375,-1.359375 C 1.609375,-4.03125 2.078125,-4.25 2.484375,-4.25 c 0.4375,0 0.859375,0.21875 1.125,0.65625 0.265625,0.421875 0.265625,1 0.265625,1.375 0,0.359375 0,0.90625 -0.21875,1.34375 C 3.421875,-0.421875 2.984375,-0.140625 2.5,-0.140625 Z m 0,0"
           id="id-6ad13959-45a5-47f2-bc05-a3703ed088e0-3" />
      </g>
      <g
         id="id-b234150b-447d-43be-bcbc-457ec16d8c51-7">
        <path
           d="M 1.09375,-3.421875 V -0.75 c 0,0.4375 -0.109375,0.4375 -0.78125,0.4375 V 0 c 0.359375,-0.015625 0.859375,-0.03125 1.140625,-0.03125 0.25,0 0.765625,0.015625 1.109375,0.03125 v -0.3125 c -0.671875,0 -0.78125,0 -0.78125,-0.4375 V -2.59375 C 1.78125,-3.625 2.5,-4.1875 3.125,-4.1875 c 0.640625,0 0.75,0.53125 0.75,1.109375 V -0.75 c 0,0.4375 -0.109375,0.4375 -0.78125,0.4375 V 0 c 0.34375,-0.015625 0.859375,-0.03125 1.125,-0.03125 0.25,0 0.78125,0.015625 1.109375,0.03125 v -0.3125 c -0.515625,0 -0.765625,0 -0.765625,-0.296875 v -1.90625 c 0,-0.859375 0,-1.15625 -0.3125,-1.515625 -0.140625,-0.171875 -0.46875,-0.375 -1.046875,-0.375 C 2.46875,-4.40625 2,-3.984375 1.71875,-3.359375 V -4.40625 L 0.3125,-4.296875 v 0.3125 c 0.703125,0 0.78125,0.0625 0.78125,0.5625 z m 0,0"
           id="id-ddc9698e-3250-4b34-ad22-25c83cfbf65c-0" />
      </g>
      <g
         id="id-4ffafaa2-d547-4b5b-a1a0-d0d2cff01438-0">
        <path
           d="m 3.296875,-3.984375 c 0.453125,0 0.515625,0.125 0.515625,0.53125 V -0.75 c 0,0.4375 -0.109375,0.4375 -0.765625,0.4375 V 0 c 0.328125,-0.015625 0.84375,-0.03125 1.09375,-0.03125 0.25,0 0.75,0.015625 1.109375,0.03125 v -0.3125 c -0.671875,0 -0.78125,0 -0.78125,-0.4375 v -3.671875 l -1.25,0.09375 C 3.0625,-4.3125 3.046875,-4.3125 3.046875,-4.3125 3.015625,-4.296875 3,-4.296875 2.859375,-4.296875 H 1.6875 v -1.125 c 0,-0.984375 0.859375,-1.390625 1.46875,-1.390625 0.296875,0 0.65625,0.109375 0.859375,0.328125 -0.40625,0.03125 -0.46875,0.296875 -0.46875,0.46875 C 3.546875,-5.6875 3.8125,-5.5625 4,-5.5625 c 0.234375,0 0.453125,-0.15625 0.453125,-0.453125 0,-0.59375 -0.546875,-1.015625 -1.28125,-1.015625 C 2.25,-7.03125 1.0625,-6.515625 1.0625,-5.4375 v 1.140625 H 0.265625 v 0.3125 H 1.0625 V -0.75 c 0,0.4375 -0.109375,0.4375 -0.78125,0.4375 V 0 C 0.609375,-0.015625 1.140625,-0.03125 1.390625,-0.03125 1.640625,-0.03125 2.125,-0.015625 2.5,0 v -0.3125 c -0.671875,0 -0.78125,0 -0.78125,-0.4375 v -3.234375 z m 0,0"
           id="id-06ab3ca8-e882-44ab-adbd-5db425bef503-1" />
      </g>
      <g
         id="id-77d99e11-9d07-43b3-8495-b0d04fdeafb3-0">
        <path
           d="m 3.78125,-0.546875 v 0.65625 L 5.25,0 v -0.3125 c -0.6875,0 -0.78125,-0.0625 -0.78125,-0.5625 V -6.921875 L 3.046875,-6.8125 V -6.5 c 0.6875,0 0.765625,0.0625 0.765625,0.5625 v 2.15625 c -0.28125,-0.359375 -0.71875,-0.625 -1.25,-0.625 -1.171875,0 -2.21875,0.984375 -2.21875,2.265625 0,1.265625 0.96875,2.25 2.109375,2.25 0.640625,0 1.078125,-0.34375 1.328125,-0.65625 z m 0,-2.671875 v 2.046875 c 0,0.171875 0,0.1875 -0.109375,0.359375 C 3.375,-0.328125 2.9375,-0.109375 2.5,-0.109375 2.046875,-0.109375 1.6875,-0.375 1.453125,-0.75 1.203125,-1.15625 1.171875,-1.71875 1.171875,-2.140625 1.171875,-2.5 1.1875,-3.09375 1.46875,-3.546875 1.6875,-3.859375 2.0625,-4.1875 2.609375,-4.1875 c 0.34375,0 0.765625,0.15625 1.0625,0.59375 0.109375,0.171875 0.109375,0.1875 0.109375,0.375 z m 0,0"
           id="id-95aa5151-fb64-4b6c-8a69-d68f411af546-3" />
      </g>
    </g>
    <g
       id="id-643c4890-6acb-4944-b192-328d932cd35b-1">
      <g
         id="id-a66e2dfa-7ccc-4faa-9bd5-b1da87d0afdc-5" />
      <g
         id="id-013b419d-b909-44a1-a5b3-cbb40f69e802-5">
        <path
           d="m 4.578125,-3.1875 c 0,-0.796875 -0.046875,-1.59375 -0.390625,-2.328125 -0.453125,-0.96875 -1.28125,-1.125 -1.6875,-1.125 -0.609375,0 -1.328125,0.265625 -1.75,1.1875 -0.3125,0.6875 -0.359375,1.46875 -0.359375,2.265625 0,0.75 0.03125,1.640625 0.453125,2.40625 0.421875,0.796875 1.15625,1 1.640625,1 0.53125,0 1.296875,-0.203125 1.734375,-1.15625 0.3125,-0.6875 0.359375,-1.46875 0.359375,-2.25 z M 2.484375,0 C 2.09375,0 1.5,-0.25 1.328125,-1.203125 1.21875,-1.796875 1.21875,-2.71875 1.21875,-3.3125 c 0,-0.640625 0,-1.296875 0.078125,-1.828125 0.1875,-1.1875 0.9375,-1.28125 1.1875,-1.28125 0.328125,0 0.984375,0.1875 1.171875,1.171875 0.109375,0.5625 0.109375,1.3125 0.109375,1.9375 0,0.75 0,1.421875 -0.109375,2.0625 C 3.5,-0.296875 2.9375,0 2.484375,0 Z m 0,0"
           id="id-ab1ea4ce-069c-4cde-9b0c-09ee727a8900-5" />
      </g>
      <g
         id="id-06b52083-d2d9-49a0-afa0-cdcce18cc489-8">
        <path
           d="m 2.890625,-3.515625 c 0.8125,-0.265625 1.390625,-0.953125 1.390625,-1.75 0,-0.8125 -0.875,-1.375 -1.828125,-1.375 -1,0 -1.765625,0.59375 -1.765625,1.359375 0,0.328125 0.21875,0.515625 0.515625,0.515625 0.296875,0 0.5,-0.21875 0.5,-0.515625 0,-0.484375 -0.46875,-0.484375 -0.609375,-0.484375 0.296875,-0.5 0.953125,-0.625 1.3125,-0.625 0.421875,0 0.96875,0.21875 0.96875,1.109375 0,0.125 -0.03125,0.703125 -0.28125,1.140625 C 2.796875,-3.65625 2.453125,-3.625 2.203125,-3.625 2.125,-3.609375 1.890625,-3.59375 1.8125,-3.59375 c -0.078125,0.015625 -0.140625,0.03125 -0.140625,0.125 0,0.109375 0.0625,0.109375 0.234375,0.109375 h 0.4375 c 0.8125,0 1.1875,0.671875 1.1875,1.65625 0,1.359375 -0.6875,1.640625 -1.125,1.640625 -0.4375,0 -1.1875,-0.171875 -1.53125,-0.75 0.34375,0.046875 0.65625,-0.171875 0.65625,-0.546875 0,-0.359375 -0.265625,-0.5625 -0.546875,-0.5625 -0.25,0 -0.5625,0.140625 -0.5625,0.578125 0,0.90625 0.921875,1.5625 2.015625,1.5625 1.21875,0 2.125,-0.90625 2.125,-1.921875 0,-0.8125 -0.640625,-1.59375 -1.671875,-1.8125 z m 0,0"
           id="id-b24911dd-aef6-4c92-8c9b-564342c0c861-2" />
      </g>
      <g
         id="id-4d7a0be1-c177-43c5-8c6c-0cc8758594d9-9" />
      <g
         id="id-9136b596-f89d-4e5e-b881-bcf71f2435ef-8">
        <path
           d="m 1.90625,-0.53125 c 0,-0.28125 -0.234375,-0.53125 -0.515625,-0.53125 -0.296875,0 -0.53125,0.25 -0.53125,0.53125 C 0.859375,-0.234375 1.09375,0 1.390625,0 1.671875,0 1.90625,-0.234375 1.90625,-0.53125 Z m 0,0"
           id="id-73b01779-a416-43e7-af41-6d29d39af06b-2" />
      </g>
      <g
         id="id-520e2c01-8146-4b1e-b2e9-95da36392717-0">
        <path
           d="M 6.265625,-5.671875 C 6.75,-6.453125 7.171875,-6.484375 7.53125,-6.5 c 0.125,-0.015625 0.140625,-0.171875 0.140625,-0.1875 0,-0.078125 -0.0625,-0.125 -0.140625,-0.125 -0.25,0 -0.546875,0.03125 -0.8125,0.03125 -0.328125,0 -0.671875,-0.03125 -0.984375,-0.03125 -0.0625,0 -0.1875,0 -0.1875,0.1875 0,0.109375 0.078125,0.125 0.15625,0.125 0.265625,0.015625 0.453125,0.125 0.453125,0.328125 0,0.15625 -0.140625,0.375 -0.140625,0.375 l -3.0625,4.875 -0.6875,-5.28125 C 2.265625,-6.375 2.5,-6.5 2.953125,-6.5 c 0.140625,0 0.25,0 0.25,-0.203125 0,-0.078125 -0.078125,-0.109375 -0.125,-0.109375 -0.40625,0 -0.828125,0.03125 -1.25,0.03125 -0.171875,0 -0.359375,0 -0.546875,0 -0.171875,0 -0.359375,-0.03125 -0.53125,-0.03125 -0.078125,0 -0.1875,0 -0.1875,0.1875 0,0.125 0.078125,0.125 0.25,0.125 0.546875,0 0.5625,0.09375 0.59375,0.34375 L 2.1875,-0.015625 C 2.21875,0.1875 2.265625,0.21875 2.390625,0.21875 c 0.15625,0 0.203125,-0.046875 0.28125,-0.171875 z m 0,0"
           id="id-118056ee-b590-424f-aa29-75a3d2c439e8-7" />
      </g>
    </g>
  </defs>
  <g
     inkscape:label="Layer 1"
     inkscape:groupmode="layer"
     id="layer1"
     transform="translate(-82.717043,-100.95782)">
    <rect
       style="fill:url(#linearGradient62678);fill-opacity:1;stroke:none;stroke-width:0.199998;stroke-linecap:round;stroke-linejoin:round;stroke-dasharray:none"
       id="rect15511-6"
       width="47.934509"
       height="22.663189"
       x="84.218025"
       y="101.20782" />
    <rect
       style="fill:url(#linearGradient64482);fill-opacity:1;stroke:none;stroke-width:0.2;stroke-linecap:round;stroke-linejoin:round;stroke-dasharray:none"
       id="rect15511-9"
       width="39.398262"
       height="22.663189"
       x="132.1423"
       y="101.20782" />
    <path
       style="fill:none;stroke:#000000;stroke-width:0.5;stroke-linecap:butt;stroke-linejoin:miter;stroke-dasharray:none;stroke-opacity:1;marker-end:url(#TriangleStart)"
       d="M 84.432259,123.87101 H 172.38578"
       id="path11063" />
    <circle
       style="fill:#000000;stroke:#000000;stroke-width:0.499999;stroke-linecap:round;stroke-linejoin:round;stroke-dasharray:none"
       id="path11725"
       cx="84.432259"
       cy="123.87101"
       r="1.4652159" />
    <circle
       style="fill:#000000;stroke:#000000;stroke-width:0.5;stroke-linecap:round;stroke-linejoin:round;stroke-dasharray:none"
       id="path11725-1-7"
       cx="132.1423"
       cy="123.871"
       r="0.69044971" />
    <g
       transform="matrix(0.529167,0,0,0.529167,103.28589,110.16656)"
       ns2:version="1.8.2"
       ns2:texconverter="pdflatex"
       ns2:pdfconverter="inkscape"
       ns2:text="QSL"
       ns2:preamble="/Users/jeet/Library/Application Support/org.inkscape.Inkscape/config/inkscape/extensions/textext/default_packages.tex"
       ns2:scale="1.5"
       ns2:alignment="middle center"
       ns2:stroke-to-path="0"
       ns2:inkscapeversion="1.2.1"
       ns2:jacobian_sqrt="0.529167"
       id="g22434">
      <defs
         id="id-ac01cc1f-2f95-4442-95c4-11a2384c6293">
        <g
           id="id-e9d9f6bc-de8b-4ddf-8fe6-4560d201c673">
          <g
             id="id-ff450e70-325e-4c47-8927-eb9fc612b673" />
          <g
             id="id-57e1b84e-6a7c-4233-a7a1-fe2d0a12dedd">
            <path
               d="M 3.203125,-0.15625 C 2.671875,-0.359375 1.5625,-1.09375 1.5625,-3.375 c 0,-2.59375 1.390625,-3.40625 2.3125,-3.40625 0.953125,0 2.3125,0.859375 2.3125,3.40625 0,0.765625 -0.109375,2.171875 -1.171875,2.953125 -0.21875,-0.5625 -0.546875,-1.046875 -1.125,-1.046875 -0.515625,0 -0.8125,0.421875 -0.8125,0.828125 0,0.265625 0.125,0.46875 0.125,0.484375 z M 4.75,-0.265625 C 4.421875,-0.0625 4.09375,-0.03125 3.875,-0.03125 c -0.5,0 -0.578125,-0.453125 -0.578125,-0.609375 0,-0.28125 0.203125,-0.609375 0.59375,-0.609375 0.53125,0 0.75,0.40625 0.859375,0.984375 z M 5.15625,-0.0625 C 6.34375,-0.59375 7.1875,-1.875 7.1875,-3.375 c 0,-2.03125 -1.5,-3.65625 -3.3125,-3.65625 -1.796875,0 -3.3125,1.59375 -3.3125,3.65625 0,2.015625 1.5,3.59375 3.3125,3.59375 0.3125,0 0.65625,-0.0625 0.953125,-0.15625 0.140625,0.953125 0.28125,1.875 1.21875,1.875 C 7.0625,1.9375 7.25,0.609375 7.25,0.09375 7.25,0 7.25,-0.109375 7.140625,-0.109375 7.046875,-0.109375 7.03125,-0.03125 7.03125,0.0625 6.96875,0.609375 6.546875,0.90625 6.125,0.90625 5.65625,0.90625 5.40625,0.5625 5.15625,-0.0625 Z m 0,0"
               id="id-63d5d244-e13a-4db4-ab1e-a5d430653b27" />
          </g>
          <g
             id="id-41d6193d-5d14-428f-8d97-8845b2fa3f84">
            <path
               d="m 3.484375,-3.875 -1.28125,-0.296875 c -0.625,-0.15625 -1,-0.6875 -1,-1.265625 0,-0.703125 0.53125,-1.3125 1.3125,-1.3125 1.65625,0 1.875,1.640625 1.9375,2.078125 0.015625,0.0625 0.015625,0.125 0.125,0.125 0.125,0 0.125,-0.046875 0.125,-0.234375 v -2 c 0,-0.171875 0,-0.25 -0.109375,-0.25 -0.0625,0 -0.078125,0.015625 -0.140625,0.140625 l -0.359375,0.5625 C 3.796875,-6.625 3.390625,-7.03125 2.5,-7.03125 c -1.109375,0 -1.9375,0.875 -1.9375,1.9375 0,0.828125 0.53125,1.5625 1.296875,1.828125 0.109375,0.03125 0.625,0.15625 1.328125,0.328125 0.265625,0.0625 0.5625,0.140625 0.84375,0.5 0.203125,0.265625 0.3125,0.59375 0.3125,0.921875 0,0.703125 -0.5,1.421875 -1.34375,1.421875 -0.28125,0 -1.046875,-0.046875 -1.578125,-0.53125 C 0.84375,-1.171875 0.8125,-1.796875 0.8125,-2.15625 0.796875,-2.265625 0.71875,-2.265625 0.6875,-2.265625 c -0.125,0 -0.125,0.078125 -0.125,0.25 v 2 c 0,0.171875 0,0.234375 0.109375,0.234375 0.0625,0 0.078125,-0.015625 0.140625,-0.125 0,-0.015625 0.03125,-0.046875 0.359375,-0.578125 0.3125,0.34375 0.953125,0.703125 1.84375,0.703125 1.15625,0 1.953125,-0.96875 1.953125,-2.078125 0,-0.984375 -0.65625,-1.8125 -1.484375,-2.015625 z m 0,0"
               id="id-8a06431a-81b2-4362-ad03-9e439bce9810" />
          </g>
          <g
             id="id-58fcc12f-30ac-46e0-8502-1a5541505343">
            <path
               d="m 5.796875,-2.578125 h -0.25 c -0.109375,1.015625 -0.25,2.265625 -2,2.265625 h -0.8125 C 2.265625,-0.3125 2.25,-0.375 2.25,-0.703125 v -5.3125 C 2.25,-6.359375 2.25,-6.5 3.1875,-6.5 H 3.515625 V -6.8125 C 3.15625,-6.78125 2.25,-6.78125 1.84375,-6.78125 c -0.390625,0 -1.171875,0 -1.515625,-0.03125 V -6.5 H 0.5625 c 0.765625,0 0.796875,0.109375 0.796875,0.46875 v 5.25 c 0,0.359375 -0.03125,0.46875 -0.796875,0.46875 H 0.328125 V 0 h 5.1875 z m 0,0"
               id="id-5975db86-b032-4b4a-9012-a4ec40e376f5" />
          </g>
        </g>
      </defs>
      <g
         fill="#000000"
         fill-opacity="1"
         id="id-41a4026f-1281-4363-9ad4-ff069a5f5937"
         transform="translate(-149.275,-127.734)">
        <g
           transform="translate(148.712,134.765)"
           id="g840">
          <path
             d="M 3.203125,-0.15625 C 2.671875,-0.359375 1.5625,-1.09375 1.5625,-3.375 c 0,-2.59375 1.390625,-3.40625 2.3125,-3.40625 0.953125,0 2.3125,0.859375 2.3125,3.40625 0,0.765625 -0.109375,2.171875 -1.171875,2.953125 -0.21875,-0.5625 -0.546875,-1.046875 -1.125,-1.046875 -0.515625,0 -0.8125,0.421875 -0.8125,0.828125 0,0.265625 0.125,0.46875 0.125,0.484375 z M 4.75,-0.265625 C 4.421875,-0.0625 4.09375,-0.03125 3.875,-0.03125 c -0.5,0 -0.578125,-0.453125 -0.578125,-0.609375 0,-0.28125 0.203125,-0.609375 0.59375,-0.609375 0.53125,0 0.75,0.40625 0.859375,0.984375 z M 5.15625,-0.0625 C 6.34375,-0.59375 7.1875,-1.875 7.1875,-3.375 c 0,-2.03125 -1.5,-3.65625 -3.3125,-3.65625 -1.796875,0 -3.3125,1.59375 -3.3125,3.65625 0,2.015625 1.5,3.59375 3.3125,3.59375 0.3125,0 0.65625,-0.0625 0.953125,-0.15625 0.140625,0.953125 0.28125,1.875 1.21875,1.875 C 7.0625,1.9375 7.25,0.609375 7.25,0.09375 7.25,0 7.25,-0.109375 7.140625,-0.109375 7.046875,-0.109375 7.03125,-0.03125 7.03125,0.0625 6.96875,0.609375 6.546875,0.90625 6.125,0.90625 5.65625,0.90625 5.40625,0.5625 5.15625,-0.0625 Z m 0,0"
             id="id-596f8559-83ea-4938-844c-24aa90b4b15e" />
        </g>
        <g
           transform="translate(156.461,134.765)"
           id="g843">
          <path
             d="m 3.484375,-3.875 -1.28125,-0.296875 c -0.625,-0.15625 -1,-0.6875 -1,-1.265625 0,-0.703125 0.53125,-1.3125 1.3125,-1.3125 1.65625,0 1.875,1.640625 1.9375,2.078125 0.015625,0.0625 0.015625,0.125 0.125,0.125 0.125,0 0.125,-0.046875 0.125,-0.234375 v -2 c 0,-0.171875 0,-0.25 -0.109375,-0.25 -0.0625,0 -0.078125,0.015625 -0.140625,0.140625 l -0.359375,0.5625 C 3.796875,-6.625 3.390625,-7.03125 2.5,-7.03125 c -1.109375,0 -1.9375,0.875 -1.9375,1.9375 0,0.828125 0.53125,1.5625 1.296875,1.828125 0.109375,0.03125 0.625,0.15625 1.328125,0.328125 0.265625,0.0625 0.5625,0.140625 0.84375,0.5 0.203125,0.265625 0.3125,0.59375 0.3125,0.921875 0,0.703125 -0.5,1.421875 -1.34375,1.421875 -0.28125,0 -1.046875,-0.046875 -1.578125,-0.53125 C 0.84375,-1.171875 0.8125,-1.796875 0.8125,-2.15625 0.796875,-2.265625 0.71875,-2.265625 0.6875,-2.265625 c -0.125,0 -0.125,0.078125 -0.125,0.25 v 2 c 0,0.171875 0,0.234375 0.109375,0.234375 0.0625,0 0.078125,-0.015625 0.140625,-0.125 0,-0.015625 0.03125,-0.046875 0.359375,-0.578125 0.3125,0.34375 0.953125,0.703125 1.84375,0.703125 1.15625,0 1.953125,-0.96875 1.953125,-2.078125 0,-0.984375 -0.65625,-1.8125 -1.484375,-2.015625 z m 0,0"
             id="id-3e7209f1-5823-45fc-b51f-f956fd5e6e29" />
        </g>
        <g
           transform="translate(161.996,134.765)"
           id="g846">
          <path
             d="m 5.796875,-2.578125 h -0.25 c -0.109375,1.015625 -0.25,2.265625 -2,2.265625 h -0.8125 C 2.265625,-0.3125 2.25,-0.375 2.25,-0.703125 v -5.3125 C 2.25,-6.359375 2.25,-6.5 3.1875,-6.5 H 3.515625 V -6.8125 C 3.15625,-6.78125 2.25,-6.78125 1.84375,-6.78125 c -0.390625,0 -1.171875,0 -1.515625,-0.03125 V -6.5 H 0.5625 c 0.765625,0 0.796875,0.109375 0.796875,0.46875 v 5.25 c 0,0.359375 -0.03125,0.46875 -0.796875,0.46875 H 0.328125 V 0 h 5.1875 z m 0,0"
             id="id-af1d0255-7d2f-4b96-a322-c10d3c255157" />
        </g>
      </g>
    </g>
    <text
       xml:space="preserve"
       style="font-style:normal;font-weight:normal;font-size:10.5833px;line-height:1.25;font-family:sans-serif;fill:#000000;fill-opacity:1;stroke:none;stroke-width:0.264583"
       x="111.92467"
       y="128.44751"
       id="text986"><tspan
         sodipodi:role="line"
         id="tspan984"
         style="stroke-width:0.264583"
         x="111.92467"
         y="128.44751" /></text>
    <g
       transform="matrix(0.529167,0,0,0.529167,146.66641,110.812)"
       ns2:version="1.8.2"
       ns2:texconverter="pdflatex"
       ns2:pdfconverter="inkscape"
       ns2:text="TFP"
       ns2:preamble="/Users/jeet/Library/Application Support/org.inkscape.Inkscape/config/inkscape/extensions/textext/default_packages.tex"
       ns2:scale="1.5"
       ns2:alignment="middle center"
       ns2:stroke-to-path="0"
       ns2:inkscapeversion="1.2.1"
       ns2:jacobian_sqrt="0.529167"
       id="g22610">
      <defs
         id="id-78184d99-e981-42fc-9521-e75cf5bd8ca5">
        <g
           id="id-280e4e38-f2ea-43c0-8858-c3bfdb8f867b">
          <g
             id="id-e4243c4b-64bf-4eb3-9b23-9512bf1024bd" />
          <g
             id="id-dcad5cc2-d05e-4497-889f-a3ac84a989a9">
            <path
               d="m 6.640625,-6.75 h -6.09375 l -0.1875,2.25 h 0.25 C 0.75,-6.109375 0.890625,-6.4375 2.40625,-6.4375 c 0.171875,0 0.4375,0 0.53125,0.015625 0.21875,0.046875 0.21875,0.15625 0.21875,0.375 v 5.265625 c 0,0.328125 0,0.46875 -1.046875,0.46875 H 1.703125 V 0 C 2.109375,-0.03125 3.125,-0.03125 3.59375,-0.03125 c 0.453125,0 1.484375,0 1.890625,0.03125 v -0.3125 h -0.40625 c -1.046875,0 -1.046875,-0.140625 -1.046875,-0.46875 v -5.265625 c 0,-0.1875 0,-0.328125 0.1875,-0.375 0.109375,-0.015625 0.375,-0.015625 0.5625,-0.015625 1.515625,0 1.65625,0.328125 1.796875,1.9375 h 0.25 z m 0,0"
               id="id-368c29c0-4a28-4c93-8556-007af6ce2657" />
          </g>
          <g
             id="id-3a0adecc-16c5-4d53-9e0a-78c1e6e2d7bb">
            <path
               d="m 5.796875,-6.78125 h -5.46875 v 0.3125 H 0.5625 c 0.765625,0 0.796875,0.109375 0.796875,0.46875 v 5.21875 c 0,0.359375 -0.03125,0.46875 -0.796875,0.46875 H 0.328125 V 0 c 0.34375,-0.03125 1.125,-0.03125 1.515625,-0.03125 0.40625,0 1.3125,0 1.671875,0.03125 V -0.3125 H 3.1875 C 2.25,-0.3125 2.25,-0.4375 2.25,-0.78125 v -2.453125 h 0.84375 c 0.96875,0 1.0625,0.3125 1.0625,1.15625 h 0.25 V -4.71875 h -0.25 c 0,0.84375 -0.09375,1.171875 -1.0625,1.171875 H 2.25 v -2.53125 c 0,-0.328125 0.015625,-0.390625 0.484375,-0.390625 h 1.1875 c 1.5,0 1.75,0.5625 1.90625,1.9375 h 0.25 z m 0,0"
               id="id-c83ee6ce-05c5-4f4e-a1e7-63986b810e72" />
          </g>
          <g
             id="id-f4d7cd7f-87e3-4f8d-b735-a9db1cce8aba">
            <path
               d="m 2.265625,-3.15625 h 1.6875 c 1.1875,0 2.265625,-0.796875 2.265625,-1.796875 C 6.21875,-5.9375 5.234375,-6.8125 3.875,-6.8125 H 0.34375 V -6.5 h 0.25 c 0.765625,0 0.78125,0.109375 0.78125,0.46875 v 5.25 c 0,0.359375 -0.015625,0.46875 -0.78125,0.46875 h -0.25 V 0 c 0.359375,-0.03125 1.09375,-0.03125 1.46875,-0.03125 0.375,0 1.125,0 1.484375,0.03125 v -0.3125 h -0.25 c -0.765625,0 -0.78125,-0.109375 -0.78125,-0.46875 z m -0.03125,-0.25 v -2.6875 C 2.234375,-6.4375 2.25,-6.5 2.71875,-6.5 h 0.890625 c 1.578125,0 1.578125,1.0625 1.578125,1.546875 0,0.46875 0,1.546875 -1.578125,1.546875 z m 0,0"
               id="id-236ea12a-5167-4229-b1fd-782e07a6b938" />
          </g>
        </g>
      </defs>
      <g
         fill="#000000"
         fill-opacity="1"
         id="id-0278d2f1-188a-4045-8eca-fd4d9ca28169"
         transform="translate(-149.071,-127.953)">
        <g
           transform="translate(148.712,134.765)"
           id="g3506">
          <path
             d="m 6.640625,-6.75 h -6.09375 l -0.1875,2.25 h 0.25 C 0.75,-6.109375 0.890625,-6.4375 2.40625,-6.4375 c 0.171875,0 0.4375,0 0.53125,0.015625 0.21875,0.046875 0.21875,0.15625 0.21875,0.375 v 5.265625 c 0,0.328125 0,0.46875 -1.046875,0.46875 H 1.703125 V 0 C 2.109375,-0.03125 3.125,-0.03125 3.59375,-0.03125 c 0.453125,0 1.484375,0 1.890625,0.03125 v -0.3125 h -0.40625 c -1.046875,0 -1.046875,-0.140625 -1.046875,-0.46875 v -5.265625 c 0,-0.1875 0,-0.328125 0.1875,-0.375 0.109375,-0.015625 0.375,-0.015625 0.5625,-0.015625 1.515625,0 1.65625,0.328125 1.796875,1.9375 h 0.25 z m 0,0"
             id="id-018390cf-2db6-46d9-bef9-cd9ccc709f5b" />
        </g>
        <g
           transform="translate(155.907,134.765)"
           id="g3509">
          <path
             d="m 5.796875,-6.78125 h -5.46875 v 0.3125 H 0.5625 c 0.765625,0 0.796875,0.109375 0.796875,0.46875 v 5.21875 c 0,0.359375 -0.03125,0.46875 -0.796875,0.46875 H 0.328125 V 0 c 0.34375,-0.03125 1.125,-0.03125 1.515625,-0.03125 0.40625,0 1.3125,0 1.671875,0.03125 V -0.3125 H 3.1875 C 2.25,-0.3125 2.25,-0.4375 2.25,-0.78125 v -2.453125 h 0.84375 c 0.96875,0 1.0625,0.3125 1.0625,1.15625 h 0.25 V -4.71875 h -0.25 c 0,0.84375 -0.09375,1.171875 -1.0625,1.171875 H 2.25 v -2.53125 c 0,-0.328125 0.015625,-0.390625 0.484375,-0.390625 h 1.1875 c 1.5,0 1.75,0.5625 1.90625,1.9375 h 0.25 z m 0,0"
             id="id-f34740aa-87b8-4519-8e9f-72a875b17bac" />
        </g>
        <g
           transform="translate(162.411,134.765)"
           id="g3512">
          <path
             d="m 2.265625,-3.15625 h 1.6875 c 1.1875,0 2.265625,-0.796875 2.265625,-1.796875 C 6.21875,-5.9375 5.234375,-6.8125 3.875,-6.8125 H 0.34375 V -6.5 h 0.25 c 0.765625,0 0.78125,0.109375 0.78125,0.46875 v 5.25 c 0,0.359375 -0.015625,0.46875 -0.78125,0.46875 h -0.25 V 0 c 0.359375,-0.03125 1.09375,-0.03125 1.46875,-0.03125 0.375,0 1.125,0 1.484375,0.03125 v -0.3125 h -0.25 c -0.765625,0 -0.78125,-0.109375 -0.78125,-0.46875 z m -0.03125,-0.25 v -2.6875 C 2.234375,-6.4375 2.25,-6.5 2.71875,-6.5 h 0.890625 c 1.578125,0 1.578125,1.0625 1.578125,1.546875 0,0.46875 0,1.546875 -1.578125,1.546875 z m 0,0"
             id="id-698d9bf8-aba9-43a0-acc9-ead7a9ddf953" />
        </g>
      </g>
    </g>
    <g
       transform="matrix(0.352778,0,0,0.352778,130.82909,119.03576)"
       ns2:version="1.8.2"
       ns2:texconverter="pdflatex"
       ns2:pdfconverter="inkscape"
       ns2:text="$\\Omega_H$"
       ns2:preamble="/Users/jeet/Library/Application Support/org.inkscape.Inkscape/config/inkscape/extensions/textext/default_packages.tex"
       ns2:scale="1.0"
       ns2:alignment="middle center"
       ns2:stroke-to-path="0"
       ns2:inkscapeversion="1.2.1"
       ns2:jacobian_sqrt="0.352778"
       id="g5168">
      <defs
         id="id-de023295-db9d-47b4-a1ec-57cab711c5c4">
        <g
           id="id-7e035920-214a-4637-8f7e-8a05047a7cca">
          <g
             id="id-89c88c25-8dc3-4a84-b2d4-5452d7d100d8" />
          <g
             id="id-d0dd3354-db14-4a42-82ad-03f2d5d3fb7a">
            <path
               d="M 6.75,-1.609375 H 6.5 c -0.046875,0.25 -0.09375,0.484375 -0.1875,0.71875 -0.046875,0.15625 -0.078125,0.25 -0.65625,0.25 H 4.859375 C 5,-1.203125 5.296875,-1.6875 5.75,-2.34375 c 0.46875,-0.703125 0.875,-1.390625 0.875,-2.1875 0,-1.375 -1.34375,-2.5 -3.03125,-2.5 -1.703125,0 -3.03125,1.140625 -3.03125,2.5 0,0.796875 0.40625,1.484375 0.875,2.1875 0.4375,0.65625 0.75,1.140625 0.890625,1.703125 H 1.53125 C 0.953125,-0.640625 0.921875,-0.734375 0.875,-0.875 0.78125,-1.109375 0.734375,-1.359375 0.6875,-1.609375 h -0.25 L 0.765625,0 h 1.59375 c 0.21875,0 0.25,0 0.25,-0.203125 0,-0.703125 -0.3125,-1.578125 -0.53125,-2.21875 -0.21875,-0.578125 -0.5,-1.359375 -0.5,-2.109375 0,-1.59375 1.109375,-2.28125 2.015625,-2.28125 0.953125,0 2.015625,0.71875 2.015625,2.28125 0,0.75 -0.28125,1.5 -0.5625,2.3125 -0.15625,0.421875 -0.46875,1.328125 -0.46875,2.015625 C 4.578125,0 4.609375,0 4.828125,0 h 1.59375 z m 0,0"
               id="id-37e54d26-1f05-4296-8e32-0f833715d5af" />
          </g>
          <g
             id="id-39f488ec-69a0-46d5-afd2-99000788f541" />
          <g
             id="id-2dfe35d8-955a-41f3-a048-9991a78acf81">
            <path
               d="m 5.859375,-4.1875 c 0.0625,-0.265625 0.078125,-0.328125 0.59375,-0.328125 0.15625,0 0.234375,0 0.234375,-0.140625 0,-0.03125 -0.015625,-0.109375 -0.109375,-0.109375 -0.203125,0 -0.703125,0.03125 -0.90625,0.03125 -0.125,0 -0.375,0 -0.484375,0 C 5.046875,-4.75 4.875,-4.765625 4.75,-4.765625 c -0.046875,0 -0.15625,0 -0.15625,0.15625 0,0.09375 0.09375,0.09375 0.234375,0.09375 0,0 0.140625,0 0.265625,0.015625 0.140625,0.015625 0.15625,0.03125 0.15625,0.109375 0,0 0,0.046875 -0.03125,0.140625 L 4.8125,-2.59375 H 2.46875 l 0.40625,-1.625 c 0.0625,-0.234375 0.078125,-0.296875 0.609375,-0.296875 0.125,0 0.21875,0 0.21875,-0.140625 0,-0.03125 -0.03125,-0.109375 -0.109375,-0.109375 -0.203125,0 -0.71875,0.03125 -0.921875,0.03125 -0.109375,0 -0.359375,0 -0.484375,0 C 2.0625,-4.75 1.890625,-4.765625 1.75,-4.765625 c -0.03125,0 -0.140625,0 -0.140625,0.15625 0,0.09375 0.078125,0.09375 0.21875,0.09375 0.015625,0 0.140625,0 0.265625,0.015625 0.15625,0.015625 0.171875,0.03125 0.171875,0.109375 0,0 0,0.046875 -0.03125,0.140625 l -0.9375,3.703125 C 1.25,-0.3125 1.234375,-0.25 0.6875,-0.25 c -0.109375,0 -0.203125,0 -0.203125,0.140625 C 0.484375,-0.03125 0.53125,0 0.59375,0 0.796875,0 1.296875,-0.03125 1.5,-0.03125 c 0.109375,0 0.359375,0 0.484375,0.015625 C 2.125,-0.015625 2.296875,0 2.421875,0 2.453125,0 2.578125,0 2.578125,-0.140625 2.578125,-0.25 2.5,-0.25 2.34375,-0.25 c -0.109375,0 -0.140625,0 -0.265625,-0.015625 -0.15625,-0.015625 -0.15625,-0.03125 -0.15625,-0.109375 0,0 0,-0.046875 0.03125,-0.140625 L 2.40625,-2.34375 H 4.75 L 4.296875,-0.546875 C 4.234375,-0.3125 4.21875,-0.25 3.671875,-0.25 3.5625,-0.25 3.46875,-0.25 3.46875,-0.109375 3.46875,-0.03125 3.515625,0 3.578125,0 3.78125,0 4.28125,-0.03125 4.484375,-0.03125 c 0.125,0 0.359375,0 0.484375,0.015625 C 5.109375,-0.015625 5.28125,0 5.421875,0 5.453125,0 5.5625,0 5.5625,-0.140625 5.5625,-0.25 5.484375,-0.25 5.328125,-0.25 5.21875,-0.25 5.1875,-0.25 5.0625,-0.265625 4.90625,-0.28125 4.90625,-0.296875 4.90625,-0.375 c 0,-0.03125 0.03125,-0.109375 0.03125,-0.140625 z m 0,0"
               id="id-a6a1efd7-3f5e-46ed-99d9-2cde3c6559c1" />
          </g>
        </g>
      </defs>
      <g
         fill="#000000"
         fill-opacity="1"
         id="id-fa3b0c60-ed48-44c8-82cf-77760a3a2d5c"
         transform="translate(-149.15,-127.734)">
        <g
           transform="translate(148.712,134.765)"
           id="g5161">
          <path
             d="M 6.75,-1.609375 H 6.5 c -0.046875,0.25 -0.09375,0.484375 -0.1875,0.71875 -0.046875,0.15625 -0.078125,0.25 -0.65625,0.25 H 4.859375 C 5,-1.203125 5.296875,-1.6875 5.75,-2.34375 c 0.46875,-0.703125 0.875,-1.390625 0.875,-2.1875 0,-1.375 -1.34375,-2.5 -3.03125,-2.5 -1.703125,0 -3.03125,1.140625 -3.03125,2.5 0,0.796875 0.40625,1.484375 0.875,2.1875 0.4375,0.65625 0.75,1.140625 0.890625,1.703125 H 1.53125 C 0.953125,-0.640625 0.921875,-0.734375 0.875,-0.875 0.78125,-1.109375 0.734375,-1.359375 0.6875,-1.609375 h -0.25 L 0.765625,0 h 1.59375 c 0.21875,0 0.25,0 0.25,-0.203125 0,-0.703125 -0.3125,-1.578125 -0.53125,-2.21875 -0.21875,-0.578125 -0.5,-1.359375 -0.5,-2.109375 0,-1.59375 1.109375,-2.28125 2.015625,-2.28125 0.953125,0 2.015625,0.71875 2.015625,2.28125 0,0.75 -0.28125,1.5 -0.5625,2.3125 -0.15625,0.421875 -0.46875,1.328125 -0.46875,2.015625 C 4.578125,0 4.609375,0 4.828125,0 h 1.59375 z m 0,0"
             id="id-4698baf5-040c-479f-8c8f-99f8e43b9011" />
        </g>
      </g>
      <g
         fill="#000000"
         fill-opacity="1"
         id="id-6da0d2e4-6b0b-4361-8228-725c966b5753"
         transform="translate(-149.15,-127.734)">
        <g
           transform="translate(155.908,136.259)"
           id="g5165">
          <path
             d="m 5.859375,-4.1875 c 0.0625,-0.265625 0.078125,-0.328125 0.59375,-0.328125 0.15625,0 0.234375,0 0.234375,-0.140625 0,-0.03125 -0.015625,-0.109375 -0.109375,-0.109375 -0.203125,0 -0.703125,0.03125 -0.90625,0.03125 -0.125,0 -0.375,0 -0.484375,0 C 5.046875,-4.75 4.875,-4.765625 4.75,-4.765625 c -0.046875,0 -0.15625,0 -0.15625,0.15625 0,0.09375 0.09375,0.09375 0.234375,0.09375 0,0 0.140625,0 0.265625,0.015625 0.140625,0.015625 0.15625,0.03125 0.15625,0.109375 0,0 0,0.046875 -0.03125,0.140625 L 4.8125,-2.59375 H 2.46875 l 0.40625,-1.625 c 0.0625,-0.234375 0.078125,-0.296875 0.609375,-0.296875 0.125,0 0.21875,0 0.21875,-0.140625 0,-0.03125 -0.03125,-0.109375 -0.109375,-0.109375 -0.203125,0 -0.71875,0.03125 -0.921875,0.03125 -0.109375,0 -0.359375,0 -0.484375,0 C 2.0625,-4.75 1.890625,-4.765625 1.75,-4.765625 c -0.03125,0 -0.140625,0 -0.140625,0.15625 0,0.09375 0.078125,0.09375 0.21875,0.09375 0.015625,0 0.140625,0 0.265625,0.015625 0.15625,0.015625 0.171875,0.03125 0.171875,0.109375 0,0 0,0.046875 -0.03125,0.140625 l -0.9375,3.703125 C 1.25,-0.3125 1.234375,-0.25 0.6875,-0.25 c -0.109375,0 -0.203125,0 -0.203125,0.140625 C 0.484375,-0.03125 0.53125,0 0.59375,0 0.796875,0 1.296875,-0.03125 1.5,-0.03125 c 0.109375,0 0.359375,0 0.484375,0.015625 C 2.125,-0.015625 2.296875,0 2.421875,0 2.453125,0 2.578125,0 2.578125,-0.140625 2.578125,-0.25 2.5,-0.25 2.34375,-0.25 c -0.109375,0 -0.140625,0 -0.265625,-0.015625 -0.15625,-0.015625 -0.15625,-0.03125 -0.15625,-0.109375 0,0 0,-0.046875 0.03125,-0.140625 L 2.40625,-2.34375 H 4.75 L 4.296875,-0.546875 C 4.234375,-0.3125 4.21875,-0.25 3.671875,-0.25 3.5625,-0.25 3.46875,-0.25 3.46875,-0.109375 3.46875,-0.03125 3.515625,0 3.578125,0 3.78125,0 4.28125,-0.03125 4.484375,-0.03125 c 0.125,0 0.359375,0 0.484375,0.015625 C 5.109375,-0.015625 5.28125,0 5.421875,0 5.453125,0 5.5625,0 5.5625,-0.140625 5.5625,-0.25 5.484375,-0.25 5.328125,-0.25 5.21875,-0.25 5.1875,-0.25 5.0625,-0.265625 4.90625,-0.28125 4.90625,-0.296875 4.90625,-0.375 c 0,-0.03125 0.03125,-0.109375 0.03125,-0.140625 z m 0,0"
             id="id-4845cd19-d286-4ad6-b867-8cf8c420342b" />
        </g>
      </g>
    </g>
    <path
       style="fill:none;stroke:#000000;stroke-width:0.5;stroke-linecap:butt;stroke-linejoin:miter;stroke-dasharray:none;stroke-opacity:1"
       d="M 84.432259,123.87101 V 101.20782 H 171.54056 V 123.871"
       id="path5345" />
    <g
       transform="matrix(0.657141,0,0,0.657141,175.96051,121.66)"
       ns2:version="1.8.2"
       ns2:texconverter="pdflatex"
       ns2:pdfconverter="inkscape"
       ns2:text="$\\Omega$"
       ns2:preamble="/Users/jeet/Library/Application Support/org.inkscape.Inkscape/config/inkscape/extensions/textext/default_packages.tex"
       ns2:scale="1.8627603762139362"
       ns2:alignment="middle center"
       ns2:stroke-to-path="0"
       ns2:inkscapeversion="1.2.1"
       ns2:jacobian_sqrt="0.657141"
       style="stroke-width:0"
       id="g11750">
      <defs
         id="id-abf35595-43f5-4206-bcbe-13c63b8daa9e"
         style="stroke-width:0">
        <g
           id="id-ad22b906-c31e-4069-8ccd-df98034d32a1"
           style="stroke-width:0">
          <g
             id="id-7238abdb-037c-4b04-9118-389d4ec9392b"
             style="stroke-width:0" />
          <g
             id="id-8e1c77a3-f83f-4c72-be86-62019beba53b"
             style="stroke-width:0">
            <path
               d="M 6.75,-1.609375 H 6.5 c -0.046875,0.25 -0.09375,0.484375 -0.1875,0.71875 -0.046875,0.15625 -0.078125,0.25 -0.65625,0.25 H 4.859375 C 5,-1.203125 5.296875,-1.6875 5.75,-2.34375 c 0.46875,-0.703125 0.875,-1.390625 0.875,-2.1875 0,-1.375 -1.34375,-2.5 -3.03125,-2.5 -1.703125,0 -3.03125,1.140625 -3.03125,2.5 0,0.796875 0.40625,1.484375 0.875,2.1875 0.4375,0.65625 0.75,1.140625 0.890625,1.703125 H 1.53125 C 0.953125,-0.640625 0.921875,-0.734375 0.875,-0.875 0.78125,-1.109375 0.734375,-1.359375 0.6875,-1.609375 h -0.25 L 0.765625,0 h 1.59375 c 0.21875,0 0.25,0 0.25,-0.203125 0,-0.703125 -0.3125,-1.578125 -0.53125,-2.21875 -0.21875,-0.578125 -0.5,-1.359375 -0.5,-2.109375 0,-1.59375 1.109375,-2.28125 2.015625,-2.28125 0.953125,0 2.015625,0.71875 2.015625,2.28125 0,0.75 -0.28125,1.5 -0.5625,2.3125 -0.15625,0.421875 -0.46875,1.328125 -0.46875,2.015625 C 4.578125,0 4.609375,0 4.828125,0 h 1.59375 z m 0,0"
               id="id-fa9dca6d-9ea1-439e-b703-bdf6fd4956aa"
               style="stroke-width:0" />
          </g>
        </g>
      </defs>
      <g
         fill="#000000"
         fill-opacity="1"
         id="id-18263fc9-4806-43bf-a8da-59f27a0527a9"
         transform="translate(-149.15,-127.734)"
         style="stroke-width:0">
        <g
           transform="translate(148.712,134.765)"
           style="stroke-width:0"
           id="g6287">
          <path
             d="M 6.75,-1.609375 H 6.5 c -0.046875,0.25 -0.09375,0.484375 -0.1875,0.71875 -0.046875,0.15625 -0.078125,0.25 -0.65625,0.25 H 4.859375 C 5,-1.203125 5.296875,-1.6875 5.75,-2.34375 c 0.46875,-0.703125 0.875,-1.390625 0.875,-2.1875 0,-1.375 -1.34375,-2.5 -3.03125,-2.5 -1.703125,0 -3.03125,1.140625 -3.03125,2.5 0,0.796875 0.40625,1.484375 0.875,2.1875 0.4375,0.65625 0.75,1.140625 0.890625,1.703125 H 1.53125 C 0.953125,-0.640625 0.921875,-0.734375 0.875,-0.875 0.78125,-1.109375 0.734375,-1.359375 0.6875,-1.609375 h -0.25 L 0.765625,0 h 1.59375 c 0.21875,0 0.25,0 0.25,-0.203125 0,-0.703125 -0.3125,-1.578125 -0.53125,-2.21875 -0.21875,-0.578125 -0.5,-1.359375 -0.5,-2.109375 0,-1.59375 1.109375,-2.28125 2.015625,-2.28125 0.953125,0 2.015625,0.71875 2.015625,2.28125 0,0.75 -0.28125,1.5 -0.5625,2.3125 -0.15625,0.421875 -0.46875,1.328125 -0.46875,2.015625 C 4.578125,0 4.609375,0 4.828125,0 h 1.59375 z m 0,0"
             id="id-1dbe350e-cc6a-4e80-8fd2-4e520a51a0b4"
             style="stroke-width:0" />
        </g>
      </g>
    </g>
    <g
       transform="matrix(0.352778,0,0,0.352778,99.826955,102.42808)"
       ns2:version="1.8.2"
       ns2:texconverter="pdflatex"
       ns2:pdfconverter="inkscape"
       ns2:text="Deconfined"
       ns2:preamble="/Users/jeet/Library/Application Support/org.inkscape.Inkscape/config/inkscape/extensions/textext/default_packages.tex"
       ns2:scale="1.0"
       ns2:alignment="middle center"
       ns2:stroke-to-path="0"
       ns2:inkscapeversion="1.2.1"
       ns2:jacobian_sqrt="0.352778"
       id="g7852-7">
      <defs
         id="id-af532901-f473-4c7c-a63a-f9d383c63a67">
        <g
           id="id-2e3d0dc8-b8a2-4d15-b64d-c669cc517650">
          <g
             id="id-54f67a58-e78e-46e9-ae30-cb22b434a637" />
          <g
             id="id-10ca3122-2fa9-4bbd-9da8-5f81e48ef5d8">
            <path
               d="M 0.34375,-6.8125 V -6.5 h 0.25 c 0.765625,0 0.78125,0.109375 0.78125,0.46875 v 5.25 c 0,0.359375 -0.015625,0.46875 -0.78125,0.46875 h -0.25 V 0 H 4 C 5.671875,0 7.046875,-1.46875 7.046875,-3.34375 7.046875,-5.25 5.703125,-6.8125 4,-6.8125 Z m 2.375,6.5 C 2.25,-0.3125 2.234375,-0.375 2.234375,-0.703125 V -6.09375 C 2.234375,-6.4375 2.25,-6.5 2.71875,-6.5 h 1 c 0.625,0 1.3125,0.21875 1.8125,0.921875 0.4375,0.59375 0.515625,1.453125 0.515625,2.234375 0,1.09375 -0.1875,1.703125 -0.546875,2.1875 -0.203125,0.265625 -0.765625,0.84375 -1.765625,0.84375 z m 0,0"
               id="id-022d6ca4-9bab-469e-a2d5-a68e43070b54" />
          </g>
          <g
             id="id-ebfdaa49-3491-435d-b483-c39792fbf41c">
            <path
               d="M 1.109375,-2.515625 C 1.171875,-4 2.015625,-4.25 2.359375,-4.25 c 1.015625,0 1.125,1.34375 1.125,1.734375 z m 0,0.21875 h 2.78125 c 0.21875,0 0.25,0 0.25,-0.21875 0,-0.984375 -0.546875,-1.953125 -1.78125,-1.953125 -1.15625,0 -2.078125,1.03125 -2.078125,2.28125 0,1.328125 1.046875,2.296875 2.1875,2.296875 C 3.6875,0.109375 4.140625,-1 4.140625,-1.1875 4.140625,-1.28125 4.0625,-1.3125 4,-1.3125 c -0.078125,0 -0.109375,0.0625 -0.125,0.140625 -0.34375,1.03125 -1.25,1.03125 -1.34375,1.03125 -0.5,0 -0.890625,-0.296875 -1.125,-0.671875 -0.296875,-0.46875 -0.296875,-1.125 -0.296875,-1.484375 z m 0,0"
               id="id-3dba23e5-bef9-4771-878b-69e4ac6cd8a3" />
          </g>
          <g
             id="id-d2f6e24f-a2fd-4713-9877-528f88498314">
            <path
               d="m 1.171875,-2.171875 c 0,-1.625 0.8125,-2.046875 1.34375,-2.046875 0.09375,0 0.71875,0.015625 1.0625,0.375 -0.40625,0.03125 -0.46875,0.328125 -0.46875,0.453125 0,0.265625 0.1875,0.453125 0.453125,0.453125 0.265625,0 0.46875,-0.15625 0.46875,-0.46875 0,-0.671875 -0.765625,-1.0625 -1.53125,-1.0625 -1.25,0 -2.15625,1.078125 -2.15625,2.3125 0,1.28125 0.984375,2.265625 2.140625,2.265625 1.328125,0 1.65625,-1.203125 1.65625,-1.296875 0,-0.09375 -0.109375,-0.09375 -0.140625,-0.09375 -0.078125,0 -0.109375,0.03125 -0.125,0.09375 -0.28125,0.921875 -0.9375,1.046875 -1.296875,1.046875 -0.53125,0 -1.40625,-0.421875 -1.40625,-2.03125 z m 0,0"
               id="id-4b29b121-4be1-4f39-b8fd-7f4a8414c109" />
          </g>
          <g
             id="id-d6dd02dc-a6d6-461f-92e2-df4bb65c33a8">
            <path
               d="M 4.6875,-2.140625 C 4.6875,-3.40625 3.703125,-4.46875 2.5,-4.46875 c -1.25,0 -2.21875,1.09375 -2.21875,2.328125 0,1.296875 1.03125,2.25 2.203125,2.25 1.203125,0 2.203125,-0.984375 2.203125,-2.25 z m -2.1875,2 c -0.4375,0 -0.875,-0.203125 -1.140625,-0.671875 -0.25,-0.4375 -0.25,-1.046875 -0.25,-1.40625 0,-0.390625 0,-0.921875 0.234375,-1.359375 C 1.609375,-4.03125 2.078125,-4.25 2.484375,-4.25 c 0.4375,0 0.859375,0.21875 1.125,0.65625 0.265625,0.421875 0.265625,1 0.265625,1.375 0,0.359375 0,0.90625 -0.21875,1.34375 C 3.421875,-0.421875 2.984375,-0.140625 2.5,-0.140625 Z m 0,0"
               id="id-6ad13959-45a5-47f2-bc05-a3703ed088e0" />
          </g>
          <g
             id="id-b234150b-447d-43be-bcbc-457ec16d8c51">
            <path
               d="M 1.09375,-3.421875 V -0.75 c 0,0.4375 -0.109375,0.4375 -0.78125,0.4375 V 0 c 0.359375,-0.015625 0.859375,-0.03125 1.140625,-0.03125 0.25,0 0.765625,0.015625 1.109375,0.03125 v -0.3125 c -0.671875,0 -0.78125,0 -0.78125,-0.4375 V -2.59375 C 1.78125,-3.625 2.5,-4.1875 3.125,-4.1875 c 0.640625,0 0.75,0.53125 0.75,1.109375 V -0.75 c 0,0.4375 -0.109375,0.4375 -0.78125,0.4375 V 0 c 0.34375,-0.015625 0.859375,-0.03125 1.125,-0.03125 0.25,0 0.78125,0.015625 1.109375,0.03125 v -0.3125 c -0.515625,0 -0.765625,0 -0.765625,-0.296875 v -1.90625 c 0,-0.859375 0,-1.15625 -0.3125,-1.515625 -0.140625,-0.171875 -0.46875,-0.375 -1.046875,-0.375 C 2.46875,-4.40625 2,-3.984375 1.71875,-3.359375 V -4.40625 L 0.3125,-4.296875 v 0.3125 c 0.703125,0 0.78125,0.0625 0.78125,0.5625 z m 0,0"
               id="id-ddc9698e-3250-4b34-ad22-25c83cfbf65c" />
          </g>
          <g
             id="id-4ffafaa2-d547-4b5b-a1a0-d0d2cff01438">
            <path
               d="m 3.296875,-3.984375 c 0.453125,0 0.515625,0.125 0.515625,0.53125 V -0.75 c 0,0.4375 -0.109375,0.4375 -0.765625,0.4375 V 0 c 0.328125,-0.015625 0.84375,-0.03125 1.09375,-0.03125 0.25,0 0.75,0.015625 1.109375,0.03125 v -0.3125 c -0.671875,0 -0.78125,0 -0.78125,-0.4375 v -3.671875 l -1.25,0.09375 C 3.0625,-4.3125 3.046875,-4.3125 3.046875,-4.3125 3.015625,-4.296875 3,-4.296875 2.859375,-4.296875 H 1.6875 v -1.125 c 0,-0.984375 0.859375,-1.390625 1.46875,-1.390625 0.296875,0 0.65625,0.109375 0.859375,0.328125 -0.40625,0.03125 -0.46875,0.296875 -0.46875,0.46875 C 3.546875,-5.6875 3.8125,-5.5625 4,-5.5625 c 0.234375,0 0.453125,-0.15625 0.453125,-0.453125 0,-0.59375 -0.546875,-1.015625 -1.28125,-1.015625 C 2.25,-7.03125 1.0625,-6.515625 1.0625,-5.4375 v 1.140625 H 0.265625 v 0.3125 H 1.0625 V -0.75 c 0,0.4375 -0.109375,0.4375 -0.78125,0.4375 V 0 C 0.609375,-0.015625 1.140625,-0.03125 1.390625,-0.03125 1.640625,-0.03125 2.125,-0.015625 2.5,0 v -0.3125 c -0.671875,0 -0.78125,0 -0.78125,-0.4375 v -3.234375 z m 0,0"
               id="id-06ab3ca8-e882-44ab-adbd-5db425bef503" />
          </g>
          <g
             id="id-77d99e11-9d07-43b3-8495-b0d04fdeafb3">
            <path
               d="m 3.78125,-0.546875 v 0.65625 L 5.25,0 v -0.3125 c -0.6875,0 -0.78125,-0.0625 -0.78125,-0.5625 V -6.921875 L 3.046875,-6.8125 V -6.5 c 0.6875,0 0.765625,0.0625 0.765625,0.5625 v 2.15625 c -0.28125,-0.359375 -0.71875,-0.625 -1.25,-0.625 -1.171875,0 -2.21875,0.984375 -2.21875,2.265625 0,1.265625 0.96875,2.25 2.109375,2.25 0.640625,0 1.078125,-0.34375 1.328125,-0.65625 z m 0,-2.671875 v 2.046875 c 0,0.171875 0,0.1875 -0.109375,0.359375 C 3.375,-0.328125 2.9375,-0.109375 2.5,-0.109375 2.046875,-0.109375 1.6875,-0.375 1.453125,-0.75 1.203125,-1.15625 1.171875,-1.71875 1.171875,-2.140625 1.171875,-2.5 1.1875,-3.09375 1.46875,-3.546875 1.6875,-3.859375 2.0625,-4.1875 2.609375,-4.1875 c 0.34375,0 0.765625,0.15625 1.0625,0.59375 0.109375,0.171875 0.109375,0.1875 0.109375,0.375 z m 0,0"
               id="id-95aa5151-fb64-4b6c-8a69-d68f411af546" />
          </g>
        </g>
      </defs>
      <g
         fill="#000000"
         fill-opacity="1"
         id="id-5f6007f8-a140-4519-9b8e-501bc8a03b2a"
         transform="translate(-149.056,-127.734)">
        <g
           transform="translate(148.712,134.765)"
           id="g8816">
          <path
             d="M 0.34375,-6.8125 V -6.5 h 0.25 c 0.765625,0 0.78125,0.109375 0.78125,0.46875 v 5.25 c 0,0.359375 -0.015625,0.46875 -0.78125,0.46875 h -0.25 V 0 H 4 C 5.671875,0 7.046875,-1.46875 7.046875,-3.34375 7.046875,-5.25 5.703125,-6.8125 4,-6.8125 Z m 2.375,6.5 C 2.25,-0.3125 2.234375,-0.375 2.234375,-0.703125 V -6.09375 C 2.234375,-6.4375 2.25,-6.5 2.71875,-6.5 h 1 c 0.625,0 1.3125,0.21875 1.8125,0.921875 0.4375,0.59375 0.515625,1.453125 0.515625,2.234375 0,1.09375 -0.1875,1.703125 -0.546875,2.1875 -0.203125,0.265625 -0.765625,0.84375 -1.765625,0.84375 z m 0,0"
             id="id-c2d2ea8e-b84b-4698-a798-bfc5aa50f4c5" />
        </g>
        <g
           transform="translate(156.322,134.765)"
           id="g8819">
          <path
             d="M 1.109375,-2.515625 C 1.171875,-4 2.015625,-4.25 2.359375,-4.25 c 1.015625,0 1.125,1.34375 1.125,1.734375 z m 0,0.21875 h 2.78125 c 0.21875,0 0.25,0 0.25,-0.21875 0,-0.984375 -0.546875,-1.953125 -1.78125,-1.953125 -1.15625,0 -2.078125,1.03125 -2.078125,2.28125 0,1.328125 1.046875,2.296875 2.1875,2.296875 C 3.6875,0.109375 4.140625,-1 4.140625,-1.1875 4.140625,-1.28125 4.0625,-1.3125 4,-1.3125 c -0.078125,0 -0.109375,0.0625 -0.125,0.140625 -0.34375,1.03125 -1.25,1.03125 -1.34375,1.03125 -0.5,0 -0.890625,-0.296875 -1.125,-0.671875 -0.296875,-0.46875 -0.296875,-1.125 -0.296875,-1.484375 z m 0,0"
             id="id-7a745ded-15ca-41d5-bbeb-6af9019a2ffe" />
        </g>
        <g
           transform="translate(160.75,134.765)"
           id="g8822">
          <path
             d="m 1.171875,-2.171875 c 0,-1.625 0.8125,-2.046875 1.34375,-2.046875 0.09375,0 0.71875,0.015625 1.0625,0.375 -0.40625,0.03125 -0.46875,0.328125 -0.46875,0.453125 0,0.265625 0.1875,0.453125 0.453125,0.453125 0.265625,0 0.46875,-0.15625 0.46875,-0.46875 0,-0.671875 -0.765625,-1.0625 -1.53125,-1.0625 -1.25,0 -2.15625,1.078125 -2.15625,2.3125 0,1.28125 0.984375,2.265625 2.140625,2.265625 1.328125,0 1.65625,-1.203125 1.65625,-1.296875 0,-0.09375 -0.109375,-0.09375 -0.140625,-0.09375 -0.078125,0 -0.109375,0.03125 -0.125,0.09375 -0.28125,0.921875 -0.9375,1.046875 -1.296875,1.046875 -0.53125,0 -1.40625,-0.421875 -1.40625,-2.03125 z m 0,0"
             id="id-ab4f930a-06b2-4a85-8f98-d90314582566" />
        </g>
        <g
           transform="translate(165.177,134.765)"
           id="g8825">
          <path
             d="M 4.6875,-2.140625 C 4.6875,-3.40625 3.703125,-4.46875 2.5,-4.46875 c -1.25,0 -2.21875,1.09375 -2.21875,2.328125 0,1.296875 1.03125,2.25 2.203125,2.25 1.203125,0 2.203125,-0.984375 2.203125,-2.25 z m -2.1875,2 c -0.4375,0 -0.875,-0.203125 -1.140625,-0.671875 -0.25,-0.4375 -0.25,-1.046875 -0.25,-1.40625 0,-0.390625 0,-0.921875 0.234375,-1.359375 C 1.609375,-4.03125 2.078125,-4.25 2.484375,-4.25 c 0.4375,0 0.859375,0.21875 1.125,0.65625 0.265625,0.421875 0.265625,1 0.265625,1.375 0,0.359375 0,0.90625 -0.21875,1.34375 C 3.421875,-0.421875 2.984375,-0.140625 2.5,-0.140625 Z m 0,0"
             id="id-2c510137-63d0-464d-9c24-a44eb74e5cc9" />
        </g>
        <g
           transform="translate(170.158,134.765)"
           id="g8828">
          <path
             d="M 1.09375,-3.421875 V -0.75 c 0,0.4375 -0.109375,0.4375 -0.78125,0.4375 V 0 c 0.359375,-0.015625 0.859375,-0.03125 1.140625,-0.03125 0.25,0 0.765625,0.015625 1.109375,0.03125 v -0.3125 c -0.671875,0 -0.78125,0 -0.78125,-0.4375 V -2.59375 C 1.78125,-3.625 2.5,-4.1875 3.125,-4.1875 c 0.640625,0 0.75,0.53125 0.75,1.109375 V -0.75 c 0,0.4375 -0.109375,0.4375 -0.78125,0.4375 V 0 c 0.34375,-0.015625 0.859375,-0.03125 1.125,-0.03125 0.25,0 0.78125,0.015625 1.109375,0.03125 v -0.3125 c -0.515625,0 -0.765625,0 -0.765625,-0.296875 v -1.90625 c 0,-0.859375 0,-1.15625 -0.3125,-1.515625 -0.140625,-0.171875 -0.46875,-0.375 -1.046875,-0.375 C 2.46875,-4.40625 2,-3.984375 1.71875,-3.359375 V -4.40625 L 0.3125,-4.296875 v 0.3125 c 0.703125,0 0.78125,0.0625 0.78125,0.5625 z m 0,0"
             id="id-0321bf91-4e5b-41f2-96e3-72894fe41b3c" />
        </g>
        <g
           transform="translate(175.694,134.765)"
           id="g8831">
          <path
             d="m 3.296875,-3.984375 c 0.453125,0 0.515625,0.125 0.515625,0.53125 V -0.75 c 0,0.4375 -0.109375,0.4375 -0.765625,0.4375 V 0 c 0.328125,-0.015625 0.84375,-0.03125 1.09375,-0.03125 0.25,0 0.75,0.015625 1.109375,0.03125 v -0.3125 c -0.671875,0 -0.78125,0 -0.78125,-0.4375 v -3.671875 l -1.25,0.09375 C 3.0625,-4.3125 3.046875,-4.3125 3.046875,-4.3125 3.015625,-4.296875 3,-4.296875 2.859375,-4.296875 H 1.6875 v -1.125 c 0,-0.984375 0.859375,-1.390625 1.46875,-1.390625 0.296875,0 0.65625,0.109375 0.859375,0.328125 -0.40625,0.03125 -0.46875,0.296875 -0.46875,0.46875 C 3.546875,-5.6875 3.8125,-5.5625 4,-5.5625 c 0.234375,0 0.453125,-0.15625 0.453125,-0.453125 0,-0.59375 -0.546875,-1.015625 -1.28125,-1.015625 C 2.25,-7.03125 1.0625,-6.515625 1.0625,-5.4375 v 1.140625 H 0.265625 v 0.3125 H 1.0625 V -0.75 c 0,0.4375 -0.109375,0.4375 -0.78125,0.4375 V 0 C 0.609375,-0.015625 1.140625,-0.03125 1.390625,-0.03125 1.640625,-0.03125 2.125,-0.015625 2.5,0 v -0.3125 c -0.671875,0 -0.78125,0 -0.78125,-0.4375 v -3.234375 z m 0,0"
             id="id-017e0cfb-3837-4a14-af07-7b184eda951e" />
        </g>
        <g
           transform="translate(181.229,134.765)"
           id="g8834">
          <path
             d="M 1.09375,-3.421875 V -0.75 c 0,0.4375 -0.109375,0.4375 -0.78125,0.4375 V 0 c 0.359375,-0.015625 0.859375,-0.03125 1.140625,-0.03125 0.25,0 0.765625,0.015625 1.109375,0.03125 v -0.3125 c -0.671875,0 -0.78125,0 -0.78125,-0.4375 V -2.59375 C 1.78125,-3.625 2.5,-4.1875 3.125,-4.1875 c 0.640625,0 0.75,0.53125 0.75,1.109375 V -0.75 c 0,0.4375 -0.109375,0.4375 -0.78125,0.4375 V 0 c 0.34375,-0.015625 0.859375,-0.03125 1.125,-0.03125 0.25,0 0.78125,0.015625 1.109375,0.03125 v -0.3125 c -0.515625,0 -0.765625,0 -0.765625,-0.296875 v -1.90625 c 0,-0.859375 0,-1.15625 -0.3125,-1.515625 -0.140625,-0.171875 -0.46875,-0.375 -1.046875,-0.375 C 2.46875,-4.40625 2,-3.984375 1.71875,-3.359375 V -4.40625 L 0.3125,-4.296875 v 0.3125 c 0.703125,0 0.78125,0.0625 0.78125,0.5625 z m 0,0"
             id="id-b0549fe6-17b2-49a8-a61b-fff270ade314" />
        </g>
        <g
           transform="translate(186.764,134.765)"
           id="g8837">
          <path
             d="M 1.109375,-2.515625 C 1.171875,-4 2.015625,-4.25 2.359375,-4.25 c 1.015625,0 1.125,1.34375 1.125,1.734375 z m 0,0.21875 h 2.78125 c 0.21875,0 0.25,0 0.25,-0.21875 0,-0.984375 -0.546875,-1.953125 -1.78125,-1.953125 -1.15625,0 -2.078125,1.03125 -2.078125,2.28125 0,1.328125 1.046875,2.296875 2.1875,2.296875 C 3.6875,0.109375 4.140625,-1 4.140625,-1.1875 4.140625,-1.28125 4.0625,-1.3125 4,-1.3125 c -0.078125,0 -0.109375,0.0625 -0.125,0.140625 -0.34375,1.03125 -1.25,1.03125 -1.34375,1.03125 -0.5,0 -0.890625,-0.296875 -1.125,-0.671875 -0.296875,-0.46875 -0.296875,-1.125 -0.296875,-1.484375 z m 0,0"
             id="id-42108aaa-de1f-4770-afab-6e712c6fb285" />
        </g>
        <g
           transform="translate(191.192,134.765)"
           id="g8840">
          <path
             d="m 3.78125,-0.546875 v 0.65625 L 5.25,0 v -0.3125 c -0.6875,0 -0.78125,-0.0625 -0.78125,-0.5625 V -6.921875 L 3.046875,-6.8125 V -6.5 c 0.6875,0 0.765625,0.0625 0.765625,0.5625 v 2.15625 c -0.28125,-0.359375 -0.71875,-0.625 -1.25,-0.625 -1.171875,0 -2.21875,0.984375 -2.21875,2.265625 0,1.265625 0.96875,2.25 2.109375,2.25 0.640625,0 1.078125,-0.34375 1.328125,-0.65625 z m 0,-2.671875 v 2.046875 c 0,0.171875 0,0.1875 -0.109375,0.359375 C 3.375,-0.328125 2.9375,-0.109375 2.5,-0.109375 2.046875,-0.109375 1.6875,-0.375 1.453125,-0.75 1.203125,-1.15625 1.171875,-1.71875 1.171875,-2.140625 1.171875,-2.5 1.1875,-3.09375 1.46875,-3.546875 1.6875,-3.859375 2.0625,-4.1875 2.609375,-4.1875 c 0.34375,0 0.765625,0.15625 1.0625,0.59375 0.109375,0.171875 0.109375,0.1875 0.109375,0.375 z m 0,0"
             id="id-39fbe1c4-873c-4b96-877f-3bb329dfe302" />
        </g>
      </g>
    </g>
    <g
       transform="matrix(0.352778,0,0,0.352778,147.70196,102.125)"
       ns2:version="1.8.2"
       ns2:texconverter="pdflatex"
       ns2:pdfconverter="inkscape"
       ns2:text="Higgs"
       ns2:preamble="/Users/jeet/Library/Application Support/org.inkscape.Inkscape/config/inkscape/extensions/textext/default_packages.tex"
       ns2:scale="1.0"
       ns2:alignment="middle center"
       ns2:stroke-to-path="0"
       ns2:inkscapeversion="1.2.1"
       ns2:jacobian_sqrt="0.352778"
       id="g7852-7-3">
      <defs
         id="id-3294848b-b5d6-451d-a735-4eecfa7145fa">
        <g
           id="id-586eb43e-fdd8-476f-b235-54e80eb27c3a">
          <g
             id="id-a6118d1e-6c2e-4187-932a-14b47e87d6b1" />
          <g
             id="id-049db5ee-ec0f-4c8d-84a4-e275974c2463">
            <path
               d="M 6.109375,-6.03125 C 6.109375,-6.390625 6.125,-6.5 6.890625,-6.5 h 0.25 v -0.3125 c -0.359375,0.03125 -1.09375,0.03125 -1.46875,0.03125 -0.375,0 -1.125,0 -1.46875,-0.03125 V -6.5 H 4.4375 c 0.765625,0 0.78125,0.109375 0.78125,0.46875 v 2.328125 H 2.25 V -6.03125 C 2.25,-6.390625 2.265625,-6.5 3.03125,-6.5 h 0.234375 v -0.3125 c -0.34375,0.03125 -1.078125,0.03125 -1.46875,0.03125 -0.375,0 -1.125,0 -1.46875,-0.03125 V -6.5 H 0.5625 c 0.765625,0 0.796875,0.109375 0.796875,0.46875 v 5.25 c 0,0.359375 -0.03125,0.46875 -0.796875,0.46875 H 0.328125 V 0 c 0.34375,-0.03125 1.09375,-0.03125 1.46875,-0.03125 0.375,0 1.125,0 1.46875,0.03125 V -0.3125 H 3.03125 C 2.265625,-0.3125 2.25,-0.421875 2.25,-0.78125 v -2.609375 h 2.96875 v 2.609375 c 0,0.359375 -0.015625,0.46875 -0.78125,0.46875 H 4.203125 V 0 c 0.34375,-0.03125 1.078125,-0.03125 1.453125,-0.03125 0.390625,0 1.125,0 1.484375,0.03125 v -0.3125 h -0.25 c -0.765625,0 -0.78125,-0.109375 -0.78125,-0.46875 z m 0,0"
               id="id-e9150e4f-340e-46c9-a3cc-103b602c129f" />
          </g>
          <g
             id="id-2e57be8f-dec5-41a7-b674-b134523c91b2">
            <path
               d="M 1.765625,-4.40625 0.375,-4.296875 v 0.3125 c 0.640625,0 0.734375,0.0625 0.734375,0.546875 V -0.75 c 0,0.4375 -0.109375,0.4375 -0.78125,0.4375 V 0 C 0.640625,-0.015625 1.1875,-0.03125 1.421875,-0.03125 1.78125,-0.03125 2.125,-0.015625 2.46875,0 v -0.3125 c -0.671875,0 -0.703125,-0.046875 -0.703125,-0.4375 z m 0.03125,-1.734375 c 0,-0.3125 -0.234375,-0.53125 -0.515625,-0.53125 -0.3125,0 -0.53125,0.265625 -0.53125,0.53125 0,0.265625 0.21875,0.53125 0.53125,0.53125 0.28125,0 0.515625,-0.21875 0.515625,-0.53125 z m 0,0"
               id="id-b520eea1-376f-41d5-a522-439cb1cacaac" />
          </g>
          <g
             id="id-a9bee882-1126-48b0-8937-2c700a236126">
            <path
               d="m 2.21875,-1.71875 c -0.875,0 -0.875,-1 -0.875,-1.21875 0,-0.265625 0.015625,-0.59375 0.15625,-0.84375 0.078125,-0.109375 0.3125,-0.390625 0.71875,-0.390625 0.859375,0 0.859375,0.984375 0.859375,1.21875 0,0.265625 0,0.59375 -0.15625,0.84375 C 2.84375,-2 2.609375,-1.71875 2.21875,-1.71875 Z M 1.0625,-1.328125 c 0,-0.03125 0,-0.265625 0.15625,-0.46875 0.390625,0.28125 0.8125,0.3125 1,0.3125 0.921875,0 1.609375,-0.6875 1.609375,-1.453125 0,-0.375 -0.15625,-0.734375 -0.40625,-0.96875 C 3.78125,-4.25 4.140625,-4.296875 4.3125,-4.296875 c 0.03125,0 0.078125,0 0.109375,0.015625 C 4.3125,-4.25 4.25,-4.140625 4.25,-4.015625 c 0,0.171875 0.140625,0.28125 0.296875,0.28125 0.09375,0 0.28125,-0.0625 0.28125,-0.296875 0,-0.171875 -0.109375,-0.484375 -0.5,-0.484375 -0.203125,0 -0.640625,0.0625 -1.0625,0.46875 C 2.84375,-4.375 2.4375,-4.40625 2.21875,-4.40625 c -0.9375,0 -1.625,0.6875 -1.625,1.453125 0,0.4375 0.21875,0.8125 0.46875,1.03125 -0.125,0.140625 -0.3125,0.46875 -0.3125,0.828125 0,0.3125 0.140625,0.6875 0.453125,0.890625 -0.609375,0.15625 -0.921875,0.59375 -0.921875,0.984375 0,0.71875 0.984375,1.265625 2.203125,1.265625 1.171875,0 2.203125,-0.5 2.203125,-1.28125 0,-0.34375 -0.125,-0.859375 -0.640625,-1.140625 -0.53125,-0.265625 -1.109375,-0.265625 -1.71875,-0.265625 -0.25,0 -0.671875,0 -0.75,-0.015625 C 1.265625,-0.703125 1.0625,-1 1.0625,-1.328125 Z M 2.5,1.828125 c -1.015625,0 -1.703125,-0.515625 -1.703125,-1.046875 0,-0.453125 0.375,-0.828125 0.8125,-0.84375 h 0.59375 c 0.859375,0 1.96875,0 1.96875,0.84375 0,0.546875 -0.703125,1.046875 -1.671875,1.046875 z m 0,0"
               id="id-4fd4ac75-56ec-4a1a-8ab4-6190cd7d0a6d" />
          </g>
          <g
             id="id-519e4ac3-6e3f-46b9-8e09-363d6289bb43">
            <path
               d="m 2.078125,-1.9375 c 0.21875,0.046875 1.03125,0.203125 1.03125,0.921875 0,0.5 -0.34375,0.90625 -1.125,0.90625 -0.84375,0 -1.203125,-0.5625 -1.390625,-1.421875 C 0.5625,-1.65625 0.5625,-1.6875 0.453125,-1.6875 c -0.125,0 -0.125,0.0625 -0.125,0.234375 V -0.125 c 0,0.171875 0,0.234375 0.109375,0.234375 0.046875,0 0.0625,-0.015625 0.25,-0.203125 0.015625,-0.015625 0.015625,-0.03125 0.203125,-0.21875 0.4375,0.40625 0.890625,0.421875 1.09375,0.421875 1.140625,0 1.609375,-0.671875 1.609375,-1.390625 0,-0.515625 -0.296875,-0.828125 -0.421875,-0.9375 C 2.84375,-2.546875 2.453125,-2.625 2.03125,-2.703125 1.46875,-2.8125 0.8125,-2.9375 0.8125,-3.515625 c 0,-0.359375 0.25,-0.765625 1.109375,-0.765625 1.09375,0 1.15625,0.90625 1.171875,1.203125 0,0.09375 0.09375,0.09375 0.109375,0.09375 0.140625,0 0.140625,-0.046875 0.140625,-0.234375 v -1.015625 c 0,-0.15625 0,-0.234375 -0.109375,-0.234375 -0.046875,0 -0.078125,0 -0.203125,0.125 -0.03125,0.03125 -0.125,0.125 -0.171875,0.15625 -0.375,-0.28125 -0.78125,-0.28125 -0.9375,-0.28125 -1.21875,0 -1.59375,0.671875 -1.59375,1.234375 0,0.34375 0.15625,0.625 0.421875,0.84375 0.328125,0.25 0.609375,0.3125 1.328125,0.453125 z m 0,0"
               id="id-c9a290af-8b93-4733-80f3-1744657f1428" />
          </g>
        </g>
      </defs>
      <g
         fill="#000000"
         fill-opacity="1"
         id="id-62425445-aea2-471f-b511-1269efc4909b"
         transform="translate(-149.04,-127.953)">
        <g
           transform="translate(148.712,134.765)"
           id="g10406">
          <path
             d="M 6.109375,-6.03125 C 6.109375,-6.390625 6.125,-6.5 6.890625,-6.5 h 0.25 v -0.3125 c -0.359375,0.03125 -1.09375,0.03125 -1.46875,0.03125 -0.375,0 -1.125,0 -1.46875,-0.03125 V -6.5 H 4.4375 c 0.765625,0 0.78125,0.109375 0.78125,0.46875 v 2.328125 H 2.25 V -6.03125 C 2.25,-6.390625 2.265625,-6.5 3.03125,-6.5 h 0.234375 v -0.3125 c -0.34375,0.03125 -1.078125,0.03125 -1.46875,0.03125 -0.375,0 -1.125,0 -1.46875,-0.03125 V -6.5 H 0.5625 c 0.765625,0 0.796875,0.109375 0.796875,0.46875 v 5.25 c 0,0.359375 -0.03125,0.46875 -0.796875,0.46875 H 0.328125 V 0 c 0.34375,-0.03125 1.09375,-0.03125 1.46875,-0.03125 0.375,0 1.125,0 1.46875,0.03125 V -0.3125 H 3.03125 C 2.265625,-0.3125 2.25,-0.421875 2.25,-0.78125 v -2.609375 h 2.96875 v 2.609375 c 0,0.359375 -0.015625,0.46875 -0.78125,0.46875 H 4.203125 V 0 c 0.34375,-0.03125 1.078125,-0.03125 1.453125,-0.03125 0.390625,0 1.125,0 1.484375,0.03125 v -0.3125 h -0.25 c -0.765625,0 -0.78125,-0.109375 -0.78125,-0.46875 z m 0,0"
             id="id-14df5fb8-2531-4284-a8ca-a39d5a2a862a" />
        </g>
        <g
           transform="translate(156.184,134.765)"
           id="g10409">
          <path
             d="M 1.765625,-4.40625 0.375,-4.296875 v 0.3125 c 0.640625,0 0.734375,0.0625 0.734375,0.546875 V -0.75 c 0,0.4375 -0.109375,0.4375 -0.78125,0.4375 V 0 C 0.640625,-0.015625 1.1875,-0.03125 1.421875,-0.03125 1.78125,-0.03125 2.125,-0.015625 2.46875,0 v -0.3125 c -0.671875,0 -0.703125,-0.046875 -0.703125,-0.4375 z m 0.03125,-1.734375 c 0,-0.3125 -0.234375,-0.53125 -0.515625,-0.53125 -0.3125,0 -0.53125,0.265625 -0.53125,0.53125 0,0.265625 0.21875,0.53125 0.53125,0.53125 0.28125,0 0.515625,-0.21875 0.515625,-0.53125 z m 0,0"
             id="id-bf63f1c7-5cc3-441c-81ef-65846dc21e55" />
        </g>
        <g
           transform="translate(158.952,134.765)"
           id="g10412">
          <path
             d="m 2.21875,-1.71875 c -0.875,0 -0.875,-1 -0.875,-1.21875 0,-0.265625 0.015625,-0.59375 0.15625,-0.84375 0.078125,-0.109375 0.3125,-0.390625 0.71875,-0.390625 0.859375,0 0.859375,0.984375 0.859375,1.21875 0,0.265625 0,0.59375 -0.15625,0.84375 C 2.84375,-2 2.609375,-1.71875 2.21875,-1.71875 Z M 1.0625,-1.328125 c 0,-0.03125 0,-0.265625 0.15625,-0.46875 0.390625,0.28125 0.8125,0.3125 1,0.3125 0.921875,0 1.609375,-0.6875 1.609375,-1.453125 0,-0.375 -0.15625,-0.734375 -0.40625,-0.96875 C 3.78125,-4.25 4.140625,-4.296875 4.3125,-4.296875 c 0.03125,0 0.078125,0 0.109375,0.015625 C 4.3125,-4.25 4.25,-4.140625 4.25,-4.015625 c 0,0.171875 0.140625,0.28125 0.296875,0.28125 0.09375,0 0.28125,-0.0625 0.28125,-0.296875 0,-0.171875 -0.109375,-0.484375 -0.5,-0.484375 -0.203125,0 -0.640625,0.0625 -1.0625,0.46875 C 2.84375,-4.375 2.4375,-4.40625 2.21875,-4.40625 c -0.9375,0 -1.625,0.6875 -1.625,1.453125 0,0.4375 0.21875,0.8125 0.46875,1.03125 -0.125,0.140625 -0.3125,0.46875 -0.3125,0.828125 0,0.3125 0.140625,0.6875 0.453125,0.890625 -0.609375,0.15625 -0.921875,0.59375 -0.921875,0.984375 0,0.71875 0.984375,1.265625 2.203125,1.265625 1.171875,0 2.203125,-0.5 2.203125,-1.28125 0,-0.34375 -0.125,-0.859375 -0.640625,-1.140625 -0.53125,-0.265625 -1.109375,-0.265625 -1.71875,-0.265625 -0.25,0 -0.671875,0 -0.75,-0.015625 C 1.265625,-0.703125 1.0625,-1 1.0625,-1.328125 Z M 2.5,1.828125 c -1.015625,0 -1.703125,-0.515625 -1.703125,-1.046875 0,-0.453125 0.375,-0.828125 0.8125,-0.84375 h 0.59375 c 0.859375,0 1.96875,0 1.96875,0.84375 0,0.546875 -0.703125,1.046875 -1.671875,1.046875 z m 0,0"
             id="id-314d5f47-bb5e-4c34-9363-cddc955fb081" />
        </g>
        <g
           transform="translate(163.933,134.765)"
           id="g10415">
          <path
             d="m 2.21875,-1.71875 c -0.875,0 -0.875,-1 -0.875,-1.21875 0,-0.265625 0.015625,-0.59375 0.15625,-0.84375 0.078125,-0.109375 0.3125,-0.390625 0.71875,-0.390625 0.859375,0 0.859375,0.984375 0.859375,1.21875 0,0.265625 0,0.59375 -0.15625,0.84375 C 2.84375,-2 2.609375,-1.71875 2.21875,-1.71875 Z M 1.0625,-1.328125 c 0,-0.03125 0,-0.265625 0.15625,-0.46875 0.390625,0.28125 0.8125,0.3125 1,0.3125 0.921875,0 1.609375,-0.6875 1.609375,-1.453125 0,-0.375 -0.15625,-0.734375 -0.40625,-0.96875 C 3.78125,-4.25 4.140625,-4.296875 4.3125,-4.296875 c 0.03125,0 0.078125,0 0.109375,0.015625 C 4.3125,-4.25 4.25,-4.140625 4.25,-4.015625 c 0,0.171875 0.140625,0.28125 0.296875,0.28125 0.09375,0 0.28125,-0.0625 0.28125,-0.296875 0,-0.171875 -0.109375,-0.484375 -0.5,-0.484375 -0.203125,0 -0.640625,0.0625 -1.0625,0.46875 C 2.84375,-4.375 2.4375,-4.40625 2.21875,-4.40625 c -0.9375,0 -1.625,0.6875 -1.625,1.453125 0,0.4375 0.21875,0.8125 0.46875,1.03125 -0.125,0.140625 -0.3125,0.46875 -0.3125,0.828125 0,0.3125 0.140625,0.6875 0.453125,0.890625 -0.609375,0.15625 -0.921875,0.59375 -0.921875,0.984375 0,0.71875 0.984375,1.265625 2.203125,1.265625 1.171875,0 2.203125,-0.5 2.203125,-1.28125 0,-0.34375 -0.125,-0.859375 -0.640625,-1.140625 -0.53125,-0.265625 -1.109375,-0.265625 -1.71875,-0.265625 -0.25,0 -0.671875,0 -0.75,-0.015625 C 1.265625,-0.703125 1.0625,-1 1.0625,-1.328125 Z M 2.5,1.828125 c -1.015625,0 -1.703125,-0.515625 -1.703125,-1.046875 0,-0.453125 0.375,-0.828125 0.8125,-0.84375 h 0.59375 c 0.859375,0 1.96875,0 1.96875,0.84375 0,0.546875 -0.703125,1.046875 -1.671875,1.046875 z m 0,0"
             id="id-c9551d4b-bc2a-48d6-953c-e1c4e1a4b0ee" />
        </g>
        <g
           transform="translate(168.914,134.765)"
           id="g10418">
          <path
             d="m 2.078125,-1.9375 c 0.21875,0.046875 1.03125,0.203125 1.03125,0.921875 0,0.5 -0.34375,0.90625 -1.125,0.90625 -0.84375,0 -1.203125,-0.5625 -1.390625,-1.421875 C 0.5625,-1.65625 0.5625,-1.6875 0.453125,-1.6875 c -0.125,0 -0.125,0.0625 -0.125,0.234375 V -0.125 c 0,0.171875 0,0.234375 0.109375,0.234375 0.046875,0 0.0625,-0.015625 0.25,-0.203125 0.015625,-0.015625 0.015625,-0.03125 0.203125,-0.21875 0.4375,0.40625 0.890625,0.421875 1.09375,0.421875 1.140625,0 1.609375,-0.671875 1.609375,-1.390625 0,-0.515625 -0.296875,-0.828125 -0.421875,-0.9375 C 2.84375,-2.546875 2.453125,-2.625 2.03125,-2.703125 1.46875,-2.8125 0.8125,-2.9375 0.8125,-3.515625 c 0,-0.359375 0.25,-0.765625 1.109375,-0.765625 1.09375,0 1.15625,0.90625 1.171875,1.203125 0,0.09375 0.09375,0.09375 0.109375,0.09375 0.140625,0 0.140625,-0.046875 0.140625,-0.234375 v -1.015625 c 0,-0.15625 0,-0.234375 -0.109375,-0.234375 -0.046875,0 -0.078125,0 -0.203125,0.125 -0.03125,0.03125 -0.125,0.125 -0.171875,0.15625 -0.375,-0.28125 -0.78125,-0.28125 -0.9375,-0.28125 -1.21875,0 -1.59375,0.671875 -1.59375,1.234375 0,0.34375 0.15625,0.625 0.421875,0.84375 0.328125,0.25 0.609375,0.3125 1.328125,0.453125 z m 0,0"
             id="id-a8dd9ba0-4a35-4e05-bf14-7203c37e314b" />
        </g>
      </g>
    </g>
    <g
       transform="matrix(0.352778,0,0,0.352778,125.488,126.00737)"
       ns2:version="1.8.2"
       ns2:texconverter="pdflatex"
       ns2:pdfconverter="inkscape"
       ns2:text="$0.55(5)V$"
       ns2:preamble="/Users/jeet/Library/Application Support/org.inkscape.Inkscape/config/inkscape/extensions/textext/default_packages.tex"
       ns2:scale="1.0"
       ns2:alignment="middle center"
       ns2:stroke-to-path="0"
       ns2:inkscapeversion="1.2.1"
       ns2:jacobian_sqrt="0.352778"
       id="g22296-1-5">
      <defs
         id="id-d2db7f2d-d031-4ec5-bfac-e6b60028af42">
        <g
           id="id-b2656a6b-47b3-4a55-b530-75e8c6553f77">
          <g
             id="id-66d95ee7-2076-442f-abe2-a4a34c4e3b64" />
          <g
             id="id-17967f1a-41b0-4127-bcba-7f72cce30a4d">
            <path
               d="m 4.578125,-3.1875 c 0,-0.796875 -0.046875,-1.59375 -0.390625,-2.328125 -0.453125,-0.96875 -1.28125,-1.125 -1.6875,-1.125 -0.609375,0 -1.328125,0.265625 -1.75,1.1875 -0.3125,0.6875 -0.359375,1.46875 -0.359375,2.265625 0,0.75 0.03125,1.640625 0.453125,2.40625 0.421875,0.796875 1.15625,1 1.640625,1 0.53125,0 1.296875,-0.203125 1.734375,-1.15625 0.3125,-0.6875 0.359375,-1.46875 0.359375,-2.25 z M 2.484375,0 C 2.09375,0 1.5,-0.25 1.328125,-1.203125 1.21875,-1.796875 1.21875,-2.71875 1.21875,-3.3125 c 0,-0.640625 0,-1.296875 0.078125,-1.828125 0.1875,-1.1875 0.9375,-1.28125 1.1875,-1.28125 0.328125,0 0.984375,0.1875 1.171875,1.171875 0.109375,0.5625 0.109375,1.3125 0.109375,1.9375 0,0.75 0,1.421875 -0.109375,2.0625 C 3.5,-0.296875 2.9375,0 2.484375,0 Z m 0,0"
               id="id-d2e00a25-8775-4c07-98d1-d57fbd3c9363" />
          </g>
          <g
             id="id-b940c3e4-02e8-40c3-955a-04a1ff930519">
            <path
               d="m 4.46875,-2 c 0,-1.1875 -0.8125,-2.1875 -1.890625,-2.1875 -0.46875,0 -0.90625,0.15625 -1.265625,0.515625 V -5.625 c 0.203125,0.0625 0.53125,0.125 0.84375,0.125 1.234375,0 1.9375,-0.90625 1.9375,-1.03125 0,-0.0625 -0.03125,-0.109375 -0.109375,-0.109375 0,0 -0.03125,0 -0.078125,0.03125 C 3.703125,-6.515625 3.21875,-6.3125 2.546875,-6.3125 2.15625,-6.3125 1.6875,-6.390625 1.21875,-6.59375 1.140625,-6.625 1.125,-6.625 1.109375,-6.625 1,-6.625 1,-6.546875 1,-6.390625 V -3.4375 c 0,0.171875 0,0.25 0.140625,0.25 0.078125,0 0.09375,-0.015625 0.140625,-0.078125 C 1.390625,-3.421875 1.75,-3.96875 2.5625,-3.96875 c 0.515625,0 0.765625,0.453125 0.84375,0.640625 0.15625,0.375 0.1875,0.75 0.1875,1.25 0,0.359375 0,0.953125 -0.25,1.375 C 3.109375,-0.3125 2.734375,-0.0625 2.28125,-0.0625 c -0.71875,0 -1.296875,-0.53125 -1.46875,-1.109375 0.03125,0 0.0625,0.015625 0.171875,0.015625 0.328125,0 0.5,-0.25 0.5,-0.484375 0,-0.25 -0.171875,-0.5 -0.5,-0.5 C 0.84375,-2.140625 0.5,-2.0625 0.5,-1.609375 0.5,-0.75 1.1875,0.21875 2.296875,0.21875 3.453125,0.21875 4.46875,-0.734375 4.46875,-2 Z m 0,0"
               id="id-d2af65be-a1a6-4f0f-b9e4-10719f9d72db" />
          </g>
          <g
             id="id-1c76c083-dc9f-47f1-905d-5e52b3bd9b0e">
            <path
               d="m 3.296875,2.390625 c 0,-0.03125 0,-0.046875 -0.171875,-0.21875 C 1.890625,0.921875 1.5625,-0.96875 1.5625,-2.5 c 0,-1.734375 0.375,-3.46875 1.609375,-4.703125 0.125,-0.125 0.125,-0.140625 0.125,-0.171875 0,-0.078125 -0.03125,-0.109375 -0.09375,-0.109375 -0.109375,0 -1,0.6875 -1.59375,1.953125 -0.5,1.09375 -0.625,2.203125 -0.625,3.03125 0,0.78125 0.109375,1.984375 0.65625,3.125 C 2.25,1.84375 3.09375,2.5 3.203125,2.5 c 0.0625,0 0.09375,-0.03125 0.09375,-0.109375 z m 0,0"
               id="id-913282ea-e8a1-489b-b7c5-9dd7c73a7a34" />
          </g>
          <g
             id="id-3aab0d54-42c0-4340-8666-5236f1a455fe">
            <path
               d="m 2.875,-2.5 c 0,-0.765625 -0.109375,-1.96875 -0.65625,-3.109375 -0.59375,-1.21875 -1.453125,-1.875 -1.546875,-1.875 -0.0625,0 -0.109375,0.046875 -0.109375,0.109375 0,0.03125 0,0.046875 0.1875,0.234375 0.984375,0.984375 1.546875,2.5625 1.546875,4.640625 0,1.71875 -0.359375,3.46875 -1.59375,4.71875 C 0.5625,2.34375 0.5625,2.359375 0.5625,2.390625 0.5625,2.453125 0.609375,2.5 0.671875,2.5 0.765625,2.5 1.671875,1.8125 2.25,0.546875 2.765625,-0.546875 2.875,-1.65625 2.875,-2.5 Z m 0,0"
               id="id-babad519-45af-4467-95a8-4bdeef420e38" />
          </g>
          <g
             id="id-a6abb8d1-a657-4405-aa2a-8a155c2b5598" />
          <g
             id="id-ad98cff5-cbfa-4cfd-b8ab-12a4ee7bb446">
            <path
               d="m 1.90625,-0.53125 c 0,-0.28125 -0.234375,-0.53125 -0.515625,-0.53125 -0.296875,0 -0.53125,0.25 -0.53125,0.53125 C 0.859375,-0.234375 1.09375,0 1.390625,0 1.671875,0 1.90625,-0.234375 1.90625,-0.53125 Z m 0,0"
               id="id-968c9c67-4d7c-4f36-ac1e-7617f09a2508" />
          </g>
          <g
             id="id-633e6b09-64fe-4121-83d3-5855e8414329">
            <path
               d="M 6.265625,-5.671875 C 6.75,-6.453125 7.171875,-6.484375 7.53125,-6.5 c 0.125,-0.015625 0.140625,-0.171875 0.140625,-0.1875 0,-0.078125 -0.0625,-0.125 -0.140625,-0.125 -0.25,0 -0.546875,0.03125 -0.8125,0.03125 -0.328125,0 -0.671875,-0.03125 -0.984375,-0.03125 -0.0625,0 -0.1875,0 -0.1875,0.1875 0,0.109375 0.078125,0.125 0.15625,0.125 0.265625,0.015625 0.453125,0.125 0.453125,0.328125 0,0.15625 -0.140625,0.375 -0.140625,0.375 l -3.0625,4.875 -0.6875,-5.28125 C 2.265625,-6.375 2.5,-6.5 2.953125,-6.5 c 0.140625,0 0.25,0 0.25,-0.203125 0,-0.078125 -0.078125,-0.109375 -0.125,-0.109375 -0.40625,0 -0.828125,0.03125 -1.25,0.03125 -0.171875,0 -0.359375,0 -0.546875,0 -0.171875,0 -0.359375,-0.03125 -0.53125,-0.03125 -0.078125,0 -0.1875,0 -0.1875,0.1875 0,0.125 0.078125,0.125 0.25,0.125 0.546875,0 0.5625,0.09375 0.59375,0.34375 L 2.1875,-0.015625 C 2.21875,0.1875 2.265625,0.21875 2.390625,0.21875 c 0.15625,0 0.203125,-0.046875 0.28125,-0.171875 z m 0,0"
               id="id-da60691e-6f64-4a09-8bd7-5bbb1c991a21" />
          </g>
        </g>
      </defs>
      <g
         fill="#000000"
         fill-opacity="1"
         id="id-6e66ef7c-c802-4cb7-997a-9c1e51a3f38d"
         transform="translate(-149.103,-127.281)">
        <g
           transform="translate(148.712,134.765)"
           id="g1705">
          <path
             d="m 4.578125,-3.1875 c 0,-0.796875 -0.046875,-1.59375 -0.390625,-2.328125 -0.453125,-0.96875 -1.28125,-1.125 -1.6875,-1.125 -0.609375,0 -1.328125,0.265625 -1.75,1.1875 -0.3125,0.6875 -0.359375,1.46875 -0.359375,2.265625 0,0.75 0.03125,1.640625 0.453125,2.40625 0.421875,0.796875 1.15625,1 1.640625,1 0.53125,0 1.296875,-0.203125 1.734375,-1.15625 0.3125,-0.6875 0.359375,-1.46875 0.359375,-2.25 z M 2.484375,0 C 2.09375,0 1.5,-0.25 1.328125,-1.203125 1.21875,-1.796875 1.21875,-2.71875 1.21875,-3.3125 c 0,-0.640625 0,-1.296875 0.078125,-1.828125 0.1875,-1.1875 0.9375,-1.28125 1.1875,-1.28125 0.328125,0 0.984375,0.1875 1.171875,1.171875 0.109375,0.5625 0.109375,1.3125 0.109375,1.9375 0,0.75 0,1.421875 -0.109375,2.0625 C 3.5,-0.296875 2.9375,0 2.484375,0 Z m 0,0"
             id="id-9ce2bd27-db58-47a6-b2b8-02da529bc707" />
        </g>
      </g>
      <g
         fill="#000000"
         fill-opacity="1"
         id="id-0462ed05-3c61-4039-913a-30121ef0707f"
         transform="translate(-149.103,-127.281)">
        <g
           transform="translate(153.694,134.765)"
           id="g1709">
          <path
             d="m 1.90625,-0.53125 c 0,-0.28125 -0.234375,-0.53125 -0.515625,-0.53125 -0.296875,0 -0.53125,0.25 -0.53125,0.53125 C 0.859375,-0.234375 1.09375,0 1.390625,0 1.671875,0 1.90625,-0.234375 1.90625,-0.53125 Z m 0,0"
             id="id-24135147-fb13-4ad7-86d0-53b7a70a0d76" />
        </g>
      </g>
      <g
         fill="#000000"
         fill-opacity="1"
         id="id-a2691896-a3c5-4614-a729-8084bf62c8c1"
         transform="translate(-149.103,-127.281)">
        <g
           transform="translate(156.461,134.765)"
           id="g1713">
          <path
             d="m 4.46875,-2 c 0,-1.1875 -0.8125,-2.1875 -1.890625,-2.1875 -0.46875,0 -0.90625,0.15625 -1.265625,0.515625 V -5.625 c 0.203125,0.0625 0.53125,0.125 0.84375,0.125 1.234375,0 1.9375,-0.90625 1.9375,-1.03125 0,-0.0625 -0.03125,-0.109375 -0.109375,-0.109375 0,0 -0.03125,0 -0.078125,0.03125 C 3.703125,-6.515625 3.21875,-6.3125 2.546875,-6.3125 2.15625,-6.3125 1.6875,-6.390625 1.21875,-6.59375 1.140625,-6.625 1.125,-6.625 1.109375,-6.625 1,-6.625 1,-6.546875 1,-6.390625 V -3.4375 c 0,0.171875 0,0.25 0.140625,0.25 0.078125,0 0.09375,-0.015625 0.140625,-0.078125 C 1.390625,-3.421875 1.75,-3.96875 2.5625,-3.96875 c 0.515625,0 0.765625,0.453125 0.84375,0.640625 0.15625,0.375 0.1875,0.75 0.1875,1.25 0,0.359375 0,0.953125 -0.25,1.375 C 3.109375,-0.3125 2.734375,-0.0625 2.28125,-0.0625 c -0.71875,0 -1.296875,-0.53125 -1.46875,-1.109375 0.03125,0 0.0625,0.015625 0.171875,0.015625 0.328125,0 0.5,-0.25 0.5,-0.484375 0,-0.25 -0.171875,-0.5 -0.5,-0.5 C 0.84375,-2.140625 0.5,-2.0625 0.5,-1.609375 0.5,-0.75 1.1875,0.21875 2.296875,0.21875 3.453125,0.21875 4.46875,-0.734375 4.46875,-2 Z m 0,0"
             id="id-7a219eaf-a9a4-4d12-9046-bf1f7f424491" />
        </g>
        <g
           transform="translate(161.442,134.765)"
           id="g1716">
          <path
             d="m 4.46875,-2 c 0,-1.1875 -0.8125,-2.1875 -1.890625,-2.1875 -0.46875,0 -0.90625,0.15625 -1.265625,0.515625 V -5.625 c 0.203125,0.0625 0.53125,0.125 0.84375,0.125 1.234375,0 1.9375,-0.90625 1.9375,-1.03125 0,-0.0625 -0.03125,-0.109375 -0.109375,-0.109375 0,0 -0.03125,0 -0.078125,0.03125 C 3.703125,-6.515625 3.21875,-6.3125 2.546875,-6.3125 2.15625,-6.3125 1.6875,-6.390625 1.21875,-6.59375 1.140625,-6.625 1.125,-6.625 1.109375,-6.625 1,-6.625 1,-6.546875 1,-6.390625 V -3.4375 c 0,0.171875 0,0.25 0.140625,0.25 0.078125,0 0.09375,-0.015625 0.140625,-0.078125 C 1.390625,-3.421875 1.75,-3.96875 2.5625,-3.96875 c 0.515625,0 0.765625,0.453125 0.84375,0.640625 0.15625,0.375 0.1875,0.75 0.1875,1.25 0,0.359375 0,0.953125 -0.25,1.375 C 3.109375,-0.3125 2.734375,-0.0625 2.28125,-0.0625 c -0.71875,0 -1.296875,-0.53125 -1.46875,-1.109375 0.03125,0 0.0625,0.015625 0.171875,0.015625 0.328125,0 0.5,-0.25 0.5,-0.484375 0,-0.25 -0.171875,-0.5 -0.5,-0.5 C 0.84375,-2.140625 0.5,-2.0625 0.5,-1.609375 0.5,-0.75 1.1875,0.21875 2.296875,0.21875 3.453125,0.21875 4.46875,-0.734375 4.46875,-2 Z m 0,0"
             id="id-a6daffce-bdf6-4eb8-9cad-cbcf19a2233f" />
        </g>
        <g
           transform="translate(166.424,134.765)"
           id="g1719">
          <path
             d="m 3.296875,2.390625 c 0,-0.03125 0,-0.046875 -0.171875,-0.21875 C 1.890625,0.921875 1.5625,-0.96875 1.5625,-2.5 c 0,-1.734375 0.375,-3.46875 1.609375,-4.703125 0.125,-0.125 0.125,-0.140625 0.125,-0.171875 0,-0.078125 -0.03125,-0.109375 -0.09375,-0.109375 -0.109375,0 -1,0.6875 -1.59375,1.953125 -0.5,1.09375 -0.625,2.203125 -0.625,3.03125 0,0.78125 0.109375,1.984375 0.65625,3.125 C 2.25,1.84375 3.09375,2.5 3.203125,2.5 c 0.0625,0 0.09375,-0.03125 0.09375,-0.109375 z m 0,0"
             id="id-48d66eeb-323c-47e3-a82b-5a46a117e41b" />
        </g>
        <g
           transform="translate(170.298,134.765)"
           id="g1722">
          <path
             d="m 4.46875,-2 c 0,-1.1875 -0.8125,-2.1875 -1.890625,-2.1875 -0.46875,0 -0.90625,0.15625 -1.265625,0.515625 V -5.625 c 0.203125,0.0625 0.53125,0.125 0.84375,0.125 1.234375,0 1.9375,-0.90625 1.9375,-1.03125 0,-0.0625 -0.03125,-0.109375 -0.109375,-0.109375 0,0 -0.03125,0 -0.078125,0.03125 C 3.703125,-6.515625 3.21875,-6.3125 2.546875,-6.3125 2.15625,-6.3125 1.6875,-6.390625 1.21875,-6.59375 1.140625,-6.625 1.125,-6.625 1.109375,-6.625 1,-6.625 1,-6.546875 1,-6.390625 V -3.4375 c 0,0.171875 0,0.25 0.140625,0.25 0.078125,0 0.09375,-0.015625 0.140625,-0.078125 C 1.390625,-3.421875 1.75,-3.96875 2.5625,-3.96875 c 0.515625,0 0.765625,0.453125 0.84375,0.640625 0.15625,0.375 0.1875,0.75 0.1875,1.25 0,0.359375 0,0.953125 -0.25,1.375 C 3.109375,-0.3125 2.734375,-0.0625 2.28125,-0.0625 c -0.71875,0 -1.296875,-0.53125 -1.46875,-1.109375 0.03125,0 0.0625,0.015625 0.171875,0.015625 0.328125,0 0.5,-0.25 0.5,-0.484375 0,-0.25 -0.171875,-0.5 -0.5,-0.5 C 0.84375,-2.140625 0.5,-2.0625 0.5,-1.609375 0.5,-0.75 1.1875,0.21875 2.296875,0.21875 3.453125,0.21875 4.46875,-0.734375 4.46875,-2 Z m 0,0"
             id="id-6ed6c633-bea4-48ac-8484-8e4cff12c072" />
        </g>
        <g
           transform="translate(175.279,134.765)"
           id="g1725">
          <path
             d="m 2.875,-2.5 c 0,-0.765625 -0.109375,-1.96875 -0.65625,-3.109375 -0.59375,-1.21875 -1.453125,-1.875 -1.546875,-1.875 -0.0625,0 -0.109375,0.046875 -0.109375,0.109375 0,0.03125 0,0.046875 0.1875,0.234375 0.984375,0.984375 1.546875,2.5625 1.546875,4.640625 0,1.71875 -0.359375,3.46875 -1.59375,4.71875 C 0.5625,2.34375 0.5625,2.359375 0.5625,2.390625 0.5625,2.453125 0.609375,2.5 0.671875,2.5 0.765625,2.5 1.671875,1.8125 2.25,0.546875 2.765625,-0.546875 2.875,-1.65625 2.875,-2.5 Z m 0,0"
             id="id-80cf2637-495c-4fd3-bf59-a6310c75c7b4" />
        </g>
      </g>
      <g
         fill="#000000"
         fill-opacity="1"
         id="id-21a3ed53-da8e-4243-bfad-656bdf090510"
         transform="translate(-149.103,-127.281)">
        <g
           transform="translate(179.154,134.765)"
           id="g1729">
          <path
             d="M 6.265625,-5.671875 C 6.75,-6.453125 7.171875,-6.484375 7.53125,-6.5 c 0.125,-0.015625 0.140625,-0.171875 0.140625,-0.1875 0,-0.078125 -0.0625,-0.125 -0.140625,-0.125 -0.25,0 -0.546875,0.03125 -0.8125,0.03125 -0.328125,0 -0.671875,-0.03125 -0.984375,-0.03125 -0.0625,0 -0.1875,0 -0.1875,0.1875 0,0.109375 0.078125,0.125 0.15625,0.125 0.265625,0.015625 0.453125,0.125 0.453125,0.328125 0,0.15625 -0.140625,0.375 -0.140625,0.375 l -3.0625,4.875 -0.6875,-5.28125 C 2.265625,-6.375 2.5,-6.5 2.953125,-6.5 c 0.140625,0 0.25,0 0.25,-0.203125 0,-0.078125 -0.078125,-0.109375 -0.125,-0.109375 -0.40625,0 -0.828125,0.03125 -1.25,0.03125 -0.171875,0 -0.359375,0 -0.546875,0 -0.171875,0 -0.359375,-0.03125 -0.53125,-0.03125 -0.078125,0 -0.1875,0 -0.1875,0.1875 0,0.125 0.078125,0.125 0.25,0.125 0.546875,0 0.5625,0.09375 0.59375,0.34375 L 2.1875,-0.015625 C 2.21875,0.1875 2.265625,0.21875 2.390625,0.21875 c 0.15625,0 0.203125,-0.046875 0.28125,-0.171875 z m 0,0"
             id="id-1a4d93c0-b5e5-4301-ac7b-7065f5fa450c" />
        </g>
      </g>
    </g>
    <g
       transform="matrix(0.352778,0,0,0.352778,83.693762,126.25818)"
       ns2:version="1.8.2"
       ns2:texconverter="pdflatex"
       ns2:pdfconverter="inkscape"
       ns2:text="$0$"
       ns2:preamble="/Users/jeet/Library/Application Support/org.inkscape.Inkscape/config/inkscape/extensions/textext/default_packages.tex"
       ns2:scale="1.0"
       ns2:alignment="middle center"
       ns2:stroke-to-path="0"
       ns2:inkscapeversion="1.2.1"
       ns2:jacobian_sqrt="0.352778"
       id="g22296-1-4">
      <defs
         id="id-ebbb4e76-99b9-4706-bed8-1881e8059282">
        <g
           id="id-42f06522-d83c-4a4b-b77a-3c587e76fe09">
          <g
             id="id-40f630e2-23a4-4913-8a2b-51b4368edc78" />
          <g
             id="id-2a738e59-0ad8-4eb1-9ff0-b07abe151707">
            <path
               d="m 4.578125,-3.1875 c 0,-0.796875 -0.046875,-1.59375 -0.390625,-2.328125 -0.453125,-0.96875 -1.28125,-1.125 -1.6875,-1.125 -0.609375,0 -1.328125,0.265625 -1.75,1.1875 -0.3125,0.6875 -0.359375,1.46875 -0.359375,2.265625 0,0.75 0.03125,1.640625 0.453125,2.40625 0.421875,0.796875 1.15625,1 1.640625,1 0.53125,0 1.296875,-0.203125 1.734375,-1.15625 0.3125,-0.6875 0.359375,-1.46875 0.359375,-2.25 z M 2.484375,0 C 2.09375,0 1.5,-0.25 1.328125,-1.203125 1.21875,-1.796875 1.21875,-2.71875 1.21875,-3.3125 c 0,-0.640625 0,-1.296875 0.078125,-1.828125 0.1875,-1.1875 0.9375,-1.28125 1.1875,-1.28125 0.328125,0 0.984375,0.1875 1.171875,1.171875 0.109375,0.5625 0.109375,1.3125 0.109375,1.9375 0,0.75 0,1.421875 -0.109375,2.0625 C 3.5,-0.296875 2.9375,0 2.484375,0 Z m 0,0"
               id="id-69372a60-8f73-476f-8285-411c6d66508e" />
          </g>
        </g>
      </defs>
      <g
         fill="#000000"
         fill-opacity="1"
         id="id-a402184c-2ae2-4bd8-bf7f-321c92f629aa"
         transform="translate(-149.103,-128.124)">
        <g
           transform="translate(148.712,134.765)"
           id="g4346">
          <path
             d="m 4.578125,-3.1875 c 0,-0.796875 -0.046875,-1.59375 -0.390625,-2.328125 -0.453125,-0.96875 -1.28125,-1.125 -1.6875,-1.125 -0.609375,0 -1.328125,0.265625 -1.75,1.1875 -0.3125,0.6875 -0.359375,1.46875 -0.359375,2.265625 0,0.75 0.03125,1.640625 0.453125,2.40625 0.421875,0.796875 1.15625,1 1.640625,1 0.53125,0 1.296875,-0.203125 1.734375,-1.15625 0.3125,-0.6875 0.359375,-1.46875 0.359375,-2.25 z M 2.484375,0 C 2.09375,0 1.5,-0.25 1.328125,-1.203125 1.21875,-1.796875 1.21875,-2.71875 1.21875,-3.3125 c 0,-0.640625 0,-1.296875 0.078125,-1.828125 0.1875,-1.1875 0.9375,-1.28125 1.1875,-1.28125 0.328125,0 0.984375,0.1875 1.171875,1.171875 0.109375,0.5625 0.109375,1.3125 0.109375,1.9375 0,0.75 0,1.421875 -0.109375,2.0625 C 3.5,-0.296875 2.9375,0 2.484375,0 Z m 0,0"
             id="id-123c183e-be00-430c-8616-e27d1e618613" />
        </g>
      </g>
    </g>
  </g>
</svg>
