<?xml version="1.0" encoding="UTF-8" standalone="no"?>
<svg
   xmlns:dc="http://purl.org/dc/elements/1.1/"
   xmlns:cc="http://creativecommons.org/ns#"
   xmlns:rdf="http://www.w3.org/1999/02/22-rdf-syntax-ns#"
   xmlns:svg="http://www.w3.org/2000/svg"
   xmlns="http://www.w3.org/2000/svg"
   xmlns:xlink="http://www.w3.org/1999/xlink"
   xmlns:sodipodi="http://sodipodi.sourceforge.net/DTD/sodipodi-0.dtd"
   xmlns:inkscape="http://www.inkscape.org/namespaces/inkscape"
   inkscape:version="1.0 (4035a4fb49, 2020-05-01)"
   sodipodi:docname="phase diagram.svg"
   width="210mm"
   height="297mm"
   viewBox="0 0 210 297"
   version="1.1"
   id="svg68202">
  <defs
     id="defs68196">
    <marker
       inkscape:stockid="Arrow1Lstart"
       orient="auto"
       refY="0.0"
       refX="0.0"
       id="marker3451"
       style="overflow:visible"
       inkscape:isstock="true">
      <path
         id="path3449"
         d="M 0.0,0.0 L 5.0,-5.0 L -12.5,0.0 L 5.0,5.0 L 0.0,0.0 z "
         style="fill-rule:evenodd;stroke:#000000;stroke-width:1pt;stroke-opacity:1;fill:#000000;fill-opacity:1"
         transform="scale(0.8) translate(12.5,0)" />
    </marker>
    <marker
       inkscape:collect="always"
       inkscape:isstock="true"
       style="overflow:visible"
       id="marker3393"
       refX="0.0"
       refY="0.0"
       orient="auto"
       inkscape:stockid="Arrow1Lstart">
      <path
         transform="scale(0.8) translate(12.5,0)"
         style="fill-rule:evenodd;stroke:#000000;stroke-width:1pt;stroke-opacity:1;fill:#000000;fill-opacity:1"
         d="M 0.0,0.0 L 5.0,-5.0 L -12.5,0.0 L 5.0,5.0 L 0.0,0.0 z "
         id="path3391" />
    </marker>
    <marker
       inkscape:collect="always"
       inkscape:stockid="Arrow1Lstart"
       orient="auto"
       refY="0.0"
       refX="0.0"
       id="marker68992"
       style="overflow:visible"
       inkscape:isstock="true">
      <path
         id="path68990"
         d="M 0.0,0.0 L 5.0,-5.0 L -12.5,0.0 L 5.0,5.0 L 0.0,0.0 z "
         style="fill-rule:evenodd;stroke:#000000;stroke-width:1pt;stroke-opacity:1;fill:#000000;fill-opacity:1"
         transform="scale(0.8) translate(12.5,0)" />
    </marker>
    <marker
       inkscape:collect="always"
       inkscape:isstock="true"
       style="overflow:visible"
       id="Arrow1Lstart"
       refX="0.0"
       refY="0.0"
       orient="auto"
       inkscape:stockid="Arrow1Lstart">
      <path
         transform="scale(0.8) translate(12.5,0)"
         style="fill-rule:evenodd;stroke:#000000;stroke-width:1pt;stroke-opacity:1;fill:#000000;fill-opacity:1"
         d="M 0.0,0.0 L 5.0,-5.0 L -12.5,0.0 L 5.0,5.0 L 0.0,0.0 z "
         id="path3632" />
    </marker>
    <marker
       inkscape:isstock="true"
       style="overflow:visible;"
       id="Arrow1Lend"
       refX="0.0"
       refY="0.0"
       orient="auto"
       inkscape:stockid="Arrow1Lend">
      <path
         transform="scale(0.8) rotate(180) translate(12.5,0)"
         style="fill-rule:evenodd;stroke:#000000;stroke-width:1pt;stroke-opacity:1;fill:#000000;fill-opacity:1"
         d="M 0.0,0.0 L 5.0,-5.0 L -12.5,0.0 L 5.0,5.0 L 0.0,0.0 z "
         id="path3635" />
    </marker>
    <g
       id="g2724">
      <symbol
         id="symbol4666"
         overflow="visible">
        <path
           id="path5622"
           d=""
           style="stroke:none;" />
      </symbol>
      <symbol
         id="symbol3380"
         overflow="visible">
        <path
           id="path4324"
           d="M 0.328125 1.71875 C 0.296875 1.84375 0.296875 1.859375 0.296875 1.890625 C 0.296875 2.03125 0.40625 2.15625 0.578125 2.15625 C 0.78125 2.15625 0.90625 1.96875 0.921875 1.9375 C 0.984375 1.859375 1.296875 0.515625 1.5625 -0.5625 C 1.765625 -0.15625 2.078125 0.109375 2.546875 0.109375 C 3.71875 0.109375 5 -1.296875 5 -2.78125 C 5 -3.84375 4.34375 -4.40625 3.625 -4.40625 C 2.65625 -4.40625 1.609375 -3.40625 1.3125 -2.1875 Z M 2.546875 -0.109375 C 1.84375 -0.109375 1.6875 -0.90625 1.6875 -1 C 1.6875 -1.03125 1.734375 -1.234375 1.765625 -1.359375 C 2.046875 -2.484375 2.140625 -2.84375 2.359375 -3.234375 C 2.796875 -3.96875 3.296875 -4.1875 3.59375 -4.1875 C 3.96875 -4.1875 4.28125 -3.890625 4.28125 -3.203125 C 4.28125 -2.65625 4 -1.546875 3.734375 -1.0625 C 3.40625 -0.421875 2.921875 -0.109375 2.546875 -0.109375 Z M 2.546875 -0.109375 "
           style="stroke:none;" />
      </symbol>
      <symbol
         id="symbol1132"
         overflow="visible">
        <path
           id="path1353"
           d=""
           style="stroke:none;" />
      </symbol>
      <symbol
         id="symbol2734"
         overflow="visible">
        <path
           id="path1693"
           d="M 6.84375 -3.265625 C 7 -3.265625 7.1875 -3.265625 7.1875 -3.453125 C 7.1875 -3.65625 7 -3.65625 6.859375 -3.65625 L 0.890625 -3.65625 C 0.75 -3.65625 0.5625 -3.65625 0.5625 -3.453125 C 0.5625 -3.265625 0.75 -3.265625 0.890625 -3.265625 Z M 6.859375 -1.328125 C 7 -1.328125 7.1875 -1.328125 7.1875 -1.53125 C 7.1875 -1.71875 7 -1.71875 6.84375 -1.71875 L 0.890625 -1.71875 C 0.75 -1.71875 0.5625 -1.71875 0.5625 -1.53125 C 0.5625 -1.328125 0.75 -1.328125 0.890625 -1.328125 Z M 6.859375 -1.328125 "
           style="stroke:none;" />
      </symbol>
      <symbol
         id="symbol9431"
         overflow="visible">
        <path
           id="path3154"
           d="M 2.9375 -6.375 C 2.9375 -6.625 2.9375 -6.640625 2.703125 -6.640625 C 2.078125 -6 1.203125 -6 0.890625 -6 L 0.890625 -5.6875 C 1.09375 -5.6875 1.671875 -5.6875 2.1875 -5.953125 L 2.1875 -0.78125 C 2.1875 -0.421875 2.15625 -0.3125 1.265625 -0.3125 L 0.953125 -0.3125 L 0.953125 0 C 1.296875 -0.03125 2.15625 -0.03125 2.5625 -0.03125 C 2.953125 -0.03125 3.828125 -0.03125 4.171875 0 L 4.171875 -0.3125 L 3.859375 -0.3125 C 2.953125 -0.3125 2.9375 -0.421875 2.9375 -0.78125 Z M 2.9375 -6.375 "
           style="stroke:none;" />
      </symbol>
      <symbol
         id="symbol4817"
         overflow="visible">
        <path
           id="path4406"
           d="M 4.078125 -2.296875 L 6.859375 -2.296875 C 7 -2.296875 7.1875 -2.296875 7.1875 -2.5 C 7.1875 -2.6875 7 -2.6875 6.859375 -2.6875 L 4.078125 -2.6875 L 4.078125 -5.484375 C 4.078125 -5.625 4.078125 -5.8125 3.875 -5.8125 C 3.671875 -5.8125 3.671875 -5.625 3.671875 -5.484375 L 3.671875 -2.6875 L 0.890625 -2.6875 C 0.75 -2.6875 0.5625 -2.6875 0.5625 -2.5 C 0.5625 -2.296875 0.75 -2.296875 0.890625 -2.296875 L 3.671875 -2.296875 L 3.671875 0.5 C 3.671875 0.640625 3.671875 0.828125 3.875 0.828125 C 4.078125 0.828125 4.078125 0.640625 4.078125 0.5 Z M 4.078125 -2.296875 "
           style="stroke:none;" />
      </symbol>
      <symbol
         id="symbol1837"
         overflow="visible">
        <path
           id="path8735"
           d=""
           style="stroke:none;" />
      </symbol>
      <symbol
         id="symbol7094"
         overflow="visible">
        <path
           id="path7795"
           d="M 2.328125 -4.4375 C 2.328125 -4.625 2.328125 -4.625 2.125 -4.625 C 1.671875 -4.1875 1.046875 -4.1875 0.765625 -4.1875 L 0.765625 -3.9375 C 0.921875 -3.9375 1.390625 -3.9375 1.765625 -4.125 L 1.765625 -0.578125 C 1.765625 -0.34375 1.765625 -0.25 1.078125 -0.25 L 0.8125 -0.25 L 0.8125 0 C 0.9375 0 1.796875 -0.03125 2.046875 -0.03125 C 2.265625 -0.03125 3.140625 0 3.296875 0 L 3.296875 -0.25 L 3.03125 -0.25 C 2.328125 -0.25 2.328125 -0.34375 2.328125 -0.578125 Z M 2.328125 -4.4375 "
           style="stroke:none;" />
      </symbol>
      <symbol
         id="symbol5591"
         overflow="visible">
        <path
           id="path4061"
           d="M 3.515625 -1.265625 L 3.28125 -1.265625 C 3.265625 -1.109375 3.1875 -0.703125 3.09375 -0.640625 C 3.046875 -0.59375 2.515625 -0.59375 2.40625 -0.59375 L 1.125 -0.59375 C 1.859375 -1.234375 2.109375 -1.4375 2.515625 -1.765625 C 3.03125 -2.171875 3.515625 -2.609375 3.515625 -3.265625 C 3.515625 -4.109375 2.78125 -4.625 1.890625 -4.625 C 1.03125 -4.625 0.4375 -4.015625 0.4375 -3.375 C 0.4375 -3.03125 0.734375 -2.984375 0.8125 -2.984375 C 0.96875 -2.984375 1.171875 -3.109375 1.171875 -3.359375 C 1.171875 -3.484375 1.125 -3.734375 0.765625 -3.734375 C 0.984375 -4.21875 1.453125 -4.375 1.78125 -4.375 C 2.484375 -4.375 2.84375 -3.828125 2.84375 -3.265625 C 2.84375 -2.65625 2.40625 -2.1875 2.1875 -1.9375 L 0.515625 -0.265625 C 0.4375 -0.203125 0.4375 -0.1875 0.4375 0 L 3.3125 0 Z M 3.515625 -1.265625 "
           style="stroke:none;" />
      </symbol>
      <symbol
         id="symbol6396"
         overflow="visible">
        <path
           id="path3288"
           d=""
           style="stroke:none;" />
      </symbol>
      <symbol
         id="symbol8102"
         overflow="visible">
        <path
           id="path960"
           d="M 4.109375 11.453125 C 4.109375 11.421875 4.09375 11.390625 4.078125 11.359375 C 3.625 10.875 2.9375 10.0625 2.515625 8.4375 C 2.296875 7.53125 2.203125 6.515625 2.203125 5.578125 C 2.203125 2.953125 2.828125 1.125 4.03125 -0.171875 C 4.109375 -0.265625 4.109375 -0.28125 4.109375 -0.296875 C 4.109375 -0.40625 4.03125 -0.40625 4 -0.40625 C 3.84375 -0.40625 3.3125 0.203125 3.1875 0.34375 C 2.15625 1.5625 1.515625 3.34375 1.515625 5.578125 C 1.515625 6.984375 1.765625 8.984375 3.078125 10.671875 C 3.171875 10.796875 3.8125 11.546875 4 11.546875 C 4.03125 11.546875 4.109375 11.546875 4.109375 11.453125 Z M 4.109375 11.453125 "
           style="stroke:none;" />
      </symbol>
      <symbol
         id="symbol4840"
         overflow="visible">
        <path
           id="path4607"
           d="M 3.046875 5.578125 C 3.046875 4.171875 2.796875 2.15625 1.484375 0.484375 C 1.390625 0.359375 0.734375 -0.40625 0.5625 -0.40625 C 0.515625 -0.40625 0.4375 -0.375 0.4375 -0.296875 C 0.4375 -0.265625 0.453125 -0.234375 0.5 -0.203125 C 0.984375 0.3125 1.625 1.125 2.03125 2.71875 C 2.265625 3.625 2.359375 4.640625 2.359375 5.578125 C 2.359375 6.578125 2.265625 7.59375 2 8.578125 C 1.625 9.96875 1.03125 10.765625 0.53125 11.328125 C 0.4375 11.421875 0.4375 11.4375 0.4375 11.453125 C 0.4375 11.53125 0.515625 11.546875 0.5625 11.546875 C 0.703125 11.546875 1.25 10.953125 1.375 10.8125 C 2.390625 9.59375 3.046875 7.8125 3.046875 5.578125 Z M 3.046875 5.578125 "
           style="stroke:none;" />
      </symbol>
      <symbol
         id="symbol8187"
         overflow="visible">
        <path
           id="path6428"
           d=""
           style="stroke:none;" />
      </symbol>
      <symbol
         id="symbol5513"
         overflow="visible">
        <path
           id="path4843"
           d="M 2.0625 -3.03125 C 1.015625 -2.765625 0.421875 -1.875 0.421875 -1.140625 C 0.421875 -0.390625 0.984375 0.078125 1.671875 0.078125 C 2.515625 0.078125 3.171875 -0.90625 3.171875 -1.921875 C 3.171875 -2.59375 2.8125 -3 2.59375 -3.234375 C 2.34375 -3.53125 1.8125 -4.09375 1.8125 -4.421875 C 1.8125 -4.515625 1.921875 -4.703125 2.203125 -4.703125 C 2.4375 -4.703125 2.640625 -4.59375 2.78125 -4.515625 C 2.84375 -4.484375 3.09375 -4.328125 3.203125 -4.328125 C 3.375 -4.328125 3.5 -4.484375 3.5 -4.625 C 3.5 -4.796875 3.40625 -4.8125 3.03125 -4.890625 C 2.953125 -4.90625 2.625 -4.96875 2.40625 -4.96875 C 1.875 -4.96875 1.59375 -4.671875 1.59375 -4.25 C 1.59375 -3.875 1.8125 -3.453125 2.0625 -3.03125 Z M 2.171875 -2.84375 C 2.375 -2.53125 2.625 -2.125 2.625 -1.625 C 2.625 -1.046875 2.28125 -0.109375 1.6875 -0.109375 C 1.3125 -0.109375 0.9375 -0.359375 0.9375 -0.9375 C 0.9375 -1.40625 1.203125 -2.609375 2.171875 -2.84375 Z M 2.171875 -2.84375 "
           style="stroke:none;" />
      </symbol>
      <symbol
         id="symbol6558"
         overflow="visible">
        <path
           id="path348"
           d="M 4.984375 -3.9375 C 5.234375 -4.3125 5.46875 -4.484375 5.84375 -4.515625 C 5.921875 -4.515625 6 -4.515625 6 -4.65625 C 6 -4.6875 5.984375 -4.765625 5.90625 -4.765625 C 5.734375 -4.765625 5.515625 -4.734375 5.34375 -4.734375 C 5.125 -4.734375 4.828125 -4.765625 4.625 -4.765625 C 4.5625 -4.765625 4.484375 -4.734375 4.484375 -4.609375 C 4.484375 -4.515625 4.578125 -4.515625 4.609375 -4.515625 C 4.828125 -4.5 4.890625 -4.40625 4.890625 -4.3125 C 4.890625 -4.203125 4.84375 -4.140625 4.765625 -4.03125 L 2.484375 -0.65625 L 1.84375 -4.21875 C 1.828125 -4.28125 1.828125 -4.296875 1.828125 -4.328125 C 1.828125 -4.515625 2.21875 -4.515625 2.265625 -4.515625 C 2.390625 -4.515625 2.484375 -4.515625 2.484375 -4.65625 C 2.484375 -4.671875 2.46875 -4.765625 2.359375 -4.765625 C 2.15625 -4.765625 1.671875 -4.734375 1.46875 -4.734375 C 1.296875 -4.734375 0.859375 -4.765625 0.6875 -4.765625 C 0.625 -4.765625 0.546875 -4.734375 0.546875 -4.609375 C 0.546875 -4.515625 0.640625 -4.515625 0.71875 -4.515625 C 1.109375 -4.515625 1.125 -4.46875 1.15625 -4.28125 L 1.921875 -0.046875 C 1.9375 0.09375 1.953125 0.140625 2.078125 0.140625 C 2.21875 0.140625 2.25 0.09375 2.328125 -0.015625 Z M 4.984375 -3.9375 "
           style="stroke:none;" />
      </symbol>
    </g>
    <g
       id="g5185">
      <symbol
         id="symbol3447"
         overflow="visible">
        <path
           id="path7637"
           d=""
           style="stroke:none;" />
      </symbol>
      <symbol
         id="symbol4103"
         overflow="visible">
        <path
           id="path7039"
           d="M 3.484375 -0.5625 C 3.59375 -0.15625 3.953125 0.109375 4.375 0.109375 C 4.71875 0.109375 4.953125 -0.125 5.109375 -0.4375 C 5.28125 -0.796875 5.40625 -1.40625 5.40625 -1.421875 C 5.40625 -1.53125 5.328125 -1.53125 5.296875 -1.53125 C 5.1875 -1.53125 5.1875 -1.484375 5.15625 -1.34375 C 5.015625 -0.78125 4.828125 -0.109375 4.40625 -0.109375 C 4.203125 -0.109375 4.09375 -0.234375 4.09375 -0.5625 C 4.09375 -0.78125 4.21875 -1.25 4.296875 -1.609375 L 4.578125 -2.6875 C 4.609375 -2.828125 4.703125 -3.203125 4.75 -3.359375 C 4.796875 -3.59375 4.890625 -3.96875 4.890625 -4.03125 C 4.890625 -4.203125 4.75 -4.296875 4.609375 -4.296875 C 4.5625 -4.296875 4.296875 -4.28125 4.21875 -3.953125 C 4.03125 -3.21875 3.59375 -1.46875 3.46875 -0.953125 C 3.453125 -0.90625 3.0625 -0.109375 2.328125 -0.109375 C 1.8125 -0.109375 1.71875 -0.5625 1.71875 -0.921875 C 1.71875 -1.484375 2 -2.265625 2.25 -2.953125 C 2.375 -3.265625 2.421875 -3.40625 2.421875 -3.59375 C 2.421875 -4.03125 2.109375 -4.40625 1.609375 -4.40625 C 0.65625 -4.40625 0.296875 -2.953125 0.296875 -2.875 C 0.296875 -2.765625 0.390625 -2.765625 0.40625 -2.765625 C 0.515625 -2.765625 0.515625 -2.796875 0.5625 -2.953125 C 0.8125 -3.8125 1.203125 -4.1875 1.578125 -4.1875 C 1.671875 -4.1875 1.828125 -4.171875 1.828125 -3.859375 C 1.828125 -3.625 1.71875 -3.328125 1.65625 -3.1875 C 1.28125 -2.1875 1.078125 -1.578125 1.078125 -1.09375 C 1.078125 -0.140625 1.765625 0.109375 2.296875 0.109375 C 2.953125 0.109375 3.3125 -0.34375 3.484375 -0.5625 Z M 3.484375 -0.5625 "
           style="stroke:none;" />
      </symbol>
      <symbol
         id="symbol8967"
         overflow="visible">
        <path
           id="path8346"
           d="M 0.328125 1.71875 C 0.296875 1.84375 0.296875 1.859375 0.296875 1.890625 C 0.296875 2.03125 0.40625 2.15625 0.578125 2.15625 C 0.78125 2.15625 0.90625 1.96875 0.921875 1.9375 C 0.984375 1.859375 1.296875 0.515625 1.5625 -0.5625 C 1.765625 -0.15625 2.078125 0.109375 2.546875 0.109375 C 3.71875 0.109375 5 -1.296875 5 -2.78125 C 5 -3.84375 4.34375 -4.40625 3.625 -4.40625 C 2.65625 -4.40625 1.609375 -3.40625 1.3125 -2.1875 Z M 2.546875 -0.109375 C 1.84375 -0.109375 1.6875 -0.90625 1.6875 -1 C 1.6875 -1.03125 1.734375 -1.234375 1.765625 -1.359375 C 2.046875 -2.484375 2.140625 -2.84375 2.359375 -3.234375 C 2.796875 -3.96875 3.296875 -4.1875 3.59375 -4.1875 C 3.96875 -4.1875 4.28125 -3.890625 4.28125 -3.203125 C 4.28125 -2.65625 4 -1.546875 3.734375 -1.0625 C 3.40625 -0.421875 2.921875 -0.109375 2.546875 -0.109375 Z M 2.546875 -0.109375 "
           style="stroke:none;" />
      </symbol>
      <symbol
         id="symbol7376"
         overflow="visible">
        <path
           id="path4610"
           d=""
           style="stroke:none;" />
      </symbol>
      <symbol
         id="symbol6127"
         overflow="visible">
        <path
           id="path1651"
           d="M 6.84375 -3.265625 C 7 -3.265625 7.1875 -3.265625 7.1875 -3.453125 C 7.1875 -3.65625 7 -3.65625 6.859375 -3.65625 L 0.890625 -3.65625 C 0.75 -3.65625 0.5625 -3.65625 0.5625 -3.453125 C 0.5625 -3.265625 0.75 -3.265625 0.890625 -3.265625 Z M 6.859375 -1.328125 C 7 -1.328125 7.1875 -1.328125 7.1875 -1.53125 C 7.1875 -1.71875 7 -1.71875 6.84375 -1.71875 L 0.890625 -1.71875 C 0.75 -1.71875 0.5625 -1.71875 0.5625 -1.53125 C 0.5625 -1.328125 0.75 -1.328125 0.890625 -1.328125 Z M 6.859375 -1.328125 "
           style="stroke:none;" />
      </symbol>
      <symbol
         id="symbol58"
         overflow="visible">
        <path
           id="path1931"
           d="M 2.9375 -6.375 C 2.9375 -6.625 2.9375 -6.640625 2.703125 -6.640625 C 2.078125 -6 1.203125 -6 0.890625 -6 L 0.890625 -5.6875 C 1.09375 -5.6875 1.671875 -5.6875 2.1875 -5.953125 L 2.1875 -0.78125 C 2.1875 -0.421875 2.15625 -0.3125 1.265625 -0.3125 L 0.953125 -0.3125 L 0.953125 0 C 1.296875 -0.03125 2.15625 -0.03125 2.5625 -0.03125 C 2.953125 -0.03125 3.828125 -0.03125 4.171875 0 L 4.171875 -0.3125 L 3.859375 -0.3125 C 2.953125 -0.3125 2.9375 -0.421875 2.9375 -0.78125 Z M 2.9375 -6.375 "
           style="stroke:none;" />
      </symbol>
      <symbol
         id="symbol7810"
         overflow="visible">
        <path
           id="path6475"
           d="M 4.078125 -2.296875 L 6.859375 -2.296875 C 7 -2.296875 7.1875 -2.296875 7.1875 -2.5 C 7.1875 -2.6875 7 -2.6875 6.859375 -2.6875 L 4.078125 -2.6875 L 4.078125 -5.484375 C 4.078125 -5.625 4.078125 -5.8125 3.875 -5.8125 C 3.671875 -5.8125 3.671875 -5.625 3.671875 -5.484375 L 3.671875 -2.6875 L 0.890625 -2.6875 C 0.75 -2.6875 0.5625 -2.6875 0.5625 -2.5 C 0.5625 -2.296875 0.75 -2.296875 0.890625 -2.296875 L 3.671875 -2.296875 L 3.671875 0.5 C 3.671875 0.640625 3.671875 0.828125 3.875 0.828125 C 4.078125 0.828125 4.078125 0.640625 4.078125 0.5 Z M 4.078125 -2.296875 "
           style="stroke:none;" />
      </symbol>
      <symbol
         id="symbol7630"
         overflow="visible">
        <path
           id="path7399"
           d=""
           style="stroke:none;" />
      </symbol>
      <symbol
         id="symbol7933"
         overflow="visible">
        <path
           id="path7299"
           d="M 2.328125 -4.4375 C 2.328125 -4.625 2.328125 -4.625 2.125 -4.625 C 1.671875 -4.1875 1.046875 -4.1875 0.765625 -4.1875 L 0.765625 -3.9375 C 0.921875 -3.9375 1.390625 -3.9375 1.765625 -4.125 L 1.765625 -0.578125 C 1.765625 -0.34375 1.765625 -0.25 1.078125 -0.25 L 0.8125 -0.25 L 0.8125 0 C 0.9375 0 1.796875 -0.03125 2.046875 -0.03125 C 2.265625 -0.03125 3.140625 0 3.296875 0 L 3.296875 -0.25 L 3.03125 -0.25 C 2.328125 -0.25 2.328125 -0.34375 2.328125 -0.578125 Z M 2.328125 -4.4375 "
           style="stroke:none;" />
      </symbol>
      <symbol
         id="symbol1897"
         overflow="visible">
        <path
           id="path1451"
           d="M 3.515625 -1.265625 L 3.28125 -1.265625 C 3.265625 -1.109375 3.1875 -0.703125 3.09375 -0.640625 C 3.046875 -0.59375 2.515625 -0.59375 2.40625 -0.59375 L 1.125 -0.59375 C 1.859375 -1.234375 2.109375 -1.4375 2.515625 -1.765625 C 3.03125 -2.171875 3.515625 -2.609375 3.515625 -3.265625 C 3.515625 -4.109375 2.78125 -4.625 1.890625 -4.625 C 1.03125 -4.625 0.4375 -4.015625 0.4375 -3.375 C 0.4375 -3.03125 0.734375 -2.984375 0.8125 -2.984375 C 0.96875 -2.984375 1.171875 -3.109375 1.171875 -3.359375 C 1.171875 -3.484375 1.125 -3.734375 0.765625 -3.734375 C 0.984375 -4.21875 1.453125 -4.375 1.78125 -4.375 C 2.484375 -4.375 2.84375 -3.828125 2.84375 -3.265625 C 2.84375 -2.65625 2.40625 -2.1875 2.1875 -1.9375 L 0.515625 -0.265625 C 0.4375 -0.203125 0.4375 -0.1875 0.4375 0 L 3.3125 0 Z M 3.515625 -1.265625 "
           style="stroke:none;" />
      </symbol>
      <symbol
         id="symbol2036"
         overflow="visible">
        <path
           id="path3519"
           d=""
           style="stroke:none;" />
      </symbol>
      <symbol
         id="symbol6891"
         overflow="visible">
        <path
           id="path3315"
           d="M 4.109375 11.453125 C 4.109375 11.421875 4.09375 11.390625 4.078125 11.359375 C 3.625 10.875 2.9375 10.0625 2.515625 8.4375 C 2.296875 7.53125 2.203125 6.515625 2.203125 5.578125 C 2.203125 2.953125 2.828125 1.125 4.03125 -0.171875 C 4.109375 -0.265625 4.109375 -0.28125 4.109375 -0.296875 C 4.109375 -0.40625 4.03125 -0.40625 4 -0.40625 C 3.84375 -0.40625 3.3125 0.203125 3.1875 0.34375 C 2.15625 1.5625 1.515625 3.34375 1.515625 5.578125 C 1.515625 6.984375 1.765625 8.984375 3.078125 10.671875 C 3.171875 10.796875 3.8125 11.546875 4 11.546875 C 4.03125 11.546875 4.109375 11.546875 4.109375 11.453125 Z M 4.109375 11.453125 "
           style="stroke:none;" />
      </symbol>
      <symbol
         id="symbol6006"
         overflow="visible">
        <path
           id="path4234"
           d="M 3.046875 5.578125 C 3.046875 4.171875 2.796875 2.15625 1.484375 0.484375 C 1.390625 0.359375 0.734375 -0.40625 0.5625 -0.40625 C 0.515625 -0.40625 0.4375 -0.375 0.4375 -0.296875 C 0.4375 -0.265625 0.453125 -0.234375 0.5 -0.203125 C 0.984375 0.3125 1.625 1.125 2.03125 2.71875 C 2.265625 3.625 2.359375 4.640625 2.359375 5.578125 C 2.359375 6.578125 2.265625 7.59375 2 8.578125 C 1.625 9.96875 1.03125 10.765625 0.53125 11.328125 C 0.4375 11.421875 0.4375 11.4375 0.4375 11.453125 C 0.4375 11.53125 0.515625 11.546875 0.5625 11.546875 C 0.703125 11.546875 1.25 10.953125 1.375 10.8125 C 2.390625 9.59375 3.046875 7.8125 3.046875 5.578125 Z M 3.046875 5.578125 "
           style="stroke:none;" />
      </symbol>
      <symbol
         id="symbol9210"
         overflow="visible">
        <path
           id="path6893"
           d=""
           style="stroke:none;" />
      </symbol>
      <symbol
         id="symbol6161"
         overflow="visible">
        <path
           id="path3642"
           d="M 2.0625 -3.03125 C 1.015625 -2.765625 0.421875 -1.875 0.421875 -1.140625 C 0.421875 -0.390625 0.984375 0.078125 1.671875 0.078125 C 2.515625 0.078125 3.171875 -0.90625 3.171875 -1.921875 C 3.171875 -2.59375 2.8125 -3 2.59375 -3.234375 C 2.34375 -3.53125 1.8125 -4.09375 1.8125 -4.421875 C 1.8125 -4.515625 1.921875 -4.703125 2.203125 -4.703125 C 2.4375 -4.703125 2.640625 -4.59375 2.78125 -4.515625 C 2.84375 -4.484375 3.09375 -4.328125 3.203125 -4.328125 C 3.375 -4.328125 3.5 -4.484375 3.5 -4.625 C 3.5 -4.796875 3.40625 -4.8125 3.03125 -4.890625 C 2.953125 -4.90625 2.625 -4.96875 2.40625 -4.96875 C 1.875 -4.96875 1.59375 -4.671875 1.59375 -4.25 C 1.59375 -3.875 1.8125 -3.453125 2.0625 -3.03125 Z M 2.171875 -2.84375 C 2.375 -2.53125 2.625 -2.125 2.625 -1.625 C 2.625 -1.046875 2.28125 -0.109375 1.6875 -0.109375 C 1.3125 -0.109375 0.9375 -0.359375 0.9375 -0.9375 C 0.9375 -1.40625 1.203125 -2.609375 2.171875 -2.84375 Z M 2.171875 -2.84375 "
           style="stroke:none;" />
      </symbol>
      <symbol
         id="symbol7450"
         overflow="visible">
        <path
           id="path307"
           d="M 4.984375 -3.9375 C 5.234375 -4.3125 5.46875 -4.484375 5.84375 -4.515625 C 5.921875 -4.515625 6 -4.515625 6 -4.65625 C 6 -4.6875 5.984375 -4.765625 5.90625 -4.765625 C 5.734375 -4.765625 5.515625 -4.734375 5.34375 -4.734375 C 5.125 -4.734375 4.828125 -4.765625 4.625 -4.765625 C 4.5625 -4.765625 4.484375 -4.734375 4.484375 -4.609375 C 4.484375 -4.515625 4.578125 -4.515625 4.609375 -4.515625 C 4.828125 -4.5 4.890625 -4.40625 4.890625 -4.3125 C 4.890625 -4.203125 4.84375 -4.140625 4.765625 -4.03125 L 2.484375 -0.65625 L 1.84375 -4.21875 C 1.828125 -4.28125 1.828125 -4.296875 1.828125 -4.328125 C 1.828125 -4.515625 2.21875 -4.515625 2.265625 -4.515625 C 2.390625 -4.515625 2.484375 -4.515625 2.484375 -4.65625 C 2.484375 -4.671875 2.46875 -4.765625 2.359375 -4.765625 C 2.15625 -4.765625 1.671875 -4.734375 1.46875 -4.734375 C 1.296875 -4.734375 0.859375 -4.765625 0.6875 -4.765625 C 0.625 -4.765625 0.546875 -4.734375 0.546875 -4.609375 C 0.546875 -4.515625 0.640625 -4.515625 0.71875 -4.515625 C 1.109375 -4.515625 1.125 -4.46875 1.15625 -4.28125 L 1.921875 -0.046875 C 1.9375 0.09375 1.953125 0.140625 2.078125 0.140625 C 2.21875 0.140625 2.25 0.09375 2.328125 -0.015625 Z M 4.984375 -3.9375 "
           style="stroke:none;" />
      </symbol>
    </g>
    <g
       id="g9887">
      <symbol
         id="symbol6202"
         overflow="visible">
        <path
           id="path5486"
           d=""
           style="stroke:none;" />
      </symbol>
      <symbol
         id="symbol1532"
         overflow="visible">
        <path
           id="path1563"
           d="M 2.953125 -1.125 C 2.90625 -0.984375 2.84375 -0.71875 2.84375 -0.71875 C 2.703125 -0.5 2.421875 -0.125 2 -0.125 C 1.515625 -0.125 1.515625 -0.578125 1.515625 -0.703125 C 1.515625 -1.109375 1.703125 -1.609375 1.90625 -2.125 C 1.953125 -2.265625 2 -2.359375 2 -2.46875 C 2 -2.84375 1.6875 -3.078125 1.34375 -3.078125 C 0.640625 -3.078125 0.328125 -2.125 0.328125 -2 C 0.328125 -1.921875 0.421875 -1.921875 0.453125 -1.921875 C 0.546875 -1.921875 0.546875 -1.953125 0.578125 -2.03125 C 0.734375 -2.59375 1.046875 -2.875 1.3125 -2.875 C 1.4375 -2.875 1.484375 -2.796875 1.484375 -2.640625 C 1.484375 -2.46875 1.4375 -2.328125 1.359375 -2.171875 C 0.984375 -1.203125 0.984375 -1 0.984375 -0.8125 C 0.984375 -0.703125 0.984375 -0.375 1.25 -0.15625 C 1.453125 0.015625 1.71875 0.0625 1.96875 0.0625 C 2.40625 0.0625 2.640625 -0.171875 2.875 -0.390625 C 3.03125 0.0625 3.484375 0.0625 3.578125 0.0625 C 3.8125 0.0625 4 -0.0625 4.125 -0.296875 C 4.28125 -0.578125 4.375 -0.96875 4.375 -1 C 4.375 -1.09375 4.28125 -1.09375 4.265625 -1.09375 C 4.15625 -1.09375 4.15625 -1.0625 4.109375 -0.875 C 4.015625 -0.546875 3.890625 -0.125 3.59375 -0.125 C 3.421875 -0.125 3.359375 -0.28125 3.359375 -0.46875 C 3.359375 -0.578125 3.421875 -0.84375 3.46875 -1.015625 C 3.515625 -1.203125 3.59375 -1.484375 3.625 -1.640625 L 3.78125 -2.265625 C 3.828125 -2.4375 3.90625 -2.75 3.90625 -2.78125 C 3.90625 -2.921875 3.796875 -3 3.671875 -3 C 3.421875 -3 3.359375 -2.796875 3.3125 -2.578125 Z M 2.953125 -1.125 "
           style="stroke:none;" />
      </symbol>
      <symbol
         id="symbol9751"
         overflow="visible">
        <path
           id="path4279"
           d="M 4.15625 -4.21875 C 4.21875 -4.46875 4.234375 -4.515625 4.625 -4.515625 C 4.703125 -4.515625 4.796875 -4.515625 4.796875 -4.65625 C 4.796875 -4.734375 4.75 -4.765625 4.703125 -4.765625 C 4.53125 -4.765625 4.109375 -4.734375 3.9375 -4.734375 C 3.796875 -4.734375 3.5625 -4.734375 3.40625 -4.734375 C 3.234375 -4.75 3.03125 -4.765625 2.859375 -4.765625 C 2.8125 -4.765625 2.703125 -4.765625 2.703125 -4.609375 C 2.703125 -4.515625 2.765625 -4.515625 2.96875 -4.515625 C 3.140625 -4.515625 3.15625 -4.515625 3.34375 -4.5 C 3.546875 -4.46875 3.5625 -4.453125 3.5625 -4.375 C 3.5625 -4.328125 3.5625 -4.3125 3.53125 -4.203125 L 2.734375 -1.015625 C 2.59375 -0.5 2.15625 -0.0625 1.703125 -0.0625 C 1.609375 -0.0625 1.15625 -0.078125 1 -0.421875 C 1.40625 -0.421875 1.5 -0.75 1.5 -0.875 C 1.5 -1.0625 1.328125 -1.171875 1.171875 -1.171875 C 0.984375 -1.171875 0.703125 -1.015625 0.703125 -0.625 C 0.703125 -0.171875 1.140625 0.140625 1.71875 0.140625 C 2.40625 0.140625 3.171875 -0.296875 3.359375 -1 Z M 4.15625 -4.21875 "
           style="stroke:none;" />
      </symbol>
      <symbol
         id="symbol6003"
         overflow="visible">
        <path
           id="path4404"
           d="M 2.0625 -3.03125 C 1.015625 -2.765625 0.421875 -1.875 0.421875 -1.140625 C 0.421875 -0.390625 0.984375 0.078125 1.671875 0.078125 C 2.515625 0.078125 3.171875 -0.90625 3.171875 -1.921875 C 3.171875 -2.59375 2.8125 -3 2.59375 -3.234375 C 2.34375 -3.53125 1.8125 -4.09375 1.8125 -4.421875 C 1.8125 -4.515625 1.921875 -4.703125 2.203125 -4.703125 C 2.4375 -4.703125 2.640625 -4.59375 2.78125 -4.515625 C 2.84375 -4.484375 3.09375 -4.328125 3.203125 -4.328125 C 3.375 -4.328125 3.5 -4.484375 3.5 -4.625 C 3.5 -4.796875 3.40625 -4.8125 3.03125 -4.890625 C 2.953125 -4.90625 2.625 -4.96875 2.40625 -4.96875 C 1.875 -4.96875 1.59375 -4.671875 1.59375 -4.25 C 1.59375 -3.875 1.8125 -3.453125 2.0625 -3.03125 Z M 2.171875 -2.84375 C 2.375 -2.53125 2.625 -2.125 2.625 -1.625 C 2.625 -1.046875 2.28125 -0.109375 1.6875 -0.109375 C 1.3125 -0.109375 0.9375 -0.359375 0.9375 -0.9375 C 0.9375 -1.40625 1.203125 -2.609375 2.171875 -2.84375 Z M 2.171875 -2.84375 "
           style="stroke:none;" />
      </symbol>
      <symbol
         id="symbol3577"
         overflow="visible">
        <path
           id="path509"
           d="M 4.984375 -3.9375 C 5.234375 -4.3125 5.46875 -4.484375 5.84375 -4.515625 C 5.921875 -4.515625 6 -4.515625 6 -4.65625 C 6 -4.6875 5.984375 -4.765625 5.90625 -4.765625 C 5.734375 -4.765625 5.515625 -4.734375 5.34375 -4.734375 C 5.125 -4.734375 4.828125 -4.765625 4.625 -4.765625 C 4.5625 -4.765625 4.484375 -4.734375 4.484375 -4.609375 C 4.484375 -4.515625 4.578125 -4.515625 4.609375 -4.515625 C 4.828125 -4.5 4.890625 -4.40625 4.890625 -4.3125 C 4.890625 -4.203125 4.84375 -4.140625 4.765625 -4.03125 L 2.484375 -0.65625 L 1.84375 -4.21875 C 1.828125 -4.28125 1.828125 -4.296875 1.828125 -4.328125 C 1.828125 -4.515625 2.21875 -4.515625 2.265625 -4.515625 C 2.390625 -4.515625 2.484375 -4.515625 2.484375 -4.65625 C 2.484375 -4.671875 2.46875 -4.765625 2.359375 -4.765625 C 2.15625 -4.765625 1.671875 -4.734375 1.46875 -4.734375 C 1.296875 -4.734375 0.859375 -4.765625 0.6875 -4.765625 C 0.625 -4.765625 0.546875 -4.734375 0.546875 -4.609375 C 0.546875 -4.515625 0.640625 -4.515625 0.71875 -4.515625 C 1.109375 -4.515625 1.125 -4.46875 1.15625 -4.28125 L 1.921875 -0.046875 C 1.9375 0.09375 1.953125 0.140625 2.078125 0.140625 C 2.21875 0.140625 2.25 0.09375 2.328125 -0.015625 Z M 4.984375 -3.9375 "
           style="stroke:none;" />
      </symbol>
      <symbol
         id="symbol3672"
         overflow="visible">
        <path
           id="path499"
           d=""
           style="stroke:none;" />
      </symbol>
      <symbol
         id="symbol2190"
         overflow="visible">
        <path
           id="path5704"
           d="M 1.21875 -1.109375 C 1.21875 -1.578125 1.484375 -2.03125 1.953125 -2.03125 C 1.953125 -2.03125 1.890625 -1.96875 1.890625 -1.859375 C 1.890625 -1.6875 2.03125 -1.609375 2.140625 -1.609375 C 2.265625 -1.609375 2.390625 -1.6875 2.390625 -1.859375 C 2.390625 -2.046875 2.203125 -2.203125 1.9375 -2.203125 C 1.6875 -2.203125 1.375 -2.078125 1.1875 -1.65625 L 1.171875 -1.65625 L 1.171875 -2.203125 L 0.375 -2.140625 L 0.375 -1.921875 C 0.75 -1.921875 0.796875 -1.890625 0.796875 -1.65625 L 0.796875 -0.421875 C 0.796875 -0.265625 0.796875 -0.21875 0.46875 -0.21875 L 0.375 -0.21875 L 0.375 0 C 0.59375 -0.015625 0.8125 -0.015625 1.015625 -0.015625 C 1.28125 -0.015625 1.53125 -0.015625 1.734375 0 L 1.734375 -0.21875 L 1.59375 -0.21875 C 1.21875 -0.21875 1.21875 -0.265625 1.21875 -0.421875 Z M 1.21875 -1.109375 "
           style="stroke:none;" />
      </symbol>
      <symbol
         id="symbol6976"
         overflow="visible">
        <path
           id="path4648"
           d="M 1.265625 -3.078125 C 1.265625 -3.234375 1.125 -3.375 0.953125 -3.375 C 0.796875 -3.375 0.65625 -3.25 0.65625 -3.078125 C 0.65625 -2.890625 0.796875 -2.765625 0.953125 -2.765625 C 1.125 -2.765625 1.265625 -2.90625 1.265625 -3.078125 Z M 0.4375 -2.140625 L 0.4375 -1.921875 C 0.78125 -1.921875 0.828125 -1.890625 0.828125 -1.65625 L 0.828125 -0.421875 C 0.828125 -0.265625 0.828125 -0.21875 0.5 -0.21875 L 0.40625 -0.21875 L 0.40625 0 C 0.625 -0.015625 0.828125 -0.015625 1.03125 -0.015625 C 1.21875 -0.015625 1.4375 -0.015625 1.625 0 L 1.625 -0.21875 C 1.296875 -0.21875 1.25 -0.21875 1.25 -0.421875 L 1.25 -2.203125 Z M 0.4375 -2.140625 "
           style="stroke:none;" />
      </symbol>
      <symbol
         id="symbol9117"
         overflow="visible">
        <path
           id="path461"
           d="M 2.984375 -1.5 C 2.984375 -2.046875 2.609375 -2.203125 2.15625 -2.203125 C 1.625 -2.203125 1.34375 -1.90625 1.21875 -1.71875 L 1.21875 -2.203125 L 0.40625 -2.140625 L 0.40625 -1.921875 C 0.78125 -1.921875 0.828125 -1.890625 0.828125 -1.65625 L 0.828125 -0.421875 C 0.828125 -0.265625 0.828125 -0.21875 0.5 -0.21875 L 0.40625 -0.21875 L 0.40625 0 C 0.625 -0.015625 0.828125 -0.015625 1.046875 -0.015625 C 1.25 -0.015625 1.46875 -0.015625 1.6875 0 L 1.6875 -0.21875 L 1.59375 -0.21875 C 1.265625 -0.21875 1.265625 -0.265625 1.265625 -0.421875 L 1.265625 -1.28125 C 1.265625 -1.84375 1.78125 -2.03125 2.09375 -2.03125 C 2.46875 -2.03125 2.546875 -1.828125 2.546875 -1.515625 L 2.546875 -0.421875 C 2.546875 -0.265625 2.546875 -0.21875 2.21875 -0.21875 L 2.140625 -0.21875 L 2.140625 0 C 2.34375 -0.015625 2.5625 -0.015625 2.765625 -0.015625 C 2.984375 -0.015625 3.1875 -0.015625 3.40625 0 L 3.40625 -0.21875 L 3.3125 -0.21875 C 2.984375 -0.21875 2.984375 -0.265625 2.984375 -0.421875 Z M 2.984375 -1.5 "
           style="stroke:none;" />
      </symbol>
      <symbol
         id="symbol4708"
         overflow="visible">
        <path
           id="path9487"
           d="M 2.296875 -1.9375 C 2.53125 -2.078125 2.75 -2.09375 2.84375 -2.09375 C 2.828125 -2.078125 2.796875 -2.046875 2.796875 -1.96875 C 2.796875 -1.875 2.859375 -1.796875 2.984375 -1.796875 C 3.09375 -1.796875 3.171875 -1.875 3.171875 -1.96875 C 3.171875 -2.109375 3.0625 -2.265625 2.828125 -2.265625 C 2.703125 -2.265625 2.4375 -2.234375 2.171875 -2.03125 C 2.0625 -2.09375 1.828125 -2.203125 1.53125 -2.203125 C 0.9375 -2.203125 0.53125 -1.859375 0.53125 -1.46875 C 0.53125 -1.21875 0.71875 -1.03125 0.78125 -0.96875 C 0.671875 -0.828125 0.640625 -0.671875 0.640625 -0.5625 C 0.640625 -0.296875 0.8125 -0.140625 0.859375 -0.109375 C 0.609375 -0.046875 0.3125 0.125 0.3125 0.390625 C 0.3125 0.78125 0.96875 1.03125 1.6875 1.03125 C 2.359375 1.03125 3.078125 0.8125 3.078125 0.375 C 3.078125 0.15625 2.953125 -0.09375 2.703125 -0.203125 C 2.375 -0.375 2.046875 -0.375 1.515625 -0.375 C 1.390625 -0.375 1.171875 -0.375 1.140625 -0.375 C 0.90625 -0.40625 0.859375 -0.609375 0.859375 -0.703125 C 0.859375 -0.796875 0.90625 -0.875 0.921875 -0.875 C 0.921875 -0.875 0.9375 -0.875 0.953125 -0.875 C 1.15625 -0.765625 1.34375 -0.734375 1.515625 -0.734375 C 2.109375 -0.734375 2.515625 -1.09375 2.515625 -1.46875 C 2.515625 -1.703125 2.359375 -1.890625 2.296875 -1.9375 Z M 1.53125 -0.90625 C 1.09375 -0.90625 0.96875 -1.1875 0.96875 -1.46875 C 0.96875 -1.75 1.09375 -2.03125 1.515625 -2.03125 C 1.953125 -2.03125 2.078125 -1.75 2.078125 -1.46875 C 2.078125 -1.203125 1.953125 -0.90625 1.53125 -0.90625 Z M 1.53125 0.015625 C 2.03125 0.015625 2.734375 0.015625 2.734375 0.390625 C 2.734375 0.625 2.28125 0.859375 1.6875 0.859375 C 1.125 0.859375 0.65625 0.640625 0.65625 0.375 C 0.65625 0.21875 0.828125 0.015625 1.203125 0.015625 Z M 1.53125 0.015625 "
           style="stroke:none;" />
      </symbol>
      <symbol
         id="symbol8724"
         overflow="visible">
        <path
           id="path7589"
           d=""
           style="stroke:none;" />
      </symbol>
      <symbol
         id="symbol1980"
         overflow="visible">
        <path
           id="path1309"
           d="M 0.328125 1.71875 C 0.296875 1.84375 0.296875 1.859375 0.296875 1.890625 C 0.296875 2.03125 0.40625 2.15625 0.578125 2.15625 C 0.78125 2.15625 0.90625 1.96875 0.921875 1.9375 C 0.984375 1.859375 1.296875 0.515625 1.5625 -0.5625 C 1.765625 -0.15625 2.078125 0.109375 2.546875 0.109375 C 3.71875 0.109375 5 -1.296875 5 -2.78125 C 5 -3.84375 4.34375 -4.40625 3.625 -4.40625 C 2.65625 -4.40625 1.609375 -3.40625 1.3125 -2.1875 Z M 2.546875 -0.109375 C 1.84375 -0.109375 1.6875 -0.90625 1.6875 -1 C 1.6875 -1.03125 1.734375 -1.234375 1.765625 -1.359375 C 2.046875 -2.484375 2.140625 -2.84375 2.359375 -3.234375 C 2.796875 -3.96875 3.296875 -4.1875 3.59375 -4.1875 C 3.96875 -4.1875 4.28125 -3.890625 4.28125 -3.203125 C 4.28125 -2.65625 4 -1.546875 3.734375 -1.0625 C 3.40625 -0.421875 2.921875 -0.109375 2.546875 -0.109375 Z M 2.546875 -0.109375 "
           style="stroke:none;" />
      </symbol>
      <symbol
         id="symbol4923"
         overflow="visible">
        <path
           id="path1773"
           d=""
           style="stroke:none;" />
      </symbol>
      <symbol
         id="symbol4250"
         overflow="visible">
        <path
           id="path9088"
           d="M 6.84375 -3.265625 C 7 -3.265625 7.1875 -3.265625 7.1875 -3.453125 C 7.1875 -3.65625 7 -3.65625 6.859375 -3.65625 L 0.890625 -3.65625 C 0.75 -3.65625 0.5625 -3.65625 0.5625 -3.453125 C 0.5625 -3.265625 0.75 -3.265625 0.890625 -3.265625 Z M 6.859375 -1.328125 C 7 -1.328125 7.1875 -1.328125 7.1875 -1.53125 C 7.1875 -1.71875 7 -1.71875 6.84375 -1.71875 L 0.890625 -1.71875 C 0.75 -1.71875 0.5625 -1.71875 0.5625 -1.53125 C 0.5625 -1.328125 0.75 -1.328125 0.890625 -1.328125 Z M 6.859375 -1.328125 "
           style="stroke:none;" />
      </symbol>
      <symbol
         id="symbol1214"
         overflow="visible">
        <path
           id="path5675"
           d="M 2.9375 -6.375 C 2.9375 -6.625 2.9375 -6.640625 2.703125 -6.640625 C 2.078125 -6 1.203125 -6 0.890625 -6 L 0.890625 -5.6875 C 1.09375 -5.6875 1.671875 -5.6875 2.1875 -5.953125 L 2.1875 -0.78125 C 2.1875 -0.421875 2.15625 -0.3125 1.265625 -0.3125 L 0.953125 -0.3125 L 0.953125 0 C 1.296875 -0.03125 2.15625 -0.03125 2.5625 -0.03125 C 2.953125 -0.03125 3.828125 -0.03125 4.171875 0 L 4.171875 -0.3125 L 3.859375 -0.3125 C 2.953125 -0.3125 2.9375 -0.421875 2.9375 -0.78125 Z M 2.9375 -6.375 "
           style="stroke:none;" />
      </symbol>
      <symbol
         id="symbol3859"
         overflow="visible">
        <path
           id="path478"
           d="M 4.078125 -2.296875 L 6.859375 -2.296875 C 7 -2.296875 7.1875 -2.296875 7.1875 -2.5 C 7.1875 -2.6875 7 -2.6875 6.859375 -2.6875 L 4.078125 -2.6875 L 4.078125 -5.484375 C 4.078125 -5.625 4.078125 -5.8125 3.875 -5.8125 C 3.671875 -5.8125 3.671875 -5.625 3.671875 -5.484375 L 3.671875 -2.6875 L 0.890625 -2.6875 C 0.75 -2.6875 0.5625 -2.6875 0.5625 -2.5 C 0.5625 -2.296875 0.75 -2.296875 0.890625 -2.296875 L 3.671875 -2.296875 L 3.671875 0.5 C 3.671875 0.640625 3.671875 0.828125 3.875 0.828125 C 4.078125 0.828125 4.078125 0.640625 4.078125 0.5 Z M 4.078125 -2.296875 "
           style="stroke:none;" />
      </symbol>
      <symbol
         id="symbol3696"
         overflow="visible">
        <path
           id="path6253"
           d=""
           style="stroke:none;" />
      </symbol>
      <symbol
         id="symbol9538"
         overflow="visible">
        <path
           id="path4797"
           d="M 2.328125 -4.4375 C 2.328125 -4.625 2.328125 -4.625 2.125 -4.625 C 1.671875 -4.1875 1.046875 -4.1875 0.765625 -4.1875 L 0.765625 -3.9375 C 0.921875 -3.9375 1.390625 -3.9375 1.765625 -4.125 L 1.765625 -0.578125 C 1.765625 -0.34375 1.765625 -0.25 1.078125 -0.25 L 0.8125 -0.25 L 0.8125 0 C 0.9375 0 1.796875 -0.03125 2.046875 -0.03125 C 2.265625 -0.03125 3.140625 0 3.296875 0 L 3.296875 -0.25 L 3.03125 -0.25 C 2.328125 -0.25 2.328125 -0.34375 2.328125 -0.578125 Z M 2.328125 -4.4375 "
           style="stroke:none;" />
      </symbol>
      <symbol
         id="symbol6542"
         overflow="visible">
        <path
           id="path3296"
           d="M 3.515625 -1.265625 L 3.28125 -1.265625 C 3.265625 -1.109375 3.1875 -0.703125 3.09375 -0.640625 C 3.046875 -0.59375 2.515625 -0.59375 2.40625 -0.59375 L 1.125 -0.59375 C 1.859375 -1.234375 2.109375 -1.4375 2.515625 -1.765625 C 3.03125 -2.171875 3.515625 -2.609375 3.515625 -3.265625 C 3.515625 -4.109375 2.78125 -4.625 1.890625 -4.625 C 1.03125 -4.625 0.4375 -4.015625 0.4375 -3.375 C 0.4375 -3.03125 0.734375 -2.984375 0.8125 -2.984375 C 0.96875 -2.984375 1.171875 -3.109375 1.171875 -3.359375 C 1.171875 -3.484375 1.125 -3.734375 0.765625 -3.734375 C 0.984375 -4.21875 1.453125 -4.375 1.78125 -4.375 C 2.484375 -4.375 2.84375 -3.828125 2.84375 -3.265625 C 2.84375 -2.65625 2.40625 -2.1875 2.1875 -1.9375 L 0.515625 -0.265625 C 0.4375 -0.203125 0.4375 -0.1875 0.4375 0 L 3.3125 0 Z M 3.515625 -1.265625 "
           style="stroke:none;" />
      </symbol>
      <symbol
         id="symbol7460"
         overflow="visible">
        <path
           id="path2290"
           d=""
           style="stroke:none;" />
      </symbol>
      <symbol
         id="symbol2771"
         overflow="visible">
        <path
           id="path9201"
           d="M 4.109375 11.453125 C 4.109375 11.421875 4.09375 11.390625 4.078125 11.359375 C 3.625 10.875 2.9375 10.0625 2.515625 8.4375 C 2.296875 7.53125 2.203125 6.515625 2.203125 5.578125 C 2.203125 2.953125 2.828125 1.125 4.03125 -0.171875 C 4.109375 -0.265625 4.109375 -0.28125 4.109375 -0.296875 C 4.109375 -0.40625 4.03125 -0.40625 4 -0.40625 C 3.84375 -0.40625 3.3125 0.203125 3.1875 0.34375 C 2.15625 1.5625 1.515625 3.34375 1.515625 5.578125 C 1.515625 6.984375 1.765625 8.984375 3.078125 10.671875 C 3.171875 10.796875 3.8125 11.546875 4 11.546875 C 4.03125 11.546875 4.109375 11.546875 4.109375 11.453125 Z M 4.109375 11.453125 "
           style="stroke:none;" />
      </symbol>
      <symbol
         id="symbol3402"
         overflow="visible">
        <path
           id="path6085"
           d="M 3.046875 5.578125 C 3.046875 4.171875 2.796875 2.15625 1.484375 0.484375 C 1.390625 0.359375 0.734375 -0.40625 0.5625 -0.40625 C 0.515625 -0.40625 0.4375 -0.375 0.4375 -0.296875 C 0.4375 -0.265625 0.453125 -0.234375 0.5 -0.203125 C 0.984375 0.3125 1.625 1.125 2.03125 2.71875 C 2.265625 3.625 2.359375 4.640625 2.359375 5.578125 C 2.359375 6.578125 2.265625 7.59375 2 8.578125 C 1.625 9.96875 1.03125 10.765625 0.53125 11.328125 C 0.4375 11.421875 0.4375 11.4375 0.4375 11.453125 C 0.4375 11.53125 0.515625 11.546875 0.5625 11.546875 C 0.703125 11.546875 1.25 10.953125 1.375 10.8125 C 2.390625 9.59375 3.046875 7.8125 3.046875 5.578125 Z M 3.046875 5.578125 "
           style="stroke:none;" />
      </symbol>
    </g>
    <marker
       inkscape:isstock="true"
       style="overflow:visible"
       id="marker68992-5"
       refX="0"
       refY="0"
       orient="auto"
       inkscape:stockid="Arrow1Lstart">
      <path
         transform="matrix(0.8,0,0,0.8,10,0)"
         style="fill:#000000;fill-opacity:1;fill-rule:evenodd;stroke:#000000;stroke-width:1pt;stroke-opacity:1"
         d="M 0,0 5,-5 -12.5,0 5,5 Z"
         id="path68990-2" />
    </marker>
    <g
       id="g5533">
      <symbol
         id="symbol4305"
         overflow="visible">
        <path
           id="path5812"
           d=""
           style="stroke:none;" />
      </symbol>
      <symbol
         id="symbol2722"
         overflow="visible">
        <path
           id="path5929"
           d="M 4.578125 -3.1875 C 4.578125 -3.984375 4.53125 -4.78125 4.1875 -5.515625 C 3.734375 -6.484375 2.90625 -6.640625 2.5 -6.640625 C 1.890625 -6.640625 1.171875 -6.375 0.75 -5.453125 C 0.4375 -4.765625 0.390625 -3.984375 0.390625 -3.1875 C 0.390625 -2.4375 0.421875 -1.546875 0.84375 -0.78125 C 1.265625 0.015625 2 0.21875 2.484375 0.21875 C 3.015625 0.21875 3.78125 0.015625 4.21875 -0.9375 C 4.53125 -1.625 4.578125 -2.40625 4.578125 -3.1875 Z M 2.484375 0 C 2.09375 0 1.5 -0.25 1.328125 -1.203125 C 1.21875 -1.796875 1.21875 -2.71875 1.21875 -3.3125 C 1.21875 -3.953125 1.21875 -4.609375 1.296875 -5.140625 C 1.484375 -6.328125 2.234375 -6.421875 2.484375 -6.421875 C 2.8125 -6.421875 3.46875 -6.234375 3.65625 -5.25 C 3.765625 -4.6875 3.765625 -3.9375 3.765625 -3.3125 C 3.765625 -2.5625 3.765625 -1.890625 3.65625 -1.25 C 3.5 -0.296875 2.9375 0 2.484375 0 Z M 2.484375 0 "
           style="stroke:none;" />
      </symbol>
      <symbol
         id="symbol5748"
         overflow="visible">
        <path
           id="path745"
           d="M 4.75 -6.078125 C 4.828125 -6.1875 4.828125 -6.203125 4.828125 -6.421875 L 2.40625 -6.421875 C 1.203125 -6.421875 1.171875 -6.546875 1.140625 -6.734375 L 0.890625 -6.734375 L 0.5625 -4.6875 L 0.8125 -4.6875 C 0.84375 -4.84375 0.921875 -5.46875 1.0625 -5.59375 C 1.125 -5.65625 1.90625 -5.65625 2.03125 -5.65625 L 4.09375 -5.65625 C 3.984375 -5.5 3.203125 -4.40625 2.984375 -4.078125 C 2.078125 -2.734375 1.75 -1.34375 1.75 -0.328125 C 1.75 -0.234375 1.75 0.21875 2.21875 0.21875 C 2.671875 0.21875 2.671875 -0.234375 2.671875 -0.328125 L 2.671875 -0.84375 C 2.671875 -1.390625 2.703125 -1.9375 2.78125 -2.46875 C 2.828125 -2.703125 2.953125 -3.5625 3.40625 -4.171875 Z M 4.75 -6.078125 "
           style="stroke:none;" />
      </symbol>
      <symbol
         id="symbol6531"
         overflow="visible">
        <path
           id="path5594"
           d="M 4.46875 -2 C 4.46875 -3.1875 3.65625 -4.1875 2.578125 -4.1875 C 2.109375 -4.1875 1.671875 -4.03125 1.3125 -3.671875 L 1.3125 -5.625 C 1.515625 -5.5625 1.84375 -5.5 2.15625 -5.5 C 3.390625 -5.5 4.09375 -6.40625 4.09375 -6.53125 C 4.09375 -6.59375 4.0625 -6.640625 3.984375 -6.640625 C 3.984375 -6.640625 3.953125 -6.640625 3.90625 -6.609375 C 3.703125 -6.515625 3.21875 -6.3125 2.546875 -6.3125 C 2.15625 -6.3125 1.6875 -6.390625 1.21875 -6.59375 C 1.140625 -6.625 1.125 -6.625 1.109375 -6.625 C 1 -6.625 1 -6.546875 1 -6.390625 L 1 -3.4375 C 1 -3.265625 1 -3.1875 1.140625 -3.1875 C 1.21875 -3.1875 1.234375 -3.203125 1.28125 -3.265625 C 1.390625 -3.421875 1.75 -3.96875 2.5625 -3.96875 C 3.078125 -3.96875 3.328125 -3.515625 3.40625 -3.328125 C 3.5625 -2.953125 3.59375 -2.578125 3.59375 -2.078125 C 3.59375 -1.71875 3.59375 -1.125 3.34375 -0.703125 C 3.109375 -0.3125 2.734375 -0.0625 2.28125 -0.0625 C 1.5625 -0.0625 0.984375 -0.59375 0.8125 -1.171875 C 0.84375 -1.171875 0.875 -1.15625 0.984375 -1.15625 C 1.3125 -1.15625 1.484375 -1.40625 1.484375 -1.640625 C 1.484375 -1.890625 1.3125 -2.140625 0.984375 -2.140625 C 0.84375 -2.140625 0.5 -2.0625 0.5 -1.609375 C 0.5 -0.75 1.1875 0.21875 2.296875 0.21875 C 3.453125 0.21875 4.46875 -0.734375 4.46875 -2 Z M 4.46875 -2 "
           style="stroke:none;" />
      </symbol>
      <symbol
         id="symbol7422"
         overflow="visible">
        <path
           id="path1977"
           d=""
           style="stroke:none;" />
      </symbol>
      <symbol
         id="symbol4981"
         overflow="visible">
        <path
           id="path1877"
           d="M 1.90625 -0.53125 C 1.90625 -0.8125 1.671875 -1.0625 1.390625 -1.0625 C 1.09375 -1.0625 0.859375 -0.8125 0.859375 -0.53125 C 0.859375 -0.234375 1.09375 0 1.390625 0 C 1.671875 0 1.90625 -0.234375 1.90625 -0.53125 Z M 1.90625 -0.53125 "
           style="stroke:none;" />
      </symbol>
      <symbol
         id="symbol4142"
         overflow="visible">
        <path
           id="path790"
           d=""
           style="stroke:none;" />
      </symbol>
      <symbol
         id="symbol5157"
         overflow="visible">
        <path
           id="path5778"
           d="M 6.5625 -2.296875 C 6.734375 -2.296875 6.921875 -2.296875 6.921875 -2.5 C 6.921875 -2.6875 6.734375 -2.6875 6.5625 -2.6875 L 1.171875 -2.6875 C 1 -2.6875 0.828125 -2.6875 0.828125 -2.5 C 0.828125 -2.296875 1 -2.296875 1.171875 -2.296875 Z M 6.5625 -2.296875 "
           style="stroke:none;" />
      </symbol>
    </g>
    <g
       id="g6824">
      <symbol
         id="symbol4094"
         overflow="visible">
        <path
           id="path2894"
           d=""
           style="stroke:none;" />
      </symbol>
      <symbol
         id="symbol2912"
         overflow="visible">
        <path
           id="path966"
           d="M 2.9375 -6.375 C 2.9375 -6.625 2.9375 -6.640625 2.703125 -6.640625 C 2.078125 -6 1.203125 -6 0.890625 -6 L 0.890625 -5.6875 C 1.09375 -5.6875 1.671875 -5.6875 2.1875 -5.953125 L 2.1875 -0.78125 C 2.1875 -0.421875 2.15625 -0.3125 1.265625 -0.3125 L 0.953125 -0.3125 L 0.953125 0 C 1.296875 -0.03125 2.15625 -0.03125 2.5625 -0.03125 C 2.953125 -0.03125 3.828125 -0.03125 4.171875 0 L 4.171875 -0.3125 L 3.859375 -0.3125 C 2.953125 -0.3125 2.9375 -0.421875 2.9375 -0.78125 Z M 2.9375 -6.375 "
           style="stroke:none;" />
      </symbol>
    </g>
    <g
       id="g2604">
      <symbol
         id="symbol4433"
         overflow="visible">
        <path
           id="path3709"
           d=""
           style="stroke:none;" />
      </symbol>
      <symbol
         id="symbol4403"
         overflow="visible">
        <path
           id="path3932"
           d="M 2.9375 -6.375 C 2.9375 -6.625 2.9375 -6.640625 2.703125 -6.640625 C 2.078125 -6 1.203125 -6 0.890625 -6 L 0.890625 -5.6875 C 1.09375 -5.6875 1.671875 -5.6875 2.1875 -5.953125 L 2.1875 -0.78125 C 2.1875 -0.421875 2.15625 -0.3125 1.265625 -0.3125 L 0.953125 -0.3125 L 0.953125 0 C 1.296875 -0.03125 2.15625 -0.03125 2.5625 -0.03125 C 2.953125 -0.03125 3.828125 -0.03125 4.171875 0 L 4.171875 -0.3125 L 3.859375 -0.3125 C 2.953125 -0.3125 2.9375 -0.421875 2.9375 -0.78125 Z M 2.9375 -6.375 "
           style="stroke:none;" />
      </symbol>
      <symbol
         id="symbol9525"
         overflow="visible">
        <path
           id="path5695"
           d="M 1.265625 -0.765625 L 2.328125 -1.796875 C 3.875 -3.171875 4.46875 -3.703125 4.46875 -4.703125 C 4.46875 -5.84375 3.578125 -6.640625 2.359375 -6.640625 C 1.234375 -6.640625 0.5 -5.71875 0.5 -4.828125 C 0.5 -4.28125 1 -4.28125 1.03125 -4.28125 C 1.203125 -4.28125 1.546875 -4.390625 1.546875 -4.8125 C 1.546875 -5.0625 1.359375 -5.328125 1.015625 -5.328125 C 0.9375 -5.328125 0.921875 -5.328125 0.890625 -5.3125 C 1.109375 -5.96875 1.65625 -6.328125 2.234375 -6.328125 C 3.140625 -6.328125 3.5625 -5.515625 3.5625 -4.703125 C 3.5625 -3.90625 3.078125 -3.125 2.515625 -2.5 L 0.609375 -0.375 C 0.5 -0.265625 0.5 -0.234375 0.5 0 L 4.203125 0 L 4.46875 -1.734375 L 4.234375 -1.734375 C 4.171875 -1.4375 4.109375 -1 4 -0.84375 C 3.9375 -0.765625 3.28125 -0.765625 3.0625 -0.765625 Z M 1.265625 -0.765625 "
           style="stroke:none;" />
      </symbol>
      <symbol
         id="symbol6753"
         overflow="visible">
        <path
           id="path6937"
           d="M 2.890625 -3.515625 C 3.703125 -3.78125 4.28125 -4.46875 4.28125 -5.265625 C 4.28125 -6.078125 3.40625 -6.640625 2.453125 -6.640625 C 1.453125 -6.640625 0.6875 -6.046875 0.6875 -5.28125 C 0.6875 -4.953125 0.90625 -4.765625 1.203125 -4.765625 C 1.5 -4.765625 1.703125 -4.984375 1.703125 -5.28125 C 1.703125 -5.765625 1.234375 -5.765625 1.09375 -5.765625 C 1.390625 -6.265625 2.046875 -6.390625 2.40625 -6.390625 C 2.828125 -6.390625 3.375 -6.171875 3.375 -5.28125 C 3.375 -5.15625 3.34375 -4.578125 3.09375 -4.140625 C 2.796875 -3.65625 2.453125 -3.625 2.203125 -3.625 C 2.125 -3.609375 1.890625 -3.59375 1.8125 -3.59375 C 1.734375 -3.578125 1.671875 -3.5625 1.671875 -3.46875 C 1.671875 -3.359375 1.734375 -3.359375 1.90625 -3.359375 L 2.34375 -3.359375 C 3.15625 -3.359375 3.53125 -2.6875 3.53125 -1.703125 C 3.53125 -0.34375 2.84375 -0.0625 2.40625 -0.0625 C 1.96875 -0.0625 1.21875 -0.234375 0.875 -0.8125 C 1.21875 -0.765625 1.53125 -0.984375 1.53125 -1.359375 C 1.53125 -1.71875 1.265625 -1.921875 0.984375 -1.921875 C 0.734375 -1.921875 0.421875 -1.78125 0.421875 -1.34375 C 0.421875 -0.4375 1.34375 0.21875 2.4375 0.21875 C 3.65625 0.21875 4.5625 -0.6875 4.5625 -1.703125 C 4.5625 -2.515625 3.921875 -3.296875 2.890625 -3.515625 Z M 2.890625 -3.515625 "
           style="stroke:none;" />
      </symbol>
      <symbol
         id="symbol5921"
         overflow="visible">
        <path
           id="path9014"
           d="M 2.9375 -1.640625 L 2.9375 -0.78125 C 2.9375 -0.421875 2.90625 -0.3125 2.171875 -0.3125 L 1.96875 -0.3125 L 1.96875 0 C 2.375 -0.03125 2.890625 -0.03125 3.3125 -0.03125 C 3.734375 -0.03125 4.25 -0.03125 4.671875 0 L 4.671875 -0.3125 L 4.453125 -0.3125 C 3.71875 -0.3125 3.703125 -0.421875 3.703125 -0.78125 L 3.703125 -1.640625 L 4.6875 -1.640625 L 4.6875 -1.953125 L 3.703125 -1.953125 L 3.703125 -6.484375 C 3.703125 -6.6875 3.703125 -6.75 3.53125 -6.75 C 3.453125 -6.75 3.421875 -6.75 3.34375 -6.625 L 0.28125 -1.953125 L 0.28125 -1.640625 Z M 2.984375 -1.953125 L 0.5625 -1.953125 L 2.984375 -5.671875 Z M 2.984375 -1.953125 "
           style="stroke:none;" />
      </symbol>
    </g>
    <g
       id="g1194">
      <symbol
         id="symbol5886"
         overflow="visible">
        <path
           id="path2241"
           d=""
           style="stroke:none;" />
      </symbol>
      <symbol
         id="symbol1645"
         overflow="visible">
        <path
           id="path3948"
           d="M 6.328125 -5.765625 C 6.4375 -6.171875 6.609375 -6.46875 7.40625 -6.5 C 7.453125 -6.5 7.578125 -6.515625 7.578125 -6.703125 C 7.578125 -6.703125 7.578125 -6.8125 7.453125 -6.8125 C 7.125 -6.8125 6.765625 -6.78125 6.4375 -6.78125 C 6.09375 -6.78125 5.71875 -6.8125 5.390625 -6.8125 C 5.328125 -6.8125 5.21875 -6.8125 5.21875 -6.609375 C 5.21875 -6.5 5.3125 -6.5 5.390625 -6.5 C 5.96875 -6.484375 6.078125 -6.28125 6.078125 -6.0625 C 6.078125 -6.03125 6.046875 -5.875 6.046875 -5.859375 L 5.140625 -2.296875 C 4.8125 -0.953125 3.65625 -0.09375 2.65625 -0.09375 C 1.984375 -0.09375 1.453125 -0.53125 1.453125 -1.390625 C 1.453125 -1.40625 1.453125 -1.71875 1.5625 -2.15625 L 2.515625 -6.046875 C 2.609375 -6.40625 2.625 -6.5 3.359375 -6.5 C 3.625 -6.5 3.703125 -6.5 3.703125 -6.703125 C 3.703125 -6.8125 3.59375 -6.8125 3.5625 -6.8125 C 3.28125 -6.8125 2.5625 -6.78125 2.28125 -6.78125 C 2 -6.78125 1.28125 -6.8125 1 -6.8125 C 0.921875 -6.8125 0.8125 -6.8125 0.8125 -6.609375 C 0.8125 -6.5 0.890625 -6.5 1.09375 -6.5 C 1.109375 -6.5 1.296875 -6.5 1.46875 -6.484375 C 1.640625 -6.453125 1.734375 -6.453125 1.734375 -6.3125 C 1.734375 -6.265625 1.625 -5.84375 1.5625 -5.609375 L 1.34375 -4.734375 C 1.25 -4.34375 0.78125 -2.46875 0.734375 -2.265625 C 0.671875 -2 0.671875 -1.84375 0.671875 -1.6875 C 0.671875 -0.484375 1.578125 0.21875 2.625 0.21875 C 3.875 0.21875 5.109375 -0.90625 5.4375 -2.21875 Z M 6.328125 -5.765625 "
           style="stroke:none;" />
      </symbol>
      <symbol
         id="symbol7503"
         overflow="visible">
        <path
           id="path3716"
           d=""
           style="stroke:none;" />
      </symbol>
      <symbol
         id="symbol7674"
         overflow="visible">
        <path
           id="path8401"
           d="M 3.296875 2.390625 C 3.296875 2.359375 3.296875 2.34375 3.125 2.171875 C 1.890625 0.921875 1.5625 -0.96875 1.5625 -2.5 C 1.5625 -4.234375 1.9375 -5.96875 3.171875 -7.203125 C 3.296875 -7.328125 3.296875 -7.34375 3.296875 -7.375 C 3.296875 -7.453125 3.265625 -7.484375 3.203125 -7.484375 C 3.09375 -7.484375 2.203125 -6.796875 1.609375 -5.53125 C 1.109375 -4.4375 0.984375 -3.328125 0.984375 -2.5 C 0.984375 -1.71875 1.09375 -0.515625 1.640625 0.625 C 2.25 1.84375 3.09375 2.5 3.203125 2.5 C 3.265625 2.5 3.296875 2.46875 3.296875 2.390625 Z M 3.296875 2.390625 "
           style="stroke:none;" />
      </symbol>
      <symbol
         id="symbol8297"
         overflow="visible">
        <path
           id="path3325"
           d="M 2.9375 -6.375 C 2.9375 -6.625 2.9375 -6.640625 2.703125 -6.640625 C 2.078125 -6 1.203125 -6 0.890625 -6 L 0.890625 -5.6875 C 1.09375 -5.6875 1.671875 -5.6875 2.1875 -5.953125 L 2.1875 -0.78125 C 2.1875 -0.421875 2.15625 -0.3125 1.265625 -0.3125 L 0.953125 -0.3125 L 0.953125 0 C 1.296875 -0.03125 2.15625 -0.03125 2.5625 -0.03125 C 2.953125 -0.03125 3.828125 -0.03125 4.171875 0 L 4.171875 -0.3125 L 3.859375 -0.3125 C 2.953125 -0.3125 2.9375 -0.421875 2.9375 -0.78125 Z M 2.9375 -6.375 "
           style="stroke:none;" />
      </symbol>
      <symbol
         id="symbol488"
         overflow="visible">
        <path
           id="path4381"
           d="M 2.875 -2.5 C 2.875 -3.265625 2.765625 -4.46875 2.21875 -5.609375 C 1.625 -6.828125 0.765625 -7.484375 0.671875 -7.484375 C 0.609375 -7.484375 0.5625 -7.4375 0.5625 -7.375 C 0.5625 -7.34375 0.5625 -7.328125 0.75 -7.140625 C 1.734375 -6.15625 2.296875 -4.578125 2.296875 -2.5 C 2.296875 -0.78125 1.9375 0.96875 0.703125 2.21875 C 0.5625 2.34375 0.5625 2.359375 0.5625 2.390625 C 0.5625 2.453125 0.609375 2.5 0.671875 2.5 C 0.765625 2.5 1.671875 1.8125 2.25 0.546875 C 2.765625 -0.546875 2.875 -1.65625 2.875 -2.5 Z M 2.875 -2.5 "
           style="stroke:none;" />
      </symbol>
      <symbol
         id="symbol2308"
         overflow="visible">
        <path
           id="path7393"
           d="M 3.78125 -0.609375 L 3.78125 1.171875 C 3.78125 1.625 3.671875 1.625 3.015625 1.625 L 3.015625 1.9375 C 3.34375 1.921875 3.875 1.90625 4.125 1.90625 C 4.390625 1.90625 4.90625 1.921875 5.25 1.9375 L 5.25 1.625 C 4.578125 1.625 4.46875 1.625 4.46875 1.171875 L 4.46875 -4.40625 L 4.25 -4.40625 L 3.875 -3.5 C 3.75 -3.78125 3.34375 -4.40625 2.546875 -4.40625 C 1.390625 -4.40625 0.34375 -3.4375 0.34375 -2.140625 C 0.34375 -0.890625 1.3125 0.109375 2.46875 0.109375 C 3.15625 0.109375 3.5625 -0.3125 3.78125 -0.609375 Z M 3.8125 -2.765625 L 3.8125 -1.359375 C 3.8125 -1.03125 3.640625 -0.75 3.421875 -0.515625 C 3.296875 -0.375 2.96875 -0.109375 2.5 -0.109375 C 1.78125 -0.109375 1.171875 -1 1.171875 -2.140625 C 1.171875 -3.328125 1.859375 -4.15625 2.609375 -4.15625 C 3.40625 -4.15625 3.8125 -3.296875 3.8125 -2.765625 Z M 3.8125 -2.765625 "
           style="stroke:none;" />
      </symbol>
      <symbol
         id="symbol1709"
         overflow="visible">
        <path
           id="path1511"
           d="M 3.890625 -0.78125 L 3.890625 0.109375 L 5.328125 0 L 5.328125 -0.3125 C 4.640625 -0.3125 4.5625 -0.375 4.5625 -0.875 L 4.5625 -4.40625 L 3.09375 -4.296875 L 3.09375 -3.984375 C 3.78125 -3.984375 3.875 -3.921875 3.875 -3.421875 L 3.875 -1.65625 C 3.875 -0.78125 3.390625 -0.109375 2.65625 -0.109375 C 1.828125 -0.109375 1.78125 -0.578125 1.78125 -1.09375 L 1.78125 -4.40625 L 0.3125 -4.296875 L 0.3125 -3.984375 C 1.09375 -3.984375 1.09375 -3.953125 1.09375 -3.078125 L 1.09375 -1.578125 C 1.09375 -0.796875 1.09375 0.109375 2.609375 0.109375 C 3.171875 0.109375 3.609375 -0.171875 3.890625 -0.78125 Z M 3.890625 -0.78125 "
           style="stroke:none;" />
      </symbol>
      <symbol
         id="symbol3168"
         overflow="visible">
        <path
           id="path9583"
           d="M 3.3125 -0.75 C 3.359375 -0.359375 3.625 0.0625 4.09375 0.0625 C 4.3125 0.0625 4.921875 -0.078125 4.921875 -0.890625 L 4.921875 -1.453125 L 4.671875 -1.453125 L 4.671875 -0.890625 C 4.671875 -0.3125 4.421875 -0.25 4.3125 -0.25 C 3.984375 -0.25 3.9375 -0.703125 3.9375 -0.75 L 3.9375 -2.734375 C 3.9375 -3.15625 3.9375 -3.546875 3.578125 -3.921875 C 3.1875 -4.3125 2.6875 -4.46875 2.21875 -4.46875 C 1.390625 -4.46875 0.703125 -4 0.703125 -3.34375 C 0.703125 -3.046875 0.90625 -2.875 1.171875 -2.875 C 1.453125 -2.875 1.625 -3.078125 1.625 -3.328125 C 1.625 -3.453125 1.578125 -3.78125 1.109375 -3.78125 C 1.390625 -4.140625 1.875 -4.25 2.1875 -4.25 C 2.6875 -4.25 3.25 -3.859375 3.25 -2.96875 L 3.25 -2.609375 C 2.734375 -2.578125 2.046875 -2.546875 1.421875 -2.25 C 0.671875 -1.90625 0.421875 -1.390625 0.421875 -0.953125 C 0.421875 -0.140625 1.390625 0.109375 2.015625 0.109375 C 2.671875 0.109375 3.125 -0.296875 3.3125 -0.75 Z M 3.25 -2.390625 L 3.25 -1.390625 C 3.25 -0.453125 2.53125 -0.109375 2.078125 -0.109375 C 1.59375 -0.109375 1.1875 -0.453125 1.1875 -0.953125 C 1.1875 -1.5 1.609375 -2.328125 3.25 -2.390625 Z M 3.25 -2.390625 "
           style="stroke:none;" />
      </symbol>
      <symbol
         id="symbol9180"
         overflow="visible">
        <path
           id="path4947"
           d="M 1.09375 -3.421875 L 1.09375 -0.75 C 1.09375 -0.3125 0.984375 -0.3125 0.3125 -0.3125 L 0.3125 0 C 0.671875 -0.015625 1.171875 -0.03125 1.453125 -0.03125 C 1.703125 -0.03125 2.21875 -0.015625 2.5625 0 L 2.5625 -0.3125 C 1.890625 -0.3125 1.78125 -0.3125 1.78125 -0.75 L 1.78125 -2.59375 C 1.78125 -3.625 2.5 -4.1875 3.125 -4.1875 C 3.765625 -4.1875 3.875 -3.65625 3.875 -3.078125 L 3.875 -0.75 C 3.875 -0.3125 3.765625 -0.3125 3.09375 -0.3125 L 3.09375 0 C 3.4375 -0.015625 3.953125 -0.03125 4.21875 -0.03125 C 4.46875 -0.03125 5 -0.015625 5.328125 0 L 5.328125 -0.3125 C 4.8125 -0.3125 4.5625 -0.3125 4.5625 -0.609375 L 4.5625 -2.515625 C 4.5625 -3.375 4.5625 -3.671875 4.25 -4.03125 C 4.109375 -4.203125 3.78125 -4.40625 3.203125 -4.40625 C 2.46875 -4.40625 2 -3.984375 1.71875 -3.359375 L 1.71875 -4.40625 L 0.3125 -4.296875 L 0.3125 -3.984375 C 1.015625 -3.984375 1.09375 -3.921875 1.09375 -3.421875 Z M 1.09375 -3.421875 "
           style="stroke:none;" />
      </symbol>
      <symbol
         id="symbol3792"
         overflow="visible">
        <path
           id="path833"
           d="M 1.71875 -3.984375 L 3.15625 -3.984375 L 3.15625 -4.296875 L 1.71875 -4.296875 L 1.71875 -6.125 L 1.46875 -6.125 C 1.46875 -5.3125 1.171875 -4.25 0.1875 -4.203125 L 0.1875 -3.984375 L 1.03125 -3.984375 L 1.03125 -1.234375 C 1.03125 -0.015625 1.96875 0.109375 2.328125 0.109375 C 3.03125 0.109375 3.3125 -0.59375 3.3125 -1.234375 L 3.3125 -1.796875 L 3.0625 -1.796875 L 3.0625 -1.25 C 3.0625 -0.515625 2.765625 -0.140625 2.390625 -0.140625 C 1.71875 -0.140625 1.71875 -1.046875 1.71875 -1.21875 Z M 1.71875 -3.984375 "
           style="stroke:none;" />
      </symbol>
      <symbol
         id="symbol4450"
         overflow="visible">
        <path
           id="path8733"
           d="M 1.09375 -3.421875 L 1.09375 -0.75 C 1.09375 -0.3125 0.984375 -0.3125 0.3125 -0.3125 L 0.3125 0 C 0.671875 -0.015625 1.171875 -0.03125 1.453125 -0.03125 C 1.703125 -0.03125 2.21875 -0.015625 2.5625 0 L 2.5625 -0.3125 C 1.890625 -0.3125 1.78125 -0.3125 1.78125 -0.75 L 1.78125 -2.59375 C 1.78125 -3.625 2.5 -4.1875 3.125 -4.1875 C 3.765625 -4.1875 3.875 -3.65625 3.875 -3.078125 L 3.875 -0.75 C 3.875 -0.3125 3.765625 -0.3125 3.09375 -0.3125 L 3.09375 0 C 3.4375 -0.015625 3.953125 -0.03125 4.21875 -0.03125 C 4.46875 -0.03125 5 -0.015625 5.328125 0 L 5.328125 -0.3125 C 4.671875 -0.3125 4.5625 -0.3125 4.5625 -0.75 L 4.5625 -2.59375 C 4.5625 -3.625 5.265625 -4.1875 5.90625 -4.1875 C 6.53125 -4.1875 6.640625 -3.65625 6.640625 -3.078125 L 6.640625 -0.75 C 6.640625 -0.3125 6.53125 -0.3125 5.859375 -0.3125 L 5.859375 0 C 6.203125 -0.015625 6.71875 -0.03125 6.984375 -0.03125 C 7.25 -0.03125 7.765625 -0.015625 8.109375 0 L 8.109375 -0.3125 C 7.59375 -0.3125 7.34375 -0.3125 7.328125 -0.609375 L 7.328125 -2.515625 C 7.328125 -3.375 7.328125 -3.671875 7.015625 -4.03125 C 6.875 -4.203125 6.546875 -4.40625 5.96875 -4.40625 C 5.140625 -4.40625 4.6875 -3.8125 4.53125 -3.421875 C 4.390625 -4.296875 3.65625 -4.40625 3.203125 -4.40625 C 2.46875 -4.40625 2 -3.984375 1.71875 -3.359375 L 1.71875 -4.40625 L 0.3125 -4.296875 L 0.3125 -3.984375 C 1.015625 -3.984375 1.09375 -3.921875 1.09375 -3.421875 Z M 1.09375 -3.421875 "
           style="stroke:none;" />
      </symbol>
      <symbol
         id="symbol4106"
         overflow="visible">
        <path
           id="path1482"
           d="M 2.078125 -1.9375 C 2.296875 -1.890625 3.109375 -1.734375 3.109375 -1.015625 C 3.109375 -0.515625 2.765625 -0.109375 1.984375 -0.109375 C 1.140625 -0.109375 0.78125 -0.671875 0.59375 -1.53125 C 0.5625 -1.65625 0.5625 -1.6875 0.453125 -1.6875 C 0.328125 -1.6875 0.328125 -1.625 0.328125 -1.453125 L 0.328125 -0.125 C 0.328125 0.046875 0.328125 0.109375 0.4375 0.109375 C 0.484375 0.109375 0.5 0.09375 0.6875 -0.09375 C 0.703125 -0.109375 0.703125 -0.125 0.890625 -0.3125 C 1.328125 0.09375 1.78125 0.109375 1.984375 0.109375 C 3.125 0.109375 3.59375 -0.5625 3.59375 -1.28125 C 3.59375 -1.796875 3.296875 -2.109375 3.171875 -2.21875 C 2.84375 -2.546875 2.453125 -2.625 2.03125 -2.703125 C 1.46875 -2.8125 0.8125 -2.9375 0.8125 -3.515625 C 0.8125 -3.875 1.0625 -4.28125 1.921875 -4.28125 C 3.015625 -4.28125 3.078125 -3.375 3.09375 -3.078125 C 3.09375 -2.984375 3.1875 -2.984375 3.203125 -2.984375 C 3.34375 -2.984375 3.34375 -3.03125 3.34375 -3.21875 L 3.34375 -4.234375 C 3.34375 -4.390625 3.34375 -4.46875 3.234375 -4.46875 C 3.1875 -4.46875 3.15625 -4.46875 3.03125 -4.34375 C 3 -4.3125 2.90625 -4.21875 2.859375 -4.1875 C 2.484375 -4.46875 2.078125 -4.46875 1.921875 -4.46875 C 0.703125 -4.46875 0.328125 -3.796875 0.328125 -3.234375 C 0.328125 -2.890625 0.484375 -2.609375 0.75 -2.390625 C 1.078125 -2.140625 1.359375 -2.078125 2.078125 -1.9375 Z M 2.078125 -1.9375 "
           style="stroke:none;" />
      </symbol>
      <symbol
         id="symbol1935"
         overflow="visible">
        <path
           id="path5956"
           d="M 1.71875 -3.75 L 1.71875 -4.40625 L 0.28125 -4.296875 L 0.28125 -3.984375 C 0.984375 -3.984375 1.0625 -3.921875 1.0625 -3.484375 L 1.0625 1.171875 C 1.0625 1.625 0.953125 1.625 0.28125 1.625 L 0.28125 1.9375 C 0.625 1.921875 1.140625 1.90625 1.390625 1.90625 C 1.671875 1.90625 2.171875 1.921875 2.515625 1.9375 L 2.515625 1.625 C 1.859375 1.625 1.75 1.625 1.75 1.171875 L 1.75 -0.59375 C 1.796875 -0.421875 2.21875 0.109375 2.96875 0.109375 C 4.15625 0.109375 5.1875 -0.875 5.1875 -2.15625 C 5.1875 -3.421875 4.234375 -4.40625 3.109375 -4.40625 C 2.328125 -4.40625 1.90625 -3.96875 1.71875 -3.75 Z M 1.75 -1.140625 L 1.75 -3.359375 C 2.03125 -3.875 2.515625 -4.15625 3.03125 -4.15625 C 3.765625 -4.15625 4.359375 -3.28125 4.359375 -2.15625 C 4.359375 -0.953125 3.671875 -0.109375 2.9375 -0.109375 C 2.53125 -0.109375 2.15625 -0.3125 1.890625 -0.71875 C 1.75 -0.921875 1.75 -0.9375 1.75 -1.140625 Z M 1.75 -1.140625 "
           style="stroke:none;" />
      </symbol>
      <symbol
         id="symbol6432"
         overflow="visible">
        <path
           id="path9992"
           d="M 1.765625 -4.40625 L 0.375 -4.296875 L 0.375 -3.984375 C 1.015625 -3.984375 1.109375 -3.921875 1.109375 -3.4375 L 1.109375 -0.75 C 1.109375 -0.3125 1 -0.3125 0.328125 -0.3125 L 0.328125 0 C 0.640625 -0.015625 1.1875 -0.03125 1.421875 -0.03125 C 1.78125 -0.03125 2.125 -0.015625 2.46875 0 L 2.46875 -0.3125 C 1.796875 -0.3125 1.765625 -0.359375 1.765625 -0.75 Z M 1.796875 -6.140625 C 1.796875 -6.453125 1.5625 -6.671875 1.28125 -6.671875 C 0.96875 -6.671875 0.75 -6.40625 0.75 -6.140625 C 0.75 -5.875 0.96875 -5.609375 1.28125 -5.609375 C 1.5625 -5.609375 1.796875 -5.828125 1.796875 -6.140625 Z M 1.796875 -6.140625 "
           style="stroke:none;" />
      </symbol>
      <symbol
         id="symbol5390"
         overflow="visible">
        <path
           id="path9772"
           d="M 1.765625 -6.921875 L 0.328125 -6.8125 L 0.328125 -6.5 C 1.03125 -6.5 1.109375 -6.4375 1.109375 -5.9375 L 1.109375 -0.75 C 1.109375 -0.3125 1 -0.3125 0.328125 -0.3125 L 0.328125 0 C 0.65625 -0.015625 1.1875 -0.03125 1.4375 -0.03125 C 1.6875 -0.03125 2.171875 -0.015625 2.546875 0 L 2.546875 -0.3125 C 1.875 -0.3125 1.765625 -0.3125 1.765625 -0.75 Z M 1.765625 -6.921875 "
           style="stroke:none;" />
      </symbol>
      <symbol
         id="symbol5527"
         overflow="visible">
        <path
           id="path7280"
           d="M 3.78125 -0.546875 L 3.78125 0.109375 L 5.25 0 L 5.25 -0.3125 C 4.5625 -0.3125 4.46875 -0.375 4.46875 -0.875 L 4.46875 -6.921875 L 3.046875 -6.8125 L 3.046875 -6.5 C 3.734375 -6.5 3.8125 -6.4375 3.8125 -5.9375 L 3.8125 -3.78125 C 3.53125 -4.140625 3.09375 -4.40625 2.5625 -4.40625 C 1.390625 -4.40625 0.34375 -3.421875 0.34375 -2.140625 C 0.34375 -0.875 1.3125 0.109375 2.453125 0.109375 C 3.09375 0.109375 3.53125 -0.234375 3.78125 -0.546875 Z M 3.78125 -3.21875 L 3.78125 -1.171875 C 3.78125 -1 3.78125 -0.984375 3.671875 -0.8125 C 3.375 -0.328125 2.9375 -0.109375 2.5 -0.109375 C 2.046875 -0.109375 1.6875 -0.375 1.453125 -0.75 C 1.203125 -1.15625 1.171875 -1.71875 1.171875 -2.140625 C 1.171875 -2.5 1.1875 -3.09375 1.46875 -3.546875 C 1.6875 -3.859375 2.0625 -4.1875 2.609375 -4.1875 C 2.953125 -4.1875 3.375 -4.03125 3.671875 -3.59375 C 3.78125 -3.421875 3.78125 -3.40625 3.78125 -3.21875 Z M 3.78125 -3.21875 "
           style="stroke:none;" />
      </symbol>
    </g>
  </defs>
  <sodipodi:namedview
     inkscape:snap-intersection-paths="true"
     inkscape:window-maximized="1"
     inkscape:window-y="-9"
     inkscape:window-x="-9"
     inkscape:window-height="1013"
     inkscape:window-width="1920"
     showgrid="false"
     inkscape:document-rotation="0"
     inkscape:current-layer="layer1"
     inkscape:document-units="mm"
     inkscape:cy="327.78282"
     inkscape:cx="465.72444"
     inkscape:zoom="1.1831131"
     inkscape:pageshadow="2"
     inkscape:pageopacity="0.0"
     borderopacity="1.0"
     bordercolor="#666666"
     pagecolor="#ffffff"
     id="base" />
  <metadata
     id="metadata68199">
    <rdf:RDF>
      <cc:Work
         rdf:about="">
        <dc:format>image/svg+xml</dc:format>
        <dc:type
           rdf:resource="http://purl.org/dc/dcmitype/StillImage" />
        <dc:title />
      </cc:Work>
    </rdf:RDF>
  </metadata>
  <g
     style="opacity:0.98354167"
     id="layer1"
     inkscape:groupmode="layer"
     inkscape:label="Layer 1">
    <g
       transform="matrix(0.69,0,0,0.69,123.08372,-43.089008)"
       id="g4403"
       style="fill:#000000;fill-opacity:1">
      <use
         height="100%"
         width="100%"
         id="use1372"
         y="81.962997"
         x="111.053"
         xlink:href="#symbol1980" />
    </g>
    <g
       transform="matrix(0.69,0,0,0.69,123.08372,-43.089008)"
       id="g2801"
       style="fill:#000000;fill-opacity:1">
      <use
         height="100%"
         width="100%"
         id="use4403"
         y="81.962997"
         x="118.971"
         xlink:href="#symbol4250" />
    </g>
    <g
       transform="matrix(0.69,0,0,0.69,123.08372,-43.089008)"
       id="g317"
       style="fill:#000000;fill-opacity:1">
      <use
         height="100%"
         width="100%"
         id="use3532"
         y="78.040001"
         x="130.683"
         xlink:href="#symbol9538" />
    </g>
    <path
       id="path6262"
       d="m 213.2554,11.747134 h 2.73843"
       style="fill:none;stroke:#000000;stroke-width:0.27462;stroke-linecap:butt;stroke-linejoin:miter;stroke-miterlimit:10;stroke-opacity:1" />
    <g
       transform="matrix(0.69,0,0,0.69,123.08372,-43.089008)"
       id="g5759"
       style="fill:#000000;fill-opacity:1">
      <use
         height="100%"
         width="100%"
         id="use557"
         y="85.398003"
         x="130.683"
         xlink:href="#symbol6542" />
    </g>
    <g
       transform="matrix(0.69,0,0,0.69,123.08372,-43.089008)"
       id="g1432"
       style="fill:#000000;fill-opacity:1">
      <use
         height="100%"
         width="100%"
         id="use2643"
         y="73.892998"
         x="137.50999"
         xlink:href="#symbol2771" />
    </g>
    <g
       transform="matrix(0.69,0,0,0.69,123.08372,-43.089008)"
       id="g6572"
       style="fill:#000000;fill-opacity:1">
      <use
         height="100%"
         width="100%"
         id="use1514"
         y="81.962997"
         x="142.076"
         xlink:href="#symbol1214" />
    </g>
    <g
       transform="matrix(0.69,0,0,0.69,123.08372,-43.089008)"
       id="g4576"
       style="fill:#000000;fill-opacity:1">
      <use
         height="100%"
         width="100%"
         id="use1250"
         y="81.962997"
         x="149.269"
         xlink:href="#symbol3859" />
    </g>
    <g
       transform="matrix(0.69,0,0,0.69,123.08372,-43.089008)"
       id="g1702"
       style="fill:#000000;fill-opacity:1">
      <use
         height="100%"
         width="100%"
         id="use3355"
         y="78.040001"
         x="161.703"
         xlink:href="#symbol6003" />
    </g>
    <path
       id="path8709"
       d="m 233.78021,11.747134 h 4.4284"
       style="fill:none;stroke:#000000;stroke-width:0.27462;stroke-linecap:butt;stroke-linejoin:miter;stroke-miterlimit:10;stroke-opacity:1" />
    <g
       transform="matrix(0.69,0,0,0.69,123.08372,-43.089008)"
       id="g4915"
       style="fill:#000000;fill-opacity:1">
      <use
         height="100%"
         width="100%"
         id="use1693"
         y="85.398003"
         x="160.429"
         xlink:href="#symbol3577" />
    </g>
    <g
       transform="matrix(0.69,0,0,0.69,123.08372,-43.089008)"
       id="g7465"
       style="fill:#000000;fill-opacity:1">
      <use
         height="100%"
         width="100%"
         id="use6085"
         y="73.892998"
         x="168.045"
         xlink:href="#symbol3402" />
    </g>
    <g
       transform="matrix(0.68999169,0,0,0.68999169,126.39654,-22.691107)"
       style="fill:#000000;fill-opacity:1"
       id="g3693-4">
      <use
         xlink:href="#symbol3380"
         x="91.925003"
         y="81.962997"
         id="use7904-0"
         width="100%"
         height="100%" />
    </g>
    <g
       transform="matrix(0.68999169,0,0,0.68999169,126.39654,-22.691107)"
       style="fill:#000000;fill-opacity:1"
       id="g6355-6">
      <use
         xlink:href="#symbol2734"
         x="99.843002"
         y="81.962997"
         id="use1897-6"
         width="100%"
         height="100%" />
    </g>
    <g
       transform="matrix(0.68999169,0,0,0.68999169,126.39654,-22.691107)"
       style="fill:#000000;fill-opacity:1"
       id="g7565-1">
      <use
         xlink:href="#symbol7094"
         x="111.555"
         y="78.040001"
         id="use1963-7"
         width="100%"
         height="100%" />
    </g>
    <path
       style="fill:none;stroke:#000000;stroke-width:0.274617;stroke-linecap:butt;stroke-linejoin:miter;stroke-miterlimit:10;stroke-opacity:1"
       d="m 203.36834,32.144364 h 2.7411"
       id="path2446-2" />
    <g
       transform="matrix(0.68999169,0,0,0.68999169,126.39654,-22.691107)"
       style="fill:#000000;fill-opacity:1"
       id="g4016-1">
      <use
         xlink:href="#symbol5591"
         x="111.555"
         y="85.398003"
         id="use6372-5"
         width="100%"
         height="100%" />
    </g>
    <g
       transform="matrix(0.68999169,0,0,0.68999169,126.39654,-22.691107)"
       style="fill:#000000;fill-opacity:1"
       id="g3912-3">
      <use
         xlink:href="#symbol8102"
         x="118.382"
         y="73.892998"
         id="use9256-8"
         width="100%"
         height="100%" />
    </g>
    <g
       transform="matrix(0.68999169,0,0,0.68999169,126.39654,-22.691107)"
       style="fill:#000000;fill-opacity:1"
       id="g2334-6">
      <use
         xlink:href="#symbol9431"
         x="122.948"
         y="81.962997"
         id="use2036-7"
         width="100%"
         height="100%" />
    </g>
    <g
       transform="matrix(0.68999169,0,0,0.68999169,126.39654,-22.691107)"
       style="fill:#000000;fill-opacity:1"
       id="g8384-8">
      <use
         xlink:href="#symbol4817"
         x="130.14099"
         y="81.962997"
         id="use4898-7"
         width="100%"
         height="100%" />
    </g>
    <g
       transform="matrix(0.68999169,0,0,0.68999169,126.39654,-22.691107)"
       style="fill:#000000;fill-opacity:1"
       id="g2900-2">
      <use
         xlink:href="#symbol5513"
         x="142.575"
         y="78.040001"
         id="use2931-8"
         width="100%"
         height="100%" />
    </g>
    <path
       style="fill:none;stroke:#000000;stroke-width:0.274617;stroke-linecap:butt;stroke-linejoin:miter;stroke-miterlimit:10;stroke-opacity:1"
       d="m 223.89291,32.144364 h 4.43104"
       id="path8993-6" />
    <g
       transform="matrix(0.68999169,0,0,0.68999169,126.39654,-22.691107)"
       style="fill:#000000;fill-opacity:1"
       id="g5875-0">
      <use
         xlink:href="#symbol6558"
         x="141.302"
         y="85.398003"
         id="use5850-2"
         width="100%"
         height="100%" />
    </g>
    <g
       transform="matrix(0.68999169,0,0,0.68999169,126.39654,-22.691107)"
       style="fill:#000000;fill-opacity:1"
       id="g339-9">
      <use
         xlink:href="#symbol4840"
         x="148.918"
         y="73.892998"
         id="use3180-5"
         width="100%"
         height="100%" />
    </g>
    <use
       transform="matrix(0.69,0,0,0.69,62.141939,120.84339)"
       xlink:href="#symbol5921"
       x="106.8689"
       y="81.962997"
       id="use3930"
       width="100%"
       height="100%"
       style="fill:#000000;fill-opacity:1" />
    <g
       inkscape:export-ydpi="300"
       inkscape:export-xdpi="300"
       inkscape:export-filename="C:\Users\Jeet\AppData\Local\Microsoft\Windows\INetCache\inkscape\g4146.png"
       id="g4146">
      <g
         id="g3361"
         inkscape:export-xdpi="300"
         inkscape:export-ydpi="300">
        <path
           style="fill:none;stroke:#000000;stroke-width:0.264583px;stroke-linecap:butt;stroke-linejoin:miter;stroke-opacity:1;marker-start:url(#marker68992)"
           d="M 171.60119,136.07143 H 104.32143"
           id="path68765-3" />
        <path
           id="path68765-3-9"
           d="M 104.32143,136.07143 H 37.041669"
           style="fill:none;stroke:#000000;stroke-width:0.264583px;stroke-linecap:butt;stroke-linejoin:miter;stroke-opacity:1" />
        <g
           inkscape:label=""
           transform="matrix(0.6899917,0,0,0.6899917,37.47467,-3.9720651)"
           id="g68919">
          <g
             id="g2543">
            <g
               id="g3693"
               style="fill:#000000;fill-opacity:1">
              <use
                 height="100%"
                 width="100%"
                 id="use7904"
                 y="81.962997"
                 x="91.925003"
                 xlink:href="#symbol3380" />
            </g>
            <g
               id="g6355"
               style="fill:#000000;fill-opacity:1">
              <use
                 height="100%"
                 width="100%"
                 id="use1897"
                 y="81.962997"
                 x="99.843002"
                 xlink:href="#symbol2734" />
            </g>
            <g
               id="g7565"
               style="fill:#000000;fill-opacity:1">
              <use
                 height="100%"
                 width="100%"
                 id="use1963"
                 y="78.040001"
                 x="111.555"
                 xlink:href="#symbol7094" />
            </g>
            <path
               id="path2446"
               transform="matrix(1,0,0,-1,111.555,79.472)"
               d="M -3.125e-4,-6.5625e-4 H 3.972344"
               style="fill:none;stroke:#000000;stroke-width:0.398;stroke-linecap:butt;stroke-linejoin:miter;stroke-miterlimit:10;stroke-opacity:1" />
            <g
               id="g4016"
               style="fill:#000000;fill-opacity:1">
              <use
                 height="100%"
                 width="100%"
                 id="use6372"
                 y="85.398003"
                 x="111.555"
                 xlink:href="#symbol5591" />
            </g>
            <g
               id="g3912"
               style="fill:#000000;fill-opacity:1">
              <use
                 height="100%"
                 width="100%"
                 id="use9256"
                 y="73.892998"
                 x="118.382"
                 xlink:href="#symbol8102" />
            </g>
            <g
               id="g2334"
               style="fill:#000000;fill-opacity:1">
              <use
                 height="100%"
                 width="100%"
                 id="use2036"
                 y="81.962997"
                 x="122.948"
                 xlink:href="#symbol9431" />
            </g>
            <g
               id="g8384"
               style="fill:#000000;fill-opacity:1">
              <use
                 height="100%"
                 width="100%"
                 id="use4898"
                 y="81.962997"
                 x="130.14099"
                 xlink:href="#symbol4817" />
            </g>
            <g
               id="g2900"
               style="fill:#000000;fill-opacity:1">
              <use
                 height="100%"
                 width="100%"
                 id="use2931"
                 y="78.040001"
                 x="142.575"
                 xlink:href="#symbol5513" />
            </g>
            <path
               id="path8993"
               transform="matrix(1,0,0,-1,141.302,79.472)"
               d="M -0.00121875,-6.5625e-4 H 6.420656"
               style="fill:none;stroke:#000000;stroke-width:0.398;stroke-linecap:butt;stroke-linejoin:miter;stroke-miterlimit:10;stroke-opacity:1" />
            <g
               id="g5875"
               style="fill:#000000;fill-opacity:1">
              <use
                 height="100%"
                 width="100%"
                 id="use5850"
                 y="85.398003"
                 x="141.302"
                 xlink:href="#symbol6558" />
            </g>
            <g
               id="g339"
               style="fill:#000000;fill-opacity:1">
              <use
                 height="100%"
                 width="100%"
                 id="use3180"
                 y="73.892998"
                 x="148.918"
                 xlink:href="#symbol4840" />
            </g>
          </g>
        </g>
        <g
           transform="matrix(0.69,0,0,0.69,110.91603,80.469681)"
           id="g5637"
           style="fill:#000000;fill-opacity:1">
          <use
             height="100%"
             width="100%"
             id="use4695"
             y="78.040001"
             x="99.134003"
             xlink:href="#symbol1532" />
        </g>
        <path
           id="path7331"
           d="M 175.16958,135.30582 H 186.719"
           style="fill:none;stroke:#000000;stroke-width:0.27462;stroke-linecap:butt;stroke-linejoin:miter;stroke-miterlimit:10;stroke-opacity:1" />
        <g
           transform="matrix(0.69,0,0,0.69,110.91603,80.469681)"
           id="g1817"
           style="fill:#000000;fill-opacity:1">
          <use
             height="100%"
             width="100%"
             id="use3077"
             y="85.398003"
             x="93.121002"
             xlink:href="#symbol9751" />
        </g>
        <g
           transform="matrix(0.69,0,0,0.69,110.91603,80.469681)"
           id="g6988"
           style="fill:#000000;fill-opacity:1">
          <use
             height="100%"
             width="100%"
             id="use1679"
             y="86.394997"
             x="97.528999"
             xlink:href="#symbol2190" />
          <use
             height="100%"
             width="100%"
             id="use7209"
             y="86.394997"
             x="100.22737"
             xlink:href="#symbol6976" />
          <use
             height="100%"
             width="100%"
             id="use2894"
             y="86.394997"
             x="102.23384"
             xlink:href="#symbol9117" />
          <use
             height="100%"
             width="100%"
             id="use341"
             y="86.394997"
             x="105.96981"
             xlink:href="#symbol4708" />
        </g>
        <path
           style="fill:none;stroke:#000000;stroke-width:0.264583px;stroke-linecap:butt;stroke-linejoin:miter;stroke-opacity:1"
           d="M 152.3244,127.75596 H 36.663692"
           id="path69498-2" />
        <path
           id="path69607"
           d="M 171.22321,127.75596 H 36.663692"
           style="fill:none;stroke:#000000;stroke-width:0.264583px;stroke-linecap:butt;stroke-linejoin:miter;stroke-opacity:1" />
        <path
           id="path69607-18-4"
           d="M 168.95533,77.863139 H 34.395809"
           style="fill:none;stroke:#000000;stroke-width:0.264583px;stroke-linecap:butt;stroke-linejoin:miter;stroke-opacity:1" />
        <rect
           y="94.49408"
           x="80.508522"
           height="16.630941"
           width="71.437912"
           id="rect69712"
           style="fill:#0000ff;stroke:#0000ff;stroke-width:0.26499999;stroke-linecap:round;stroke-linejoin:round;stroke-miterlimit:4;stroke-dasharray:none;stroke-dashoffset:0;paint-order:stroke markers fill;fill-opacity:1;opacity:0.7" />
        <path
           id="path68765"
           d="M 104.32143,57.728253 V 136.07348"
           style="fill:none;stroke:#000000;stroke-width:0.265;stroke-linecap:butt;stroke-linejoin:miter;stroke-miterlimit:4;stroke-dasharray:none;stroke-opacity:1;marker-start:url(#Arrow1Lstart)" />
        <rect
           y="77.863144"
           x="134.37053"
           height="16.441921"
           width="17.575893"
           id="rect2043"
           style="opacity:0.7;fill:#0000ff;stroke:#0000ff;stroke-width:0.264999;stroke-linecap:square;stroke-linejoin:round;stroke-miterlimit:4;stroke-dasharray:none;stroke-dashoffset:0" />
        <rect
           style="opacity:0.7;fill:#0000ff;stroke:#0000ff;stroke-width:0.264999;stroke-linecap:square;stroke-linejoin:round;stroke-miterlimit:4;stroke-dasharray:none;stroke-dashoffset:0"
           id="rect2043-4"
           width="17.575893"
           height="16.441921"
           x="134.37053"
           y="111.12502" />
        <path
           style="fill:none;stroke:#000000;stroke-width:0.264583px;stroke-linecap:butt;stroke-linejoin:miter;stroke-opacity:1"
           d="M 170.46725,111.12502 H 35.907727"
           id="path69607-18" />
        <path
           id="path69607-18-3"
           d="M 169.71129,94.494079 H 35.151775"
           style="fill:none;stroke:#000000;stroke-width:0.264583px;stroke-linecap:butt;stroke-linejoin:miter;stroke-opacity:1" />
        <path
           id="path69496"
           d="M 151.94643,136.07143 V 74.650297"
           style="fill:none;stroke:#000000;stroke-width:0.26458299;stroke-linecap:butt;stroke-linejoin:miter;stroke-opacity:1;stroke-miterlimit:4;stroke-dasharray:3.17499584, 3.17499583999999979;stroke-dashoffset:0" />
        <g
           transform="translate(-17.078313,-18.975904)"
           id="g2621">
          <g
             style="fill:#000000;fill-opacity:1"
             id="g538"
             transform="matrix(0.69,0,0,0.69,84.396146,104.32051)">
            <use
               xlink:href="#symbol2722"
               x="91.925003"
               y="81.962997"
               id="use5465"
               width="100%"
               height="100%" />
          </g>
          <g
             style="fill:#000000;fill-opacity:1"
             id="g1317"
             transform="matrix(0.69,0,0,0.69,84.396146,104.32051)">
            <use
               xlink:href="#symbol4981"
               x="96.906998"
               y="81.962997"
               id="use3953"
               width="100%"
               height="100%" />
          </g>
          <g
             style="fill:#000000;fill-opacity:1"
             id="g2685"
             transform="matrix(0.69,0,0,0.69,84.396146,104.32051)">
            <use
               xlink:href="#symbol5748"
               x="99.674004"
               y="81.962997"
               id="use1832"
               width="100%"
               height="100%" />
          </g>
        </g>
        <g
           transform="translate(-85.233434,-19.456477)"
           id="g2631">
          <g
             style="fill:#000000;fill-opacity:1"
             id="g1563"
             transform="matrix(0.69,0,0,0.69,84.396146,104.32051)">
            <use
               xlink:href="#symbol5157"
               x="106.869"
               y="81.962997"
               id="use651"
               width="100%"
               height="100%" />
          </g>
          <g
             style="fill:#000000;fill-opacity:1"
             id="g4111"
             transform="matrix(0.69,0,0,0.69,84.396146,104.32051)">
            <use
               xlink:href="#symbol2722"
               x="116.832"
               y="81.962997"
               id="use4087"
               width="100%"
               height="100%" />
          </g>
          <g
             style="fill:#000000;fill-opacity:1"
             id="g1263"
             transform="matrix(0.69,0,0,0.69,84.396146,104.32051)">
            <use
               xlink:href="#symbol4981"
               x="121.813"
               y="81.962997"
               id="use4851"
               width="100%"
               height="100%" />
          </g>
          <g
             style="fill:#000000;fill-opacity:1"
             id="g4765"
             transform="matrix(0.69,0,0,0.69,84.396146,104.32051)">
            <use
               xlink:href="#symbol6531"
               x="124.581"
               y="81.962997"
               id="use7373"
               width="100%"
               height="100%" />
          </g>
        </g>
        <g
           inkscape:label=""
           transform="matrix(0.69,0,0,0.69,88.709476,85.597447)"
           id="g2884">
          <g
             id="g8769">
            <g
               id="g4892"
               style="fill:#000000;fill-opacity:1">
              <use
                 height="100%"
                 width="100%"
                 id="use1979"
                 y="81.962997"
                 x="91.925003"
                 xlink:href="#symbol2912" />
            </g>
          </g>
        </g>
        <path
           style="opacity:0.983542;fill:none;stroke:#000000;stroke-width:0.264583px;stroke-linecap:butt;stroke-linejoin:miter;stroke-opacity:1"
           d="M 171.60119,136.07143 H 37.041676"
           id="path69607-2" />
        <use
           transform="matrix(0.69,0,0,0.69,33.29326,65.578864)"
           xlink:href="#symbol4403"
           x="91.925003"
           y="81.962997"
           id="use184"
           width="100%"
           height="100%"
           style="fill:#000000;fill-opacity:1" />
        <use
           transform="matrix(0.69,0,0,0.69,29.888507,48.83351)"
           xlink:href="#symbol9525"
           x="96.906303"
           y="81.962997"
           id="use4771"
           width="100%"
           height="100%"
           style="fill:#000000;fill-opacity:1" />
        <use
           transform="matrix(0.69,0,0,0.69,26.446019,32.061022)"
           xlink:href="#symbol6753"
           x="101.8876"
           y="81.962997"
           id="use1796"
           width="100%"
           height="100%"
           style="fill:#000000;fill-opacity:1" />
        <path
           id="path3253"
           d="m 101.73041,119.42958 h 5.15552"
           style="fill:none;stroke:#000000;stroke-width:0.219779px;stroke-linecap:butt;stroke-linejoin:miter;stroke-opacity:1" />
        <path
           style="opacity:0.983542;fill:none;stroke:#000000;stroke-width:0.219779px;stroke-linecap:butt;stroke-linejoin:miter;stroke-opacity:1"
           d="m 101.77987,102.81539 h 5.15552"
           id="path3253-6" />
        <path
           style="opacity:0.983542;fill:none;stroke:#000000;stroke-width:0.219779px;stroke-linecap:butt;stroke-linejoin:miter;stroke-opacity:1"
           d="m 101.72681,86.171051 h 5.15552"
           id="path3253-4" />
      </g>
      <path
         style="fill:none;stroke:#000000;stroke-width:0.26458299;stroke-linecap:butt;stroke-linejoin:miter;stroke-opacity:1;marker-end:url(#Arrow1Lend);marker-start:url(#marker3393);stroke-miterlimit:4;stroke-dasharray:1.58749792,1.58749792;stroke-dashoffset:0"
         d="m 144.01976,86.769669 47.41023,13.417991 -47.1866,1.78906"
         id="path3387" />
      <path
         style="fill:none;stroke:#000000;stroke-width:0.26458299;stroke-linecap:butt;stroke-linejoin:miter;stroke-opacity:1;marker-start:url(#marker3451);stroke-miterlimit:4;stroke-dasharray:1.58749792,1.58749792;stroke-dashoffset:0"
         d="m 144.69066,120.31464 46.73933,-20.12698"
         id="path3389" />
      <g
         style="fill:#000000;fill-opacity:1"
         id="g1960"
         transform="matrix(0.69,0,0,0.69,124.93729,40.470135)">
        <use
           xlink:href="#symbol1645"
           x="91.925003"
           y="81.962997"
           id="use8159"
           width="100%"
           height="100%" />
      </g>
      <g
         style="fill:#000000;fill-opacity:1"
         id="g379"
         transform="matrix(0.69,0,0,0.69,124.93729,40.470135)">
        <use
           xlink:href="#symbol7674"
           x="99.814003"
           y="81.962997"
           id="use7029"
           width="100%"
           height="100%" />
        <use
           xlink:href="#symbol8297"
           x="103.68845"
           y="81.962997"
           id="use4826"
           width="100%"
           height="100%" />
        <use
           xlink:href="#symbol488"
           x="108.66975"
           y="81.962997"
           id="use2838"
           width="100%"
           height="100%" />
      </g>
      <g
         style="fill:#000000;fill-opacity:1"
         id="g4960"
         transform="matrix(0.69,0,0,0.69,124.93729,40.470135)">
        <use
           xlink:href="#symbol2308"
           x="115.86176"
           y="81.962997"
           id="use543"
           width="100%"
           height="100%" />
        <use
           xlink:href="#symbol1709"
           x="121.12002"
           y="81.962997"
           id="use4677"
           width="100%"
           height="100%" />
        <use
           xlink:href="#symbol3168"
           x="126.65524"
           y="81.962997"
           id="use8025"
           width="100%"
           height="100%" />
        <use
           xlink:href="#symbol9180"
           x="131.63654"
           y="81.962997"
           id="use129"
           width="100%"
           height="100%" />
      </g>
      <g
         style="fill:#000000;fill-opacity:1"
         id="g3670"
         transform="matrix(0.69,0,0,0.69,124.93729,40.470135)">
        <use
           xlink:href="#symbol3792"
           x="136.89281"
           y="81.962997"
           id="use6205"
           width="100%"
           height="100%" />
        <use
           xlink:href="#symbol1709"
           x="140.76726"
           y="81.962997"
           id="use6197"
           width="100%"
           height="100%" />
        <use
           xlink:href="#symbol4450"
           x="146.30247"
           y="81.962997"
           id="use640"
           width="100%"
           height="100%" />
      </g>
      <g
         style="fill:#000000;fill-opacity:1"
         id="g2567"
         transform="matrix(0.69,0,0,0.69,89.155984,47.85003)">
        <use
           xlink:href="#symbol4106"
           x="157.93182"
           y="81.962997"
           id="use8520"
           width="100%"
           height="100%" />
        <use
           xlink:href="#symbol1935"
           x="161.86107"
           y="81.962997"
           id="use2755"
           width="100%"
           height="100%" />
        <use
           xlink:href="#symbol6432"
           x="167.39629"
           y="81.962997"
           id="use6432"
           width="100%"
           height="100%" />
        <use
           xlink:href="#symbol9180"
           x="170.16391"
           y="81.962997"
           id="use5007"
           width="100%"
           height="100%" />
      </g>
      <g
         style="fill:#000000;fill-opacity:1"
         id="g5406"
         transform="matrix(0.69,0,0,0.69,89.155984,47.85003)">
        <use
           xlink:href="#symbol5390"
           x="179.01666"
           y="81.962997"
           id="use7362"
           width="100%"
           height="100%" />
        <use
           xlink:href="#symbol6432"
           x="181.78429"
           y="81.962997"
           id="use5601"
           width="100%"
           height="100%" />
        <use
           xlink:href="#symbol2308"
           x="184.5519"
           y="81.962997"
           id="use1058"
           width="100%"
           height="100%" />
        <use
           xlink:href="#symbol1709"
           x="189.81015"
           y="81.962997"
           id="use817"
           width="100%"
           height="100%" />
        <use
           xlink:href="#symbol6432"
           x="195.34537"
           y="81.962997"
           id="use4041"
           width="100%"
           height="100%" />
        <use
           xlink:href="#symbol5527"
           x="198.11298"
           y="81.962997"
           id="use5524"
           width="100%"
           height="100%" />
      </g>
    </g>
  </g>
</svg>
